<svg xmlns="http://www.w3.org/2000/svg" width="1440" height="123" fill="none" viewBox="0 0 1440 123">
  <path fill="#C3CA3A" d="M.022 122.76H1439.65V5.23c-24.44-1.914-56.9-4.264-84.78-3.726-13.26.255-19.29 2.395-34.45 3.252-123.56-.848-231.3-1.65-365.508-4.756-31.48-.045-109.83 3.535-142.35 6.486-56.02-2.505-89.73-2.122-134.4-1.348L576.16 9.411h-48L425.852 6.64c-44.39-1.293-71.08 2.06-71.08 2.06-25.06-2.205-34.77-.138-51.16.072l-148.37.638L.012 15.56l.01 107.2z"/>
  <path fill="#65923B" d="M150.04 28.568c-10.98.037-21.98.228-32.88.492C78.21 36.156 38.78 7.297 0 12.353v70.235c42.1-6.605 85.12-8.263 126.17-22.747-.47-.1-21.81-3.58-29.29-6.149 29.42-2.678 54.14-5.903 83.36-14.365 20.6-1.704 43.8-1.877 65.34-4.109-29.77-5.43-62.59-6.76-95.54-6.65z"/>
  <path fill="url(#paint0_linear_7_2)" d="M428.07 18.794c24.74-5.585 64.95-.283 90.12-4.109h36.05c35.01 3.443 86.26 10.266 114.9 10.266 65.23 5.749 262.6 44.92 322.17 73.888-32.64-3.289-176.34-31.082-256.84-49.255-25.8 2.432-53.45-.447-74.35-6.158-63.11-20.032-181.86-20.06-232.05-24.633z"/>
  <path fill="url(#paint1_linear_7_2)" d="M357.078 22.965c21.28-4.819 42.04-8.326 59.72-4.172 20.42-2.05 38.44 5.248 56.32 8.208 14.04 8.8 162.42 50.02 175.73 55.413-20.52 1.722-177.47-39.717-196.01-43.097-35.71-13.937-59.57-10.357-95.76-16.352z"/>
  <path fill="#A7BF34" d="M333.441 22.902c25.21-1.512 47.27 16.625 63.08 24.632 22.26 10.112 55.95 27.174 63.08 30.781-24.99-8.062-47-18.383-69.84-24.632-27.7-7.005-43.37-15.058-56.32-30.781zM279.371 27.001c5.69-3.616 12.02-1.366 18.02-2.05 12.59.665 15.04 10.96 22.53 16.416 15.88 13.537 22.8 28.777 31.54 43.097-10.2-9.173-17.71-16.716-29.29-24.632-19.5-9.629-29.63-17.409-42.8-32.831z"/>
  <path fill="#91B240" d="M547.469 43.425c30.4 1.832 61.33 8.554 90.12 16.416 61.13 15.832 118.14 25.516 171.23 43.097-18.55-.829-35.04-2.05-54.07-2.05-16.66 3.207-30.69-1.484-45.06-4.108-53.91-23.375-113.68-40.091-162.22-53.355z"/>
  <path fill="#8DAA45" d="M403.281 43.425c22.06 1.832 40.46 8.554 56.25 16.416 34.25 15.832 70.41 25.516 96.96 43.097-13.71-.829-25.48-2.05-40.24-2.05-15.59 3.207-22.57-1.484-31.54-4.108-22.36-23.375-54.81-40.091-81.43-53.355zM317.672 43.425c13.62 1.832 24.99 8.554 34.74 16.416 21.15 15.832 43.49 25.516 59.88 43.097-8.46-.829-15.74-2.05-24.86-2.05-9.63 3.207-13.94-1.484-19.48-4.108-13.8-23.375-33.84-40.091-50.28-53.355z"/>
  <path fill="#94B63D" d="M675.891 24.952c54.77 2.395 110.49 11.204 162.37 21.516 110.14 20.743 212.849 33.432 308.499 56.479-33.42-1.084-63.13-2.687-97.42-2.687-30.01 4.2-55.289-1.95-81.179-5.374-97.13-30.645-204.81-52.553-292.27-69.934z"/>
  <path fill="url(#paint2_linear_7_2)" d="M576.762 18.794c32.01-5.585 84.02-.283 116.58-4.109h46.63c45.29 3.443 111.59 10.266 148.64 10.266 45.53-3.443 139.778 37.978 201.348 26.947 79.64-14.266 208.41 37.039 234.79 38.733-42.22-3.288-247.49-22.874-351.618-41.047-33.38 2.432-69.14-.447-96.18-6.158-81.64-20.032-235.26-20.06-300.19-24.633z"/>
  <path fill="#E2E174" d="M1119.73 37.267c5.63-3.489 61.58-1.366 67.59-2.05 8.78-2.923 42.86-8.207 45.06-8.207 27.3.738 68.99 1.485 94.62 6.158 27.82.911 82.81 26.527 105.89 32.84-18.44-1.203-51.45-12.845-69.84-14.366-9.11 12.954-37.72 1.458-90.12-4.108-104.23-11.515-123.77-6.413-153.2-10.267z"/>
  <path fill="#8DAA45" d="M261.351 41.367c-1.32 21.498 3.07 42.733 6.76 59.522-11.01 7.251-20.68-1.567-27.04-2.05-4.01-24.159 12.79-34.716 20.28-57.472z"/>
  <g>
    <path fill="url(#paint3_linear_7_2)" d="M905.37 79c-.57.91-.99 1.96-1.36 3.06.45-1.02.89-2.06 1.36-3.06zm-75.41 26.75c-.6.44-1.19.91-1.74 1.48 5.18.74 15.26 3.99 23.61 4.8 4.74-3 9.76-2.89 14.75-4.8 4.12 1.6 9.36 2.08 13.91 3.6 4.47.64 9.5 1.53 13.48-1.21 3-2.38 4.65-4.22 9.7-1.2 1.38.44 2.29 1.47 3.79 1.2 8.79 0 17.69 1.68 26.55 0-7.76-3.02-16.12-6.68-25.29-4.8-1.28-3.64-2.81-7.23-2.11-12.61-1.05 1.35-1.52 5.94-4.21 5.4 0-3.61-.17-10.35 1.59-15.56-2.87 6.46-5.33 13.33-5.38 20.97-.7-6.02-.74-10.49-4.64-15.02v12.61c-5.6 1.6-12.63 3.3-18.96 3.6-3.84-.84-7.49-2.69-11.38-3.01a51.25 51.25 0 00-10.96 2.4c-2.48-3.14-4.78-6.8-8.86-7.2-2.55 1.82-5.45 3.98-8.38 5.82l-5.47 3.53zm-163.4-17.07c-.5 3.84-.95 7.74-1.05 11.83-4.51.69-8.09-.29-11.19 5.92 4.53-.54 9.58-.73 14.33-.53 8.65 0 14.89 2.86 23.76 2.15 5.78 0 11.23.06 16.77-2.15 1.22.68 2.67.71 3.85 2.15 5.75 0 11.57.21 17.12-.53 4.2 0 7.28.18 10.83-3.23 1.53 1.05 3.37 1.99 4.9 3.76 5.3 0 10.51-.03 15.73-.53-5.57-2.64-10.04-4.78-15.03-8.61-1.56.8-4.01 1.86-5.94 1.61-.64-2.45-.86-4.95-2.1-8.07-6.45 2.98-11.24 12.17-17.82 13.99-2.81-6.17-5.99-13.99-11.19-13.99-.74 1.28-2.47 4.44-4.19 5.38-3.37-2.31-5.45-5.15-9.09-3.77-1.16 1.61-1.98 4.2-3.49 4.85-1.65-3.39-3.31-7.36-6.64-8.61-1.63 2.86-3.17 5.37-3.84 9.68-2.64-5.41-5.21-8.43-9.79-10.23.48 1.84 2.41 4.58 1.4 9.68-3.09-2.65-4.87-6.48-7.33-10.75zm-162.27 0v12.38c-3.69 1.66-7.82 1.33-11.9 1.33-2.09-.04-3.89-.29-5.95-.44-3.08 2.32-5.6 3.29-8.23 4.42-3.38.12-6.49-1.56-9.61-2.65-2.93-1.59-5.37-3.23-7.78-5.3-5.33.4-8.52 2.82-13.27 4.86-5.18.74-10.38.38-15.55 0-7.65 1.78-15.8.99-23.34 2.21 9.88-.16 19.07 1.83 27.91 3.54 4.44-1.27 9.11-2.98 13.26-3.98 3.36 1.43 8.74 1.95 12.36 2.65 5.01.37 10.52.89 15.09 1.77 6.62-1.41 12.46-2.65 19.22-2.65 7.17-.02 14.51-.24 21.5.44 2.02.42 3.8 1.54 5.49 2.22.28-2.82 1.92-3.97 3.2-6.19.3-.05.59-.06.88-.09-2.89 1.82-.36 3.82 47.74 4.76 0-1.51.9-3.3 0-4.54 2.68 1.18 5.2 1.99 7.69 2.89 6.89 1.33 15.27 1.21 21.76-.41 2.65-.21 5.31-1.02 8.11 0 3.44 0 13.16.42 18.77 1.24 2.07-2.29 3.81-4.4 7.26-7.02-9.37 0-18.41 2.06-27.74 2.06-1.11-1.22-2.52-1.7-2.99-3.3-1.2 1.03-3.23 1.44-3.84 3.3-3.7 0-7.46.23-11.09-.41-1.46-1.62-3.42-3.73-5.12-5.36-1.03 1.12-4.01.61-3.41 3.71-1.56-2.26-3.4-3.47-3.41-6.59-6.93-4.12-5.21-4.39-9.39 0-3.41 1.83-6.89 3.66-10.67 4.54-9.83.86-19.87.93-29.83 2.37-1.16-3.12-1.15-6.07-1.5-9.08-.36 2.83-2.49 7.84-2.74 8.4-5.06.62-6.63-3.06-9.15-6.19.54 1.84.59 3.42.92 5.3.95 3.63-1.39 3.56-2.74 5.3-2.06.78-3.83-.67-5.04-.88-5.96-4.55-6.87-7.76-6.87-14.61zm435.48 4.11c-1.61 3.79-3.6 8.23-4.87 12.06-1.06-1.25-1.78.19-2.43-2.87-2.84.77-5.91.91-8.75 1.72 4.4 3.89 9.22 5.18 15.08 6.31 14.17 3.35 32.53 3.93 45.71-2.87-7.3 0-14.76.6-21.89-1.15-1.11-.87-1.59-.81-2.92-2.3-1.16 1.17-2.62 1.59-3.4 3.44-2.02-.92-4.2-1.35-6.32-2.87-.15-.47-3.37-1.77-1.46-4.59-1.34 1.89-3.77 4.29-4.87 6.89-1.01-3.97-3.36-8.87-3.88-13.77z"/>
    <path fill="url(#paint4_linear_7_2)" d="M956.36 104.28c14.77 1.06 30.55-1.62 43.56-3.62 4.18-1.05 5.12 1.55 7.49 2.26 3.27.95 5.13-1.36 6.81-1.81 2.7-1.26 5.07 1.5 6.13 1.81 4.65-3.66 5.15-8.33 7.49-12.21 4.63 1.94 5.66 6.15 7.49 9.49 4.5-.07 8.4-.63 12.93-.9 1.88.53 3.09.59 4.76.9 5.35-1.35 10.17-4.5 13.61-6.78 3.61 1.31 6.69 4.48 8.85 6.33 2.61-.96 5.45-1.51 8.17-2.26 6.74-.74 13.61-.45 20.42-.45 5.06-.18 7.02-2.86 9.53-4.52 5.13.55 7.8 3.56 10.89 5.43 5.18.24 10.13-1.29 14.97-2.26 5.46.51 9.51 2.85 13.61 4.97h17.02c4.72-2.66 2.72-5.04 2.72-7.23 3.16 1.96 3.33 4.19 4.76 6.33 3.98-.29 6.52-2.72 8.85-4.07-.57 2.41.36 5.11.68 7.23 9.83-.84 19.99-.45 29.95-.45 2.93.84 6.06 2.35 8.17 3.16-15.38 4.33-30.34 1.74-44.92-.9-4.73.58-9.89.45-14.97.45-11.15-2.5-23.87-1.85-34.71-3.16-6.25.24-12.35-.05-18.38-.45 2.72.06 2.41 1.92 3.4 2.71-9.96 1.01-17.21-1.36-26.55-1.36-7.39.44-14.78.45-22.46.45-5.57.72-11.34.45-17.02.45-5.08-2.99-2.24 1.12-2.72 1.36-4.06.65-13.38-.36-14.98-.45-3.63-.57-5.89.9-8.85 1.36h-21.1c-17.64-2.4-34.22 5.75-45.6-1.81z"/>
    <path fill="#94B63D" d="M1224.1 103.94c4.14-.78 12.16-3.17 14.69-3.96 2.74.01 2.71 1.69 4.52 2.83 1.54-1.93 2.17-7.48 2.26-7.91 2.45 1.72 2.96 4.07 4.52 6.22 2.05-1.53 4.32-4.83 5.09-6.22-1.25 2.31.93 5.1 1.13 6.22 4.4.73 8.03-.71 11.3-1.7h9.61c2.96-.96 2.74-4.31 3.96-6.22 1.42.14 1.89 1.51 2.83 2.26 2.75 1.65 5.94 1.13 9.04 1.13 2.29-.67 4.55-1.52 6.78-2.26 4.05-1.06 1.93 3.08 2.83 4.52 10.21.14 20.06.85 29.39 1.7 3.25-4.14 2.1-7.96 1.7-12.43.78 3.74 2.4 10.87 2.83 12.43 1.34-4.87 5.02-8.76 7.35-11.87.88 3.48.57 7.15.57 10.74 2.18-1.14 3.36-2.24 5.09-3.39.45 2.1 1.91 3.44 2.83 5.09 6.73-1.72 8.16-5.5 10.74-11.3 1.69 3.71-.08 8.05-.57 10.74 2.83-1.46 5.24-3.04 7.91-4.52V100c5.34-.88 10.16-1.75 15.82-2.26 17.17 6.95 35.28 5.16 53.12 6.78-12.09 5.76-30.67 3.76-42.39.57h-14.13c-2.81-.29-5.21.37-7.91.57-4.9.72-10.98-.39-14.69-1.13-6.4.67-13.16-.22-18.08-1.7 1.85 2.32-.94 2.81-1.13 3.39-5.15.66-10.32-.55-14.13-1.7-8.68-1.51-17.63-1.13-26.56-1.13v3.96c-7.53 1.04-10.93-2.41-16.95-5.09-4.89.55-8.69 1.77-13.56 2.26-5.62-.32-10.92 1.42-16.39 2.26-3.06 1.92-4.62-1.39-5.65-1.7-8.02.11-16.3.36-23.77-1.14z"/>
    <path fill="#718D2D" d="M438.87 105.63c-3.71-2.31-3.81-4.13-3.81-8.21-1.56 2.08-1.96 4.52-2.35 6.45-3.82-6.28-5.55-13.73-7.92-20.81.32 5.73.29 11.49.29 17.3-1.64-2.48-3.92-4.84-5.57-7.04.32 2.5.29 5.04.29 7.62-1.91.18-3.7-.76-5.28-1.47.5 2.04-.42 3.3-.88 4.98-3.62-1.4-5.22-4.08-5.86-7.62-.48 1.79-.96 3.28-1.47 4.98-2.34-2.59-3.51-6.44-4.98-9.09-.6 3.66-2.97 7.05-4.4 10.26-1.52-1.43-1.02-2.92-1.17-4.69-.77 2.45-2.21 3.33-4.1 4.98-1.39.05-2.34-1.16-3.22-2.05-1.23 2.21-2.46 2.94-4.4 4.4-3.76-7.71-11.03-10.81-17.3-15.83 1.87 5.75 3.87 9.96 4.98 15.54-1.72-4.56-6.72-7.14-9.97-9.09 2.86 2.82 4.6 5.93 5.86 9.09-3.56-2.96-6.21-3.22-10.55-3.22 1.53.49 2.42 2.01 3.22 2.93-6.08 1.04-12.28.69-18.18-.29-.59-4.41 1.42-7.89 3.22-11.14-4.73 1.46-5.35 6.01-7.04 9.38-1.49-7.4.86-12.41 4.4-18.47-5.64 4.07-7.58 11.71-9.67 16.42-1.27-3.41-2.78-5.95-4.69-8.5.42 3.59.4 6.97-.59 10.26-2.7.48-5.47.29-8.21.29 1.35 1.84-1.16 1.86-1.47 2.35-4.99-.14-9.2-2.98-12.9-5.57v5.28c-5.64.38-11.62-.45-16.12 2.05 6.57-1.09 12.15 2.35 18.47 2.35 6.4-2.8 14-2.39 20.23-3.52 8.31 2.14 16.95 2.64 25.51 2.64-.25 1.4.16 1.14.29 2.05 4.57-2.89 9.36-4.16 14.66-4.69 3.3.09 6.49 1.77 9.38 2.64.77-.95 1.17-1.95 1.76-2.93 3.16 2.28 5.18 3.52 8.79 3.52-.65-1.4 1.09-2.39 1.47-3.22 1.51 5.35 7.48 6.23 12.61 4.69.37-1.04-.21-2.07-.29-2.93 4.6 1.57 10.07 1.5 14.66.59 7.83.85 18.09 2.15 22.3-2.66z"/>
    <path fill="#7C983D" d="M293.16 103.2c-1.52-5.21-1.65-11.21-.61-16.9-1.95 4.67-5.76 8.47-7.37 12.91-1.67-.82-3.54-1.82-4.61-2.46-.26 2.02-.42 4.17-.61 6.15-3.23.45-6.17-.75-8.91-1.84-.52-2.5-.31-5.12-.31-7.68-2.28 1.95-3.35 5.82-4.61 8.6-3.08-3.85-7.59-6.29-11.06-8.6 2.83 3.85 2.95 7.95 3.38 12.29-7.36-3.41-14.67-7.55-22.43-10.14 4.88 1.33 9.22 7.07 10.76 9.83-2.29.85-4.67.61-7.07.61-1.8-2.1-1.6-3.97-1.84-6.45.23 2.4-.41 4.28-.92 6.15-4.49-6.23-8.74-12.18-16.29-14.44 4.65 3.45 7.08 8.15 7.68 14.14-1.56-.55-2.85-1.33-3.99-1.84-.54-1.18-.2-2.45-.31-3.69-3.08 1.3-5.02 4.52-6.76 6.76-3.09-2.92-5.89-6.02-9.22-8.6.05 2.51.31 4.84.31 7.37-4.59.5-9.12-.61-13.83-.61-.67 1.5-.13 2.96 0 4.3-5.35-2.03-9.92-2.77-15.36-2.77-1.55 1.22-3.3 1.93-4.61 2.77-.97-3.94.07-7.87 1.23-11.06-4.07 2.01-7.5 3.98-10.14 7.37-3.35.24-7.36 1.38-10.14 1.84-2.03-3.77-4.56-4.8-7.68-5.84.96 3.18 1.23 6.09 1.23 9.53 4.85 1.25 9.93 1.33 15.06 1.84 1.53-.1 1.9-1.33 3.07-2.15 2.56 1.34 4.29 3.17 6.45 4.61 2.91-2.15 6-2.84 9.22-3.38 5.34.86 10.84 3.14 15.98 4.61 2.26-.5 3.84-2.61 4.92-3.69 3.11.24 5.8.92 8.91.92 4.07.45 7.87-1 11.37-2.46 1.75 1.87 3.7 2.34 5.84 2.77.54-.95 1.43-2.38 1.84-3.07 2.99.36 5.8 1.62 8.6 2.46 1.74-.14 3.23-1.73 4.61-2.77 5.33 1.66 11.36 1.1 16.59 2.15 1.46-1.61 1.34-2.62 1.54-4.61 2.16.67 2.87 1.46 4.61 2.77 1.87-.34 7.05-2.63 7.37-2.77 2.55.81 5 2.98 6.76 4.3 1.93-2.7 3.37-4.28 4.61-7.07 3.05 2.47 6.44 3.99 9.53 4.92-.31-2.98-1.69-4.86-2.79-7.08z"/>
    <path fill="#65923B" d="M152.36 111.35c-1.81-11.46-4.66-11.93-12.21-17.27 1.18 3.46.45 7.12.68 10.69-3.74-4.62-3.39-10.61-3.39-17.27-6.46 3.73-11.73 12.06-15.6 18.09-2.19-1.19-3.16-4.39-4.75-6.58-2.84 1.28-5.03 3.88-7.46 5.76-8.52.17-15.72-3.81-23.74-5.76-3.13 2.64-.44 4.76-.68 7.4-10.25.28-19.41-3.55-28.48-5.76-.16 8.1-3.16 1.64-4.75 2.47-1.58-7.62-.2-12.97 2.03-19.73-3.67 5.1-5.36 10.57-8.14 15.62-1.06-6.17-1.53-12.76-2.03-18.91-3.26 7.81-4.51 14.36-6.78 20.56-3.88-.85-.9-3.29-1.36-4.93-2.39-2.57-6.44-6.25-6.78-6.58 2.26 5.01 2.12 8.02 3.39 13.16-2.77-1.02-5.58-3.08-7.46-4.11-2.55-4.07-3.59 2.91-4.07 3.29-6.3-2.15-12.68 2.45-14.24 3.29 4.98 6.21 14.25 4.93 18.99 4.93-2.31 4.84 2.86 5.54 3.39 6.58 4.78.13 8.89-2.99 12.89-4.93 2.89 5.95 6.3 4.05 10.17 5.76 2.11.11 2.73-2.65 3.39-3.29 3.66-2.38 8.46-2.64 12.21-3.29 3.85-1.04 7.42.98 10.17 1.64-1.13 5.2 2.22 4.31 3.39 6.58 5.66-.01 10.45-4.18 15.6-6.58 3.54-1.2 7.22-.82 10.85-.82 3.79-.49 6.34 1.76 9.49 3.29 3.41.22 7.01-1.42 8.14-1.64 3.6-.58 5.38 1.09 8.14 1.64.17-2.06 1.82-2.75 2.71-4.11 6.62 2.78 10.9 1.46 16.29.81z"/>
  </g>
  <defs>
    <linearGradient id="paint0_linear_7_2" x1="656.186" x2="935.954" y1="41.985" y2="127.294" gradientUnits="userSpaceOnUse">
      <stop stop-color="#B1CA3C"/>
      <stop offset="1" stop-color="#CDDC77"/>
    </linearGradient>
    <linearGradient id="paint1_linear_7_2" x1="454.798" x2="671.548" y1="36.426" y2="111.692" gradientUnits="userSpaceOnUse">
      <stop stop-color="#A7BF34"/>
      <stop offset="1" stop-color="#B9D046"/>
    </linearGradient>
    <linearGradient id="paint2_linear_7_2" x1="712.907" x2="1049.45" y1="21.601" y2="58.341" gradientUnits="userSpaceOnUse">
      <stop stop-color="#B1CA3C"/>
      <stop offset="1" stop-color="#E3DA75"/>
    </linearGradient>
    <linearGradient id="paint3_linear_7_2" x1="905.174" x2="442.775" y1="96.511" y2="92.973" gradientUnits="userSpaceOnUse">
      <stop stop-color="#87A63B"/>
      <stop offset="1" stop-color="#718D2D"/>
    </linearGradient>
    <linearGradient id="paint4_linear_7_2" x1="956.361" x2="1225.23" y1="99.337" y2="99.337" gradientUnits="userSpaceOnUse">
      <stop stop-color="#87A63B"/>
      <stop offset="1" stop-color="#718D2D"/>
    </linearGradient>
  </defs>
</svg>
