<svg xmlns="http://www.w3.org/2000/svg" width="1573" height="429" fill="none" viewBox="0 0 1573 429">
  <path fill="url(#paint0_linear_0_3)" d="M1516.63 207.242c-34.93-.05-69.92-4.12-103.8-9.46-35.08-5.53-69.91-12.5-103.12-21.85-23.03-6.49-44.37-14.78-65.95-23.15-25.83-10-51.51-20.17-77.1-30.45-25.77-10.36-51.45-20.8-77.08-31.26-23.54-9.6-47.38-20.52-76.52-18.25-24.84 1.94-46.69 10.69-67.44 19.35-11.48 4.79-23 10.79-35.34 14.55-11.4 3.49-22.8 7.01-34.06 10.71-23.79 7.83-47.34 16.19-69.32 26.1-20.65 9.3-39.47 20.14-59.07 30.33-10.36 5.39-22.19 11.57-35.87 12.35-16.82.96-32.17-4.94-45.78-10.75-33.68-14.38-62.2-33.98-92.05-51.48-57.43-33.68-146.51-85.8-228.09-56.14-40.56 14.75-70.63 38.49-107.17 56.76-17.41 8.7-36.41 16.12-57.83 19.54-21.71 3.47-43.97 3.69-66.14 4.62-21 .88-38.35 8.01-56.77 14.15-8.77 2.92-17.64 5.89-26.94 8.01-5.82 1.32-13.84 3.37-20.17 2.74-3.77-.37-7.43-1.05-11.01-1.92v256.57h1572.02v-223.89c-18.4 1.64-36.81 2.84-55.4 2.82z"/>
  <mask id="a" width="1573" height="370" x="0" y="59" maskUnits="userSpaceOnUse" style="mask-type:alpha">
    <path fill="url(#paint1_linear_0_3)" d="M1516.63 207.242c-34.93-.05-69.92-4.12-103.8-9.46-35.08-5.53-69.91-12.5-103.12-21.85-23.03-6.49-44.37-14.78-65.95-23.15-25.83-10-51.51-20.17-77.1-30.45-25.77-10.36-51.45-20.8-77.08-31.26-23.54-9.6-47.38-20.52-76.52-18.25-24.84 1.94-46.69 10.69-67.44 19.35-11.48 4.79-23 10.79-35.34 14.55-11.4 3.49-22.8 7.01-34.06 10.71-23.79 7.83-47.34 16.19-69.32 26.1-20.65 9.3-39.47 20.14-59.07 30.33-10.36 5.39-22.19 11.57-35.87 12.35-16.82.96-32.17-4.94-45.78-10.75-33.68-14.38-62.2-33.98-92.05-51.48-57.43-33.68-146.51-85.8-228.09-56.14-40.56 14.75-70.63 38.49-107.17 56.76-17.41 8.7-36.41 16.12-57.83 19.54-21.71 3.47-43.97 3.69-66.14 4.62-21 .88-38.35 8.01-56.77 14.15-8.77 2.92-17.64 5.89-26.94 8.01-5.82 1.32-13.84 3.37-20.17 2.74-3.77-.37-7.43-1.05-11.01-1.92v256.57h1572.02v-223.89c-18.4 1.64-36.81 2.84-55.4 2.82z"/>
  </mask>
  <g mask="url(#a)">
    <path fill="url(#paint2_linear_0_3)" d="M1516.63 207.242c-34.93-.05-69.92-4.12-103.8-9.46-35.08-5.53-69.91-12.5-103.12-21.85-23.03-6.49-44.37-14.78-65.95-23.15-25.83-10-51.51-20.17-77.1-30.45-25.77-10.36-51.45-20.8-77.08-31.26-23.54-9.6-47.38-20.52-76.52-18.25-24.84 1.94-46.69 10.69-67.44 19.35-11.48 4.79-23 10.79-35.34 14.55-11.4 3.49-22.8 7.01-34.06 10.71-23.79 7.83-47.34 16.19-69.32 26.1-20.65 9.3-39.47 20.14-59.07 30.33-10.36 5.39-22.19 11.57-35.87 12.35-16.82.96-32.17-4.94-45.78-10.75-33.68-14.38-62.2-33.98-92.05-51.48-57.43-33.68-146.51-85.8-228.09-56.14-40.56 14.75-70.63 38.49-107.17 56.76-17.41 8.7-36.41 16.12-57.83 19.54-21.71 3.47-43.97 3.69-66.14 4.62-21 .88-38.35 8.01-56.77 14.15-8.77 2.92-17.64 5.89-26.94 8.01-5.82 1.32-13.84 3.37-20.17 2.74-3.77-.37-7.43-1.05-11.01-1.92v256.57h1572.02v-223.89c-18.4 1.64-36.81 2.84-55.4 2.82z"/>
    <path fill="#2A2C2A" d="M1568.74 252.742c-13.43-.6-30.54-6.21-42.81-.6 1.7 1.4 3.21 2.88 5.09 4.22.5.35.37 1.56-.71 1.21-18.35-5.88-38.49-7.5-58.5-9.22-18.08-1.56-35.19-4.52-52.28-8.75-14.91-3.71-29.81-8.26-45.35-10.75-17.85-2.85-36.22-3.69-54.56-3.86-14.65-.13-29.76.92-44.28-.71-10.81-1.2-20.67-4.55-30.15-8.01-13.08-4.77-26.83-7.24-40.88-10.36-12.02-2.66-23.77-6.06-32.39-12.4-17.22-12.67-24.91-30.68-46.28-40.84 2.02 3.57 3.11 7.3 4.8 10.95.18.36-.01.92-.74.9-13.05-.19-25.22-4.29-36.65-8.06-6.33-2.07-12.6-4.24-19.14-6-5.78-1.56-11.87-2.61-17.5-4.44-8.59-2.79-14.8-6.7-21.13-11.37-3.97-2.92-8.1-5.74-12.78-8.17-.84-.44-2.72 7.58-2.8 8.47-.24 2.68-.29 5.36-.29 8.04 0 .44-.55.97-1.27.61-7.17-3.53-14.96-6.99-18.99-12.46-2-2.69-3.64-5.39-3.29-8.45.45-4.14 2.33-7.51-1.21-11.19-5.88 7.41-12.16 15.54-22.08 20.92-9.12 4.93-20.35 6.33-31.88 5.37-17.71-1.46-34.31-6.21-51.63-8.83-15.93-2.41-31.16-2.13-46.64.16-12.14 4.47-24.06 9.22-35.54 14.4-20.65 9.3-39.47 20.14-59.07 30.33-10.36 5.39-22.19 11.57-35.87 12.35-16.82.96-32.17-4.94-45.78-10.75-33.68-14.38-62.2-33.98-92.05-51.48-32.42-19.02-74.94-43.91-120.5-56.64-6.8 3.15-13.67 6.25-20.45 9.47-14.05 6.66-28.97 12.44-43.13 19.01-11.58 5.39-22.73 11.02-34.87 15.9-23.94 9.61-50.09 18.1-70.14 31.28-18.63 12.25-27.16 29.99-51.47 38.27-.62.21-1.18-.13-1.18-.54v-4.91c-4.42 1.81-8.74 3.74-12.86 5.86-3.98 2.04-12.04 5.25-12.2 8.98-.12 2.53.07 4.76-1.69 7.05-1.33 1.7-5.41 3.29-7.72 4.37-7.17 3.37-14.93 6.11-22.5 9.09-8.7 3.41-16.13 7.58-24.23 11.54-32.81 16.06-70.98 26.47-110.03 33.89-.81.15-1.11-.61-.78-.96 5.77-6.17 13.11-11.6 20.5-16.94 7.32-5.29 14.14-10.95 21.6-16.14 5.87-4.1 12.96-7.37 19.25-11.17 5.91-3.58 13.04-8.03 13.57-13.62-33.66 18.11-73.04 30.09-115.31 36.27v194.28h1572.02v-175.48c-1.06-.03-2.16-.03-3.25-.09z" opacity=".2"/>
    <path fill="#32483D" d="M31.69 190.552c-9.48 4.33-20.41 9.32-31.71 11.12v21.59c3.05-6.19 5.8-12.46 10.87-18.1 5.33-5.96 13.91-9.73 20.84-14.61z"/>
    <g opacity=".9">
      <path fill="#585849" d="M41.13 178.482c15.09-4.72 28.74-11.29 43.99-15.76.37-.11.9-.18 1.18.07 3.92 3.36-1.22 7.92-4.47 10.56-5.9 4.78-12.9 8.89-19.56 13.19-6.83 4.42-11.07 10.33-18.32 14.45-4.12 2.35-8.84 4.03-13.58 5.74-6.2 2.24-13.25 3.41-18.44 6.65 11.05 1.73 23.66-.3 34.22-2.39 12.11-2.39 24.92-5.48 35.16-10.51 9.39-4.62 17.06-11.26 27.98-14.36 12.31-3.5 26.13.6 38.53 1.76.57.06.69.5.49.79-1.36 2.14-1.86 4.54-3.59 6.55 7.98-.38 16.03-2.57 22.98-4.96 6.21-2.13 13.16-4.69 17.36-8.55-3.01-.14-5.99-.54-8.55-1.65-2.25-.98-4.11-2.4-6.46-3.26-3.91-1.44-9.62-1.82-13.95-2.47-5.29-.79-10.59-1.52-15.91-2.23-.52-.07-.74-.49-.49-.78 16.28-19.71 59.03-13.17 86.69-14.64.64-.03 1.06.43.74.8-1.74 2.08-2.37 4.42-3.83 6.56 8.02-.38 17.11-2.58 22.58-6.4 3.44-2.4 5.31-4.83 5.02-8.16-.15-1.92-.45-3.86-.07-5.77 2.08-10.63 14.24-19.55 25.55-26.64 13.17-8.24 27.26-16.56 41.85-23.71 15.81-7.75 33-14 50.41-20.02 6.33-2.19 18.31-6.86 25.7-3.77 5.14 2.15 4.53 6.66 2.89 10.02-3.06 6.28-9.33 11.52-16.55 15.98-11.85 7.32-24.14 14.4-35.42 22.12-9.15 6.25-17.44 12.92-25.13 19.96-3.61 3.29-17.64 13.62-8.66 17.09 8.34 3.22 21.41-1.32 29.18-3.53 9.37-2.68 18.32-5.11 28.66-5.68 15.44-.84 30.12 1.66 44.92 4.32 16.69 3 33.54 4.51 50.79 5.41 15.66.82 31.46 1.36 46.94 3.23 15.98 1.93 30.86 5.31 45.18 10.37 27.4 9.7 61.38 21.08 91.06 8.32 3.66-1.57 7.23-3.23 10.76-4.92-30.57-13.99-57.13-32.04-84.83-48.28-57.43-33.68-146.51-85.8-228.09-56.14-40.56 14.75-70.63 38.49-107.17 56.76-17.41 8.7-36.41 16.12-57.83 19.54-21.71 3.47-43.97 3.69-66.14 4.62-21 .88-38.35 8.01-56.77 14.15-8.77 2.92-17.64 5.89-26.94 8.01-5.82 1.32-13.84 3.37-20.17 2.74-3.77-.37-7.43-1.05-11.01-1.92v7.79c11.69 5.87 27.63 3.16 41.12-1.05z" opacity=".9"/>
      <path fill="#646C5B" d="M845.39 130.642c6.54-1.15 12.81-2.91 18.93-4.81 10.61-3.29 21.22-7.61 32.83-9.19.83-.12 1.62.42 1.02.91-1.68 1.36-2.95 2.89-4.54 4.28 6.63-.07 12.15-2.02 18.4-3.38 5.27-1.15 10.39-1.42 15.9-.91 12.69 1.17 27.13 4.47 38.75-.89 7.34-3.37 10.64-8.71 14.83-13.69 4.04-4.82 8.96-8.86 16.45-11.46.5-.18 1.13-.22 1.58.06 5.13 3.12 7.22.66 11.83-.88 2.47-.84 4.65-.75 7.11.04 7.2 2.3 11.46 8.67 15.69 12.86 4.84 4.8 12.19 9.2 18.4 13.21 5.56 3.58 14.61 10.1 23.39 9.61-2.3-3.64-3.44-7.9 3.63-9.29 7.64-1.5 16.62 1.18 23.68-1.78 2.17-.91 3.9-1.92 6.67-1.73 4.76.33 9.79 1.19 14.14 2.55 10.3 3.21 17.66 8.77 24.62 14.57 3.7 3.06 7.27 6.54 11.9 9.02 4.83 2.6 10.26 4.64 15.12 7.2 10.82 5.65 10.95 13.82 14.39 22 3.59 8.58 10.26 15.21 22.21 19.6 9.62 3.54 20.03 6 29.8 9.36.47-3.47-4.63-5.47-8.24-7.68-3.43-2.12-6-4.39-6.65-7.53-.12-.56.91-.77 1.55-.68 39.5 5.72 79.99 7.75 117.63 18.16 9.24 2.55 18.57 5.3 28.42 6.7 10.72 1.52 21.11.93 31.95.74 19.27-.34 38.66.32 56.46 5.68.51.16.51.57.21.82-3.64 2.87-8.68 4.73-14.22 5.29 10.46 5.62 24.13 8.89 36.82 11.45 15.83 3.19 31.42 5.17 48.05 4.34 13.01-.65 25.29.14 37.94 1.46v-32.23c-18.37 1.65-36.79 2.85-55.37 2.82-34.93-.05-69.92-4.12-103.8-9.46-35.08-5.53-69.91-12.5-103.12-21.85-23.03-6.49-44.37-14.78-65.95-23.15-25.83-10-51.51-20.17-77.1-30.45-25.77-10.36-51.45-20.8-77.08-31.26-23.54-9.6-47.38-20.52-76.52-18.25-24.84 1.94-46.69 10.69-67.44 19.35-11.48 4.79-23 10.79-35.34 14.55-11.4 3.49-22.8 7.01-34.06 10.71-13.55 4.45-26.98 9.09-40.12 14.08 3.09-.05 6.21-.34 9.25-.87z" opacity=".9"/>
    </g>
    <path fill="url(#paint3_linear_0_3)" d="M1466.67 261.102c-42.37-12.62-83.82-26.83-127.24-37.85-17.83-4.51-39.11-10.36-58.61-8.1-12.5 1.45-23.71 5.57-36.42 6.76-20.25 1.88-38.68-.2-56.84-6.47-20.38-7.02-39.06-16.33-57.71-25.14-36.12-17.05-71.25-36.04-111.96-48.2-20.93-6.25-43.23-10.75-66.22-11.82-24.32-1.12-47.92 1.98-72.05 3.14-35.9 1.71-72.36-.54-105.81-9.73-32.97-9.06-65.62-23.27-91.61-39.44-20.08-12.48-38.61-26.09-57.85-39.12-20.5-13.87-41.08-28.69-64.94-40.11-8.76-4.19-16.05-6.58-26.89-3.87-13.75 3.46-25.46 10.16-35.91 16.81-24.18 15.38-44.52 33.06-66.08 49.99-23.82 18.69-52.7 33.98-81.62 49.11-19.21 10.04-38.61 20.06-56.07 31.44-16.38 10.67-29.65 22.51-42.52 35.05-9.27 9.02-18.45 18.24-29.75 26.23-12.14 8.58-26.22 15.45-41.72 21.17-19.04 7.02-38.63 13.63-58.04 20.18-16.25 5.48-32.79 10.73-50.05 14.67-23.04 5.27-46.75 7.98-70.76 9.28v153.24h1572.02v-141.6c-36.41-5.93-71.89-15.65-105.35-25.62z"/>
  </g>
  <mask id="b" width="1573" height="429" x="0" y="0" maskUnits="userSpaceOnUse" style="mask-type:alpha">
    <path fill="url(#paint4_linear_0_3)" d="M1466.67 261.102c-42.37-12.62-83.82-26.83-127.24-37.85-17.83-4.51-39.11-10.36-58.61-8.1-12.5 1.45-23.71 5.57-36.42 6.76-20.25 1.88-38.68-.2-56.84-6.47-20.38-7.02-39.06-16.33-57.71-25.14-36.12-17.05-71.25-36.04-111.96-48.2-20.93-6.25-43.23-10.75-66.22-11.82-24.32-1.12-47.92 1.98-72.05 3.14-35.9 1.71-72.36-.54-105.81-9.73-32.97-9.06-65.62-23.27-91.61-39.44-20.08-12.48-38.61-26.09-57.85-39.12-20.5-13.87-41.08-28.69-64.94-40.11-8.76-4.19-16.05-6.58-26.89-3.87-13.75 3.46-25.46 10.16-35.91 16.81-24.18 15.38-44.52 33.06-66.08 49.99-23.82 18.69-52.7 33.98-81.62 49.11-19.21 10.04-38.61 20.06-56.07 31.44-16.38 10.67-29.65 22.51-42.52 35.05-9.27 9.02-18.45 18.24-29.75 26.23-12.14 8.58-26.22 15.45-41.72 21.17-19.04 7.02-38.63 13.63-58.04 20.18-16.25 5.48-32.79 10.73-50.05 14.67-23.04 5.27-46.75 7.98-70.76 9.28v153.24h1572.02v-141.6c-36.41-5.93-71.89-15.65-105.35-25.62z"/>
  </mask>
  <g mask="url(#b)">
    <path fill="url(#paint5_linear_0_3)" d="M1466.67 261.102c-42.37-12.62-83.82-26.83-127.24-37.85-17.83-4.51-39.11-10.36-58.61-8.1-12.5 1.45-23.71 5.57-36.42 6.76-20.25 1.88-38.68-.2-56.84-6.47-20.38-7.02-39.06-16.33-57.71-25.14-36.12-17.05-71.25-36.04-111.96-48.2-20.93-6.25-43.23-10.75-66.22-11.82-24.32-1.12-47.92 1.98-72.05 3.14-35.9 1.71-72.36-.54-105.81-9.73-32.97-9.06-65.62-23.27-91.61-39.44-20.08-12.48-38.61-26.09-57.85-39.12-20.5-13.87-41.08-28.69-64.94-40.11-8.76-4.19-16.05-6.58-26.89-3.87-13.75 3.46-25.46 10.16-35.91 16.81-24.18 15.38-44.52 33.06-66.08 49.99-23.82 18.69-52.7 33.98-81.62 49.11-19.21 10.04-38.61 20.06-56.07 31.44-16.38 10.67-29.65 22.51-42.52 35.05-9.27 9.02-18.45 18.24-29.75 26.23-12.14 8.58-26.22 15.45-41.72 21.17-19.04 7.02-38.63 13.63-58.04 20.18-16.25 5.48-32.79 10.73-50.05 14.67-23.04 5.27-46.75 7.98-70.76 9.28v153.24h1572.02v-141.6c-36.41-5.93-71.89-15.65-105.35-25.62z"/>
    <path fill="url(#paint6_linear_0_3)" d="M1466.67 261.102c-42.37-12.62-83.82-26.83-127.24-37.85-17.83-4.51-39.11-10.36-58.61-8.1-12.5 1.45-23.71 5.57-36.42 6.76-20.25 1.88-38.68-.2-56.84-6.47-20.38-7.02-39.06-16.33-57.71-25.14-19.86-9.37-39.41-19.33-59.78-28.43 3.99 2.43 7.86 4.91 11.39 7.54 6.93 5.18 14.42 11.59 16.3 18.56.85 3.15.6 6.72 2.26 9.75 2 3.64 10.48 5.11 15.5 5.99 13.38 2.36 26.12 5.11 38.8 8.84 13.41 3.94 26.64 8.35 40.64 11.34 14.92 3.2 31.07 5.16 46.7 3.31 13.95-1.64 27.91-5.08 42.2-4.98 13.08.08 22.53 3.8 31.58 9.8 5.2 3.45 10.12 7.26 16.11 10.12 6.43 3.07 14.08 4.63 21.51 6.35 7.56 1.76 15.23 3.54 22.16 6.24 6.9 2.68 13.29 5.87 20 8.74 13.94 5.99 28.6 11.71 44.97 14.26.96.15 1.01 1.45-.11 1.42-36.9-.75-73.97-3.39-110.88-1.29-8.7.49-16.87 1.15-24.96 3.42-6.16 1.73-12.21 3.83-18.69 4.98-12.95 2.29-26.99 2.25-40.22 1.23-14.34-1.1-28.54-3.28-42.18-6.44-12.5-2.9-26.02-6.3-36.79-11.51-5.73-2.76-10.66-6.04-15.6-9.38-4.96-3.35-10.47-7.41-17.19-9.28-16.15-4.48-32.24-.95-48.76.34-13.43 1.04-25.09-1.41-36.73-5.62-10.78-3.9-22.02-8.64-34.57-8.36 9.19 2.32 17.31 5.05 23.46 10.58 8.54 7.69 15.8 14.61 28.49 19.59.66.26.66.96.13 1.26-14.19 8.01-32.21 1.62-48.17.24-18.5-1.6-38.88-.94-56.12-6.14-15.85-4.78-27.11-14.62-43.39-18.76-16.89-4.29-35.13-2.58-52.82-2.1 14.49 2.53 31.18.77 44.16 5.96 13.38 5.34 21.4 14.2 32.2 21.37 13.9 9.23 33.36 13.27 50.33 19.38 16.13 5.8 29.61 14.03 43.35 21.98.11.05.24.12.3.19.26.14.52.28.76.43.86.49.27 1.85-.78 1.23-.49-.28-1-.58-1.48-.86-40.03-5.38-77.04-18.86-117.8-22.03-15.84-1.23-31-.38-46.49-3.43-13.18-2.6-25.88-6.36-37.26-11.5-11.38-5.13-21.79-11.31-30.51-18.35-9.36-7.54-16.59-16.26-27-23.21-12.27-8.18-28.1-11.96-43.95-16.2-13.93-3.75-26.51-8.15-38.11-14.54-23.07-12.72-41.23-28.58-60.76-43.54 8.34 31.81 55.95 51.39 95.52 65.86 19.26 7.03 38.58 13.77 54.26 24.18 14.57 9.68 26.54 22.54 19.67 36.54-.25.54-1.39.34-1.85.07-21.72-12.98-43.53-25.84-70.19-34.3-13.18-4.19-27.69-7.41-39.71-13.01-10.21-4.75-15.46-12.91-26.76-16.67-1.39 14.29 11.3 28.09 6.77 42.37-.15.47-1.22.36-1.65.18-6.49-2.6-14.02-2.44-20.82-4.44-8.01-2.35-15.74-5.31-22.59-8.93-14.15-7.48-25.4-16.81-37.42-25.68-1.23 6.8 1.95 13.72-1.97 20.3-.32.53-1.36.35-1.86.07-9.32-5.28-18.63-10.59-27.53-16.19-7.91-4.98-17.26-10.23-23.08-16.4-8.43-8.95-3.54-19.32-3.54-29.24-11.4 16.55-25.26 35.82-51.49 43.5-16.16 4.75-35.4 3.18-51.07 8.59-14.52 5.02-20.73 16.56-34.26 22.54-.69.31-2.23-.16-1.8-.77 8.61-12.49 17.78-24.41 32.13-34.51 8.38-5.88 16.64-11.61 23.72-18.23 6.99-6.49 13.28-13.27 19.41-20.11-29.31 6.05-52.71 20.34-77.98 31.29-.7.3-1.8-.08-1.83-.63-.55-7.82 9.64-11.3 14.77-17.36-21.61 4.21-42.67 10.22-61.27 18.65-9.24 4.18-17.53 9.14-26.51 13.55-8.97 4.4-18.2 8.56-27.57 12.58-17.76 7.6-35.59 14.41-56.91 16.35-19.61 1.78-39.27.16-58.75-1.45-.77-.05-1.31-.55-.91-1 1.92-2.1 3.14-4.23 5.17-6.12-35.66 9.57-66.37 30.48-106.14 31.72-15.2.48-30.63.09-45.76-1.06-6.3-.48-12.7-1.02-18.83-2.19-1.1-.21-2.29-.44-3.44-.72v150.2H1572v-141.6c-36.39-5.93-71.87-15.65-105.33-25.62z" opacity=".4"/>
    <path fill="#32483D" d="M431.47 392.052c3.41-11.89 7.94-23.94 9.47-36.03 1.26-9.85 4.64-19.5 8.75-29 4.55-10.46 11.04-21.22 12.89-32.09 1.76-10.42 1.41-20.94 3.26-31.35.81-4.55 1.8-9.2 4.4-13.46 2.18-3.57 5.35-6.8 7.89-10.25-30.27 18.97-44.54 45.45-69.84 67-.2.16-.49.31-.84.23-17.89-4.25-32.94-17.77-36.36-29.94-4.3-15.3 11.97-28.31 19.34-42.06-22.81 11.97-39.35 27.75-45.11 46.86-.07.28-.5.44-.92.38-6.95-.96-14.02-1.52-21.14-1.41-27.63.44-52.63 9-79.79 11.21-14.73 1.2-28.98.5-43.08-2.63-11.95-2.66-22.95-6.74-34.68-9.77-4.88-1.26-10.91-4.57-16.5-3.9-5.86.7-11.13 3.39-16.34 5.13-14.31 4.78-29.62 8.16-45.43 10.01-28.93 3.37-58.31 2.46-87.46.83v136.49h423c1.37-12.17 5.07-24.28 8.49-36.25zM1554.66 294.982c-5.95.2-11.94.53-17.83 1.2-1.32.16-7.52.18-6.44 1.97.4.67.78 1.27.96 1.99.13.47-.29 1.04-1.11 1.03-4.06-.02-8.11-.1-12.17-.33-34.43-1.98-67.05-10.43-101.33-13.01-34.8-2.62-67.61 1.59-101.06 7.56a419.11 419.11 0 01-50.53 5.89c-16.03.88-32.82 1.73-48.79.17-29.48-2.89-56.51-12.61-86.37-14.03 1.44 2.24 1.66 5.03 4.78 6.5.69.32.11 1.24-.64 1.3-32.6 2.65-63.05-7.74-95.26-8.79 36.22 16.15 79.13 25.52 109.41 47.11.62.44.1 1.33-.87 1.31-30.74-.86-61.58-.91-92.21-2.9-13.74-.89-27.15-2.16-40.26-5.14-13.15-2.99-25.73-6.89-38.46-10.58-13.26-3.85-26.74-7.49-40.91-9.64-12.52-1.9-25.28-2.89-38.04-3.77-24.19-1.69-49.34-2.88-71.94-9.29-3.49 14.6-45.88 5.2-58.1 2.79-16.7-3.28-33.06-7.28-49.38-11.33-10.46-2.6-21.14-5.82-32.12-7.44-3.3 21.59-46.38 1.77-61.17-6.22 1.86 10.95 15.66 19.51 16.82 30.64 1.19 11.39-8.14 22.11-3.14 33.4 2.57 5.8 6.13 11.36 9.6 16.93 6.31 5.38 12.54 10.78 18.57 16.27.82.75-1.26 1.03-1.92.43-4.57-4.15-9.22-8.25-13.95-12.32 2.37 3.92 4.59 7.88 6.26 11.97 4.85 11.68 5.07 23.64 5.07 35.66 0 .8-1.86 1.25-1.86.28 0-12.73-.07-25.63-6.15-37.86-2.32-4.63-4.82-9.15-7.55-13.65-33.34-28.41-69.28-55.74-93.66-88.07-8.9 6.46-8.86 16.76-9.62 24.98-.76 7.95-.99 16.67-7.25 23.74-.38.43-1.61.18-1.91-.17-4.43-5.59-3.56-11.36-5.83-17.28-2.13-5.55-5.42-10.09-9.72-15.03-3.83-4.41-5.44-8.96-4.63-14.07.84-5.3 2.65-10.41 1.39-15.63-2.38 4.25-5.15 8.39-7.84 12.56-3.53 5.47-7.15 11.15-8.38 17.08-1.01 4.87-1.44 9.74-1.46 14.66-.02 9.39 0 18.98-7.07 27.46-12.09 14.52-20.3 29.19-18.83 45.94.65 7.56 3.34 15.13 3.34 22.68 0 6.07-.99 12.13-1.73 18.18-.76 6.04-1.51 12.14-1.43 18.22H1572v-133.42c-5.77-.12-11.57-.13-17.34.07z"/>
    <path fill="#646C5B" d="M79.26 266.852c28.51-2.62 54.75-10.15 78.87-20.36 11.25-4.77 21.76-10.35 33.26-14.87 9.92-3.91 20.33-7.16 30.52-10.75 11.23-3.97 22.41-8.47 30.86-14.88 5-3.79 9.62-8.1 12.54-12.76 2.18-3.49 4.32-7.04 7.02-10.37 3.68-4.51 8.48-7.85 14.88-10.73 4.65-2.09 9.38-4.16 14.23-6.05 5.02-1.95 11.2-3.78 15.23-6.64 5.52-3.93 4.25-8.53 6.76-13.15 1.93-3.54 6.45-6.32 10.7-8.73 5.82-3.31 12.24-6.17 17.96-9.57 6.1-3.63 9.8-7.93 14.75-12.17 8.19-6.99 20.75-10.33 32.37-14.28 12.89-4.37 24.38-9.5 32.87-17.4.47-.45 1.51-.16 1.9.18 4.85 4.16 6.41 8.9 1.95 13.53-4.62 4.8-12.62 7.98-16.97 12.82-11.92 13.21-20.53 28.21-37.75 39.01-14.51 9.11-30 17.39-43.53 27.2-12.77 9.28-26.24 19.97-30.75 32.44 10.62-2.18 18.3-6.93 25.57-12.43 7.42-5.59 14.77-10.73 24.76-14.37 6.65-2.41 13.6-4.39 20.55-6.39 6.08-1.76 11.85-3.95 18.06-5.53 8.75-2.22 17.53-3.11 26.88-3.19 12.4-.12 26.22 1.03 37.97-2.07 12.51-3.31 24.02-9.36 31.38-16.86 8.34-8.53 8.33-17.06 5.17-26.78-2.22-6.9-5.76-13.74-4.14-20.89 1.04-4.67 3.59-8.9 5.84-13.35 2-3.95 3.69-7.96 5.54-11.95 3.59-7.73 7.49-16.09 16.17-22.07.44-.3 1.31-.29 1.73.05 10.99 8.79 3.02 20.68 3.77 30.84.5 6.73 5.83 11.57 9.89 17.49.94 1.35 1.88 2.73 2.42 4.18.62 1.69.69 1.92 3.36 1.07 2.82-.88 4.75-2.41 5.96-4.3 1.74-2.72 2.62-8.53 8.23-9.09 6.67-.66 12.66 2.82 15.88 6.28 10.9 11.71 13.11 31.1 36.5 35.36 4.35.79 9 1.15 13.48.55 4.45-.58 4.5-2.66 5.41-4.96.96-2.44 1.74-4.35 5.78-5.03 1.69-.28 3.22-.33 4.97-.21 3.2.22 6.28-.17 9.45-.14 6.75.05 13.48.68 20.21.88 5.43.16 9.27-1.01 14.32-1.89 3.02-.52 5.93-.64 8.96-.99 6.55-.75 13.28-.86 19.84-.1 14.44 1.64 27.82 5.91 40.09 11.06 13.13 5.51 25.05 12.09 37.92 17.84 3.88 1.73 8.26 3.96 12.98 4.48 3.84.42 7.53-.17 11.19-.9 6.39-1.29 12.83-2.61 19.14-4.08 4.37-1.01 8.92-1.85 13.62-1.51 14.07 1.03 27.49 3.2 41.87 2.57 15.67-.67 30.02-4.14 45.08-6.7 16.35-2.78 33.04-4.73 49.91-5.45 10.09-.43 20.17-.45 30.2-.13-19.44-5.48-39.99-9.39-61.14-10.37-24.32-1.12-47.92 1.98-72.05 3.14-35.9 1.71-72.36-.54-105.81-9.73-32.97-9.06-65.62-23.27-91.61-39.44-20.08-12.48-38.61-26.09-57.85-39.12-20.5-13.87-41.08-28.69-64.94-40.11-8.76-4.19-16.05-6.58-26.89-3.87-13.75 3.46-25.46 10.16-35.91 16.81-24.18 15.38-44.52 33.06-66.08 49.99-23.82 18.69-52.7 33.98-81.62 49.11-19.21 10.04-38.61 20.06-56.07 31.44-16.38 10.67-29.65 22.51-42.52 35.05-9.27 9.02-18.45 18.24-29.75 26.23-12.14 8.58-26.22 15.45-41.72 21.17-19.04 7.02-38.63 13.63-58.04 20.18-16.25 5.48-32.79 10.73-50.05 14.67-4.49 1.03-9 1.93-13.54 2.76 7.33-.43 14.69-1 22.01-1.67z"/>
    <path fill="#32483D" d="M422.34 81.112c10.71-6.22 19.41-13.82 29.18-20.65 10.29-7.18 21.27-13.47 33.19-19.43 12.17-6.09 19.99-14.83 27.35-23.49 3.22-3.78 6.16-7.84 10.04-11.35 1.11-1.02 2.13-1.93 2.99-2.8-10.59 3.7-19.99 9.12-28.49 14.54-24.18 15.38-44.52 33.06-66.08 49.99-13.09 10.27-27.73 19.5-43.04 28.25 12.4-4.22 24.33-8.94 34.86-15.06zM645.8 80.992c-14.11-6.6-21.47-17.3-34.73-24.35-12.39-6.57-27.4-10.94-38.71-18.39-5.27-3.47-8.24-7.83-12.07-11.96-2.37-2.54-5.09-5.12-8.78-6.91-5.07-2.42-3.99 3.2-3.29 4.99.17.41-.37.58-.96.55-.32 5.58-3.14 11.33-3.32 16.84-.2 5.17 1.69 10.31 3.19 15.36 1.83 6.17 3.75 12.32 5.81 18.45.74 2.19 1.46 4.37 2.33 6.54 1.34 3.31 5.34-.94 7-2.32 2.37-1.97 5.22-2.17 9.02-1.98 7.39.37 14.7 1.33 22.09 1.67 11.69.53 24.34-1.38 35.44 1.72 18.84 5.27 29.85 18.69 51.75 19.04-7.17-9.32-22.4-13.47-34.77-19.25z"/>
    <path fill="#455D4E" d="M793.18 234.982c-6.46-5.62-10.41-12.49-15.12-18.77-4.15-5.48-9.18-10.79-18.32-13.04-11.9-2.93-24.73-1.33-36.95-3.16-12.06-1.8-23.4-5.8-33.46-10.43-21.34-9.84-38.9-22.65-56.24-35.36.54.77 1.21 1.5 1.83 2.28.27.32.17.63-.07.82 10.46 13.62 22.21 27.08 38.32 38.15 8.24 5.66 17.41 10.74 27.52 14.89 9.89 4.05 20.36 6.94 30.96 10.04 19.46 5.71 38.69 12.34 55.6 20.94 14.91 7.58 29.06 16.96 34.88 29.04.42-.39.77-.81 1.01-1.28 2.91-6.33-6.53-14.28-11.75-18.99-5.77-5.19-12.3-10-18.21-15.13z"/>
    <path fill="#32483D" d="M1335.11 222.152c.15 2.96 4.32 5.8 7.97 7.77 12.66 6.85 28.14 11.5 42.87 16.04 17.66 5.46 35.41 10.56 53.55 15.29 36.19 9.45 72.67 18.48 109.52 26.75 7.64 1.71 15.29 3.4 22.98 5.02v-6.3c-36.4-5.93-71.87-15.65-105.33-25.63-42.37-12.62-83.82-26.83-127.24-37.85-1.41-.35-2.88-.72-4.32-1.09zM1254.43 246.322c-10.01 2.55-19.98 2.78-30.57 2.59-23.07-.42-49.44-1.46-70.24-8.73-11.06-3.87-20.5-9.2-29.61-14.81-9.94-6.11-19.83-12.77-32.23-16.67-16.84-5.29-35.61-5.41-53.87-7.09 7.66 1.71 15.28 3.51 22.98 5.15 9.41 2.01 18.61 4.11 27.1 7.56 9.6 3.92 18.01 8.75 25.6 14.25.62.45.49 1.56-.75 1.27-3.44-.81-7.46-.27-11.15-.03 6.11 4.72 11.96 9.64 18.42 14.16 6.18 4.31 13.03 8.96 21.47 11.29 15.93 4.39 33.54-.15 50.04-.24 19.02-.11 38.9 3.05 57.73.39 15.7-2.21 27.47-9.95 42.36-13.48-13.06-3.27-24.84 1.22-37.28 4.39z"/>
    <path fill="#DEDEDE" d="M902.25 131.942c8.98-.56 17.96-1.09 26.97-1.67-9.02.33-17.99.99-26.97 1.67z"/>
    <path fill="#32483D" d="M537.72 143.772c.27-1.5.4-3.03.2-4.64-.55-4.49-6.01-9.29-9.28-13.32-.22-.91-.66-1.77-1.33-2.5-1.06-4.91 3.54-12.98-5.84-14.9-2.55-.52-5.41 1.69-5.02 3.24.55 2.26 2.16 4.31 2.82 6.6.37 1.29-.12 2.67-.61 4.08a7.45 7.45 0 00-2.22 2.65c-1.8 3.63-2.05 8.22-1.38 12.54-3.15 4.2-6.48 6.88-4.28 12.19.84 2.04-.25 4.69-.27 6.86-.02 1.36-1.26 2.55-.67 4.1.13.31.32.57.52.8-1.09 1.07-2.25 2.11-3.41 3.14-4.1 3.67-8.53 7.45-10.48 11.54-.25.12-.47.27-.74.38-.59.27-1.16.58-1.66.92-3.53.46-8.17.15-11.38.74-4.1.75-8.64 4.1-8.7 7-.01 1.68.05 3.23.3 4.91.56 3.7-.62 6.12-3.05 8.34-1.48.8-2.85 1.64-4.3 2.63a264.647 264.647 0 01-24.7 14.84c-3.04 1.61-.17 4.54 3.24 3.1 1.59-.66 3.07-1.41 4.48-2.2 3.83-1.67 8.11-3.11 11.72-4.86 2.3-1.12 9.5-6.53 12.34-5.98 7.15 1.37 12.94-4.41 15.09-7.88 3.09-4.96 12.89-4.74 17.19-9.5 1.4-1.54 1.61-3.18 1.7-4.94.17-3.41 3.19-6.16 5.31-9.16.29-.43.35-.81.25-1.13 5.86-3.74 13.55-6.51 16.77-11.66.66-1.06.94-2.17 1.01-3.32 4.23-1.59 6.21-4.92 5.94-8.82-.15-2.33 1-3.8.44-5.79zM492.06 97.342c-.44-2.99-2.75-4.85.05-7.36 1.63-1.47 1.5-2.48.67-4.03-.69-1.31-3.49-.23-3.93.61-1.93 3.66-9.77 4.08-8.39 8.95 1.14 4.1-.6 7.68-2.79 11.5-1.81 3.2-2 6.51-3.02 9.82-.94 3.06-.84 4.78.9 7.72 1.48 2.48 3.83 2.9 2.54 5.42-.79 1.58-1.23 2.75-.59 4.4.4 1.04.18 2.18-.15 3.33-1.48 1.14-3.54 2.11-6.5 2.82-7 1.68-13.01 3.38-17.69 7.34.8-.69-5.73.43-5.66.41-4.79 1.06-9.32 2.44-13.88 3.88-7.57 2.38-15.07 5.18-21.64 8.63-1.46.77-1.19 2.95 1.19 2.64 5.66-.76 11.14-1.72 16.87-2.21 5.81-.5 11.73.14 17.44-.34 10.83-.92 17.04-3.05 22.14-9.6 2.15-2.76 6.26-5.06 9.45-7.68 1.14.24 2.42.25 3.39-.04 8.07-2.44 9.22-6.82 8.12-12.26-.25-1.23.42-.5 1.43-3.06 1.03-2.55-.66-4.22-3.39-5.96-10.51-6.78 4.56-17.03 3.44-24.93zM372.43 170.112c-10.73 1.38-22.39 6.06-29.88 11.22-1.44 1-.17 2.62 1.83 1.75 8.92-3.88 17.85-8.55 28.05-10.86 1.47-.34 2.12-2.38 0-2.11zM328.56 145.032c-4.47-4.66-12.57 7.19-13.68 8.75-1.73 2.43-1.64 3.35-5.27 4.12-2.47.53-5.34.86-7.86 1.57.22-.28.44-.57.64-.84 1.11-1.63-1.19-2.69-3.41-2.3-4.9.88-9.59 2.41-14.04 3.99-4.85 1.71-10.36 1.89-13.85 5.03-4.09 3.67-2.75 7.36-5.82 11.15-2.64 3.24-6.48 5.59-7.79 9.27-.81 2.26 3.95 1.77 5.19.55 2.77-2.7 5.57-5.29 8.61-7.86 2.8-2.35 5.31-6.05 9.45-7.68-2.2 1.32-4.15 2.77-5.74 4.51-1.18 1.28.71 2.94 2.77 1.87 6.71-3.48 14.05-6 20.87-9.26 2.79-1.32 7.76-1.01 10.96-1.33 3.56-.35 8.28-1.8 10.74-3.53 2.23-1.57 9.1-16.55 6.78-16.86.8.1 1.97-.63 1.45-1.15zM251.61 197.122c-3.06 2.39-7.55 3.16-11.74 4.39-4.71 1.38-10.24 4.79-6.43 8.3 1.73 1.59 6.03.58 7.59-.55.6-.44 1.19-.87 1.63-1.39-.02.01 1.23-.99.64-.58 1.24-.86 2.43-1.65 3.49-2.63 2.4-2.2 3.39-4.85 5.96-7.01.62-.52-.54-1.01-1.14-.53zM192.93 256.542c10.51-1.17 21.32.16 30.15-4.68 5.98-3.28 10.93-7.15 17.61-9.84 3.14-1.25 6.46-2.43 9.32-3.96 3.9-2.1 5.51-4.44 7.2-7.51 1.29-2.32 3.91-6.21 7.77-7.21 1.85-.47 3.86-.52 5.78-.78 5.07-.67 9.55-2.53 12.76-5.2 5.74-4.76 8.01-10.51 12.96-15.5 3.01-3.02 7.17-5.44 11.3-7.83-5.96 2.17-13.16 4.2-16.88 8.13-2.77 2.97-11.57 13.46-15.58 13.11-6.06-.54-13.97-.49-19.36 1.8-5.69 2.39-7.17 6-9.69 9.73-1.75.45-3.41 1.03-4.88 1.9-3.81 2.28-4.89 5.22-7.49 8.06-.87.95-1.43 2.01-1.93 3.07-.34.29-.66.58-.92.89-.84.94-1.45 2.18-1.5 3.33-2.45 3.39-6.01 5.77-12.3 7.63-5.62 1.68-13.8 1.89-19.89 2.93-3.71.63-7.12 1.63-10.19 2.95 1.8-.46 3.75-.8 5.76-1.02zM697.36 188.382c-4.05-1.47-6.48-3.55-9.95-5.49-1.95-1.09-3.74-1.92-5.36-2.88-.05-1.97.17-3.93-.08-4.92-.72-2.81-7.72-7.28-11.65-8.27-6.95-1.76-12.86-2.98-18.61-6.36-5.81-3.41-14.29-5.87-19.34-9.59-.72-.53-2.15.33-1.73.9 4.08 5.5 7.25 8.87 14.09 13.21 6.7 4.27 14.04 7.78 21.02 11.8 4.97 2.87 7.71 21 20.16 11.26 2.74 2.19 5.29 4.49 10.19 3.63 1.96-.34 3.45-2.5 1.26-3.29zM790.01 223.712c-5.22-4.94-9.21-7.94-11.12-14.08-1.54-5.01-3.51-9.33-11.28-11.31-3.24-.83-7.09-.68-10.52-.84-4.72-.22-8.62-2.2-13.22-2.84-3.24-.44-7.19.16-10.41.39-7.18.53-14.74-.95-20.42-3.75-4.92-2.43-11.97 2.9-6.7 5.36 6.82 3.18 15.33 6.57 23.77 7.04 4.47.24 7.95-.7 12.09.94 3.59 1.42 7.92 1.98 12.01 2.28 7.18.5 9 1.39 10.42 6.13.84 2.8 1.88 5.53 3.31 8.23 2.51 4.76 8.36 8.07 15.88 8.61 4.89.33 9.11-3.38 6.19-6.16zM994.09 267.652c-3.17-1.01-5.61-1.27-9.18-1.44-4.5-.21-12.49-5.35-16.85-6.98-2.8-1.03-4.82-2.64-7.58-3.72-3.59-1.41-4.45-4.12-7.73-5.59-2.84-1.27-10.11-.93-11.72-1.8-3.9-2.1-8.34-4.01-12.62-5.73-3.71-1.5-6.6-2.43-10.81-2.9-5.93-.66-11.4 1.81-17.68 1.13-.91-.1-2.11 1-1.01 1.27 3.46.86 6.15 1.21 9.89 1.32 9.25.27 12.86 3.39 18.51 7.36 2.74 1.92 5.69 4.13 9.33 5.29 4.39 1.39 7.89.38 11.78 2.88 1.93 1.23 3.38 1.59 5.86 1.98 4.7.73 7.66 1.7 11.45 3.76 7.71 4.2 17.32 4 26.57 5.48 1.7.26 3.69-1.71 1.79-2.31zM1091.13 250.762c-21.38 2.6-42.12-9.61-61.09-14.21-1.47-.36-3.7.97-2.36 1.87 3.97 2.66 8.92 4.41 12.81 7.12 4 2.8 8.34 4.24 14 5.08 5.88.87 11.57 2.2 17.43 3.13 5.62.9 13.38-.39 18.83-1.17 1.49-.21 2.31-2.06.38-1.82zM882.12 146.082c-7.17.01-14.14.3-21.32-.2-6.06-.42-13.37-2.19-19.4-1.75-5.9.43-11.12 1.33-16.68 2.68-9.5 2.3-16.73.95-22.79-4.52-1.99-1.8-5.02-2.14-6.1-4.44-.84-1.78-1.76-2.44-3.59-3.9-3.89-3.09-10.09-3.57-13.92-7.11-6.77-6.26-22.47-2.65-31.14-7.14-1.83-.95-5.52.72-4.13 2.16 2.97 3.08 6.36 4.6 11.67 5.78 2.57.57 5.19 1.01 7.76 1.59 4.38 1 4.7 3.32 7.32 5.17 5.2 3.72 12.07 4.9 15.53 9.66 2.63 3.64 10.78 3.98 15.44 5.65 13.49 4.83 22.02-.45 36.16-1.5 7.88-.58 19.51 4.11 27.45 5.4 6.66 1.07 13.06.08 18.92-1.93 4.03-1.38 3.94-5.61-1.18-5.6z"/>
    <path fill="#283B31" d="M261.13 122.412c-7.56 5.94-10.01 12.9-17.09 18.84-1.92 1.61-4.05 4.85-3.73 7.02-.17 2.26.44 4.65-2.22 5.87-.79.21-1.53.41-2.25.62-.32.05-.64.09-.97.13-2.89.26-5.27 1.58-6.34 3.34-.13.24-.29.47-.47.69-2.79 3.89 4.03 5.8 8.48 4.09 6.61-2.54 18.37-7.01 13.78-13.4-4.25-5.9.54-8.19 3.34-13.24 2.69-4.86 5.46-8.6 10.04-12.74 1.35-1.21-1.2-2.31-2.57-1.22zM155.73 157.152c-1.19 1.69-9.6 2.27-12.05 2.75-3.66.71-8.17 3.39-9.2 5.82-1.71 4.04-4.71 3.64-9.61 5.82-3.57 1.58-6.29 2.63-10.37 2.52-1.38-.04-2.93.09-4.19.52-3.25 1.12-5.28 2.72-6.79 4.95-3.29 4.79-8.8 2.7-13.62 5.95-3.96 2.66-5.14 5.59-5.95 9.23-.71 3.17-13.56 6.64-17 8-.92.36-1.19 1.69.33 1.54 4.8-.48 8.15-2.16 12.13-4.01 6.34-2.93 8.1-2.14 13-6.82 3.4-3.25 8.62-5.22 12.35-8.31 1.45-1.2 1.97-2.06 2.87-3.44 2.26-3.48 6.75-4.65 11.77-5.75 10.74-2.36 23.3 1.78 25.05-8.37.85-5.02 14.19-4.35 15.01-10.33.22-1.75-2.99-1.14-3.73-.07zM406.09 65.252c-7.91-.78-16.12-.52-24.04-.01-9.25.61-16.52 4.17-25.44 5.24-18.92 2.28-28.22 16.93-44.92 21.81-.74.21-.81 1.07.18.85 5.83-1.27 10.55-3.5 15.31-6.01 7.19-3.79 16.97-4.91 25.05-7.7 9.33-3.22 14.67-8.39 25.69-10.04 8.9-1.33 18.08-.44 27.03-1.2 1.98-.18 3.96-2.66 1.14-2.94z"/>
    <path fill="#32483D" d="M993.96 221.362c-3.09-2.74-9.58-3.14-13.83-5.04-6.3-2.83-13.38-5.21-20.2-7.45-6.08-1.99-9.35-4.13-14.36-7.13-3.17-1.9-5.63-2.55-6.24-5.53-.42-2.05-1.81-3.16-3.81-4.65-5.86-4.41-21.73-1.38-28.72-.44-1.1.16-2.2.21-3.29.18-.7-.39-1.48-.76-2.35-1.08-1.26-.45-2.81-.27-4.15.25-5.63-1.19-11.35-3.29-16.86-3.93-7.96-.91-18.68-2.47-22.48-7.79-1.17-1.66-4.95.22-4.11 1.71 4.18 7.41 17.51 11.77 27.95 14.52 5.06 1.34 10.06 1.66 15.04 1.56 1.82 1.52 3.28 3.39 5.77 4.29 4.35 1.58 8.55 1.19 13.26.52 5.67-.81 6.07 2.45 10.2 4.31 2.54 1.14 5.21 2.1 7.9 3.07 3.03 2.53 6.87 5.03 11.13 6.13 6.85 1.78 14.17 2.15 21.14 4.35 3.79 1.2 7.47 2.46 11.14 3.78 2.57.93 8.61 1.05 10.42 2.52 2.98 2.43 9.2-1.69 6.45-4.15z"/>
    <path fill="url(#paint7_radial_0_3)" d="M845.29 225.642c-.33-.59-.7-1.17-1.07-1.74-5.71-8.57-15.93-15.31-21.51-24.02-5.79-9.06-10.66-17.54-22.46-23.98-6.8-3.71-14.97-7.03-21.12-11.39-8.92-1.9-18.03-3.17-25.58-7.67 6.19 4.26 12.62 8.34 20.07 11.61 11.55 5.07 17.09 12.33 24.48 19.77.49.5-.87 1.06-1.49.89-13.34-3.48-22.08-12.51-35.96-15.06-16.89-3.1-34.23-4.85-51.07-8.16-12-2.37-20.35-6.61-27.41-13.48-5.93-5.78-11.32-12.39-18.45-17.79-.82-.4-1.61-.82-2.28-1.28-.49-.43-.94-.86-1.45-1.28 8.75 12 14.49 25.86 30.76 33.91 11.69 5.78 24.81 7.9 39.05 9.34 12.19 1.25 25.65 1.87 36.68 5.83 10.59 3.8 18.99 9.49 26.93 15.38 4.38 3.25 8.64 6.56 13.22 9.67 4.43 3 9.36 5.63 13.75 8.64 13.14 8.99 25.56 19.65 34.16 31.19.05-.36-.02-.71-.25-1.03-4.47-6.14-7.01-12.7-9-19.35z" opacity=".4"/>
    <path fill="url(#paint8_radial_0_3)" d="M624.21 211.942c-.05-3.72.07-7.98-3.11-11.23-2.05-2.1-4.77-3.88-6.67-6.05-5.72-6.51-3.2-14.64-7.67-21.56-5.04-7.83-13.43-14.21-20.38-21.27-3.63-3.69-6.01-7.59-8.25-11.73-2.83-5.29-5.44-10.63-8.26-15.92-.2-.37-.84-1.76-1.66-3.39-1.51.17-2.96 1.02-3.08 2.1-.97 8.47 3.94 16.32 4.99 24.67.74 5.95-6.39 11.84-9.77 17.19-.81 1.29-1.44 2.62-1.98 3.98.17-6.37 1.96-12.91 3.95-18.7 1.48-4.32-.24-7.32-2.08-10.76.17-7.31-4.51-15.66-5.94-22.51-.35-1.73-4.04-.45-3.89.92.02.19.05.39.07.59-.77.27-1.44.81-1.23 1.31.96 2.29 1.92 4.68 2.79 7.13 1.41 6.45 2.9 13.1 1.21 19.11-2.5 8.82-7.54 16.97-7.52 26.08 0 3.88-1.21 7.92-1.01 11.74.29 4.66 3.19 8.59 4.77 13.11 3.46 9.93 10.27 19.14 13.85 29.02.72 2 4.82.83 5.07-.78.69-4.54-.96-8.77-1.66-13.27-.86-5.35-.84-10.75-1.16-16.12-.42-6.84 2.13-10.88 8.24-16.1 3.38-2.88 6.16-6.04 9.1-9.13 3.15 4.85 5.61 10.04 7.89 15.01 1.16 2.5 4.51 4.53 6.66 6.61 3.04 2.98 5.41 6.27 8.36 9.29 2.3 2.35 4.42 4.46 5.86 7.11 2.13 3.88 1.58 8.51 4.03 12.25 2.72 4.14 5.79 8.87 9.49 13.01-1.58-7.19-.91-14.87-1.01-21.71z" opacity=".4"/>
    <path fill="#32483D" d="M489.56 54.042c1.64-2-1.34-3.06-3.76-1.79-7.76 4.09-21.17 12.45-17.51 19.54-6.95 2.3-13.31 4.62-13.85 10.87-.03.47.05.87.24 1.22l-.45.48c-1.61 1.68-2.3 3.74-3.76 5.45-2.23 2.6-7.84 3.7-11.72 4.7-1.66.43-3.21.98-4.67 1.62-1.86-1.02-5.32-.92-7.62-.17-3.95 1.31-6.08 3.18-7.49 5.91-.1.19-.17.35-.22.51-1.83.54-3.83 1-5.52 1.69-8.71 3.56-7.2 9-4.92 14.58-3.35 2.95-5.39 6.4-7.9 9.8-.91 1.22-1.34 2.37-1.49 3.48-3.64 1.15-7.62 2.05-10.56 3.67-1.66.91-3.24 1.91-4.42 3.08-9.05 2.31-16.05 9.13-10.23 14.76-1.95 1.77-4.04 3.46-7.18 4.72-4.41 1.78-8.89 3.39-13.16 5.35-5.81 2.67-11.18 6.14-13.26 10.68-.89 1.92 2.47 2 3.9.8 7.24-6.15 15.21-9.3 25-13.37 7.23-3.01 16.85-6.07 21.32-11.07 1.44-1.62 1.85-3.54 2.2-5.37.02-.09.05-.15.07-.23 3.2-.09 6.8.05 9.6-.69 9.3-2.45 7.64-7.47 10.34-12.77 1.4-2.76 4.75-7.85 8.21-9.56 4.15-2.06 9.65-3.65 12.57-6.63 2.67-2.73 2.92-7.75 5.81-9.94 3.44-2.61 8.24-3.41 12.91-4.47 1.48-.34 2.84-1.32 3.01-2.38.03-.27.07-.53.1-.8.1-.62-.39-1.16-1.13-1.42 1.24-.81 2.28-1.82 3-3.13 1.58-2.83 2.07-5.6 4.18-8.25.8-.31 1.51-.76 2-1.34 3.56-4.32 8.39-5.28 14.87-7.22 3.69-1.11 7.32-4.28 4.03-6.79-3.31-2.51-1.55-2.75-.22-5.52 1.82-3.84 4.84-6.51 7.68-10zM654.76 117.252c-5.67-1.81-13.98-1.72-20.58-1.07-2.22-.82-4.18-.64-6.58-.71-.05-.08-.08-.15-.15-.24-.39-.74-1.46-1.37-2.33-1.87-2.22-1.25-4.8-1.2-7.56-1.21-3.99-.03-7.44-2.31-10.54-3.74-2.11-.97-5.79.07-7.28 1.16-.74.54-1.36 1.03-1.93 1.54-.3-.15-.64-.29-1.01-.38-7.82-2.06-6.38-9.85-6.92-14.82-.22-1.86-4.21-.62-4.48.69-1.08 5.45-4.8 11.39-2.24 16.9 1.29 2.81 5.27 3.31 6.73 6.16 1.87 3.7 4.67 5.74 8.78 8.51 6.13 4.11 14.56 6.2 21.95 2.22 6.6-3.55 10.44-6.31 19.74-6.06 5.26.13 8.6.07 13.31-1.53 2.79-.96 4.62-4.42 1.09-5.55zm-42.37 6.37c-.65-.21-1.36-.51-2.05-.86.22-.01.44-.04.66-.06 2.08-.18 4.1 0 6.08.01-1.51.9-3.07 1.45-4.69.91zM726.45 121.532c-2.22-1.21-3.88-1.99-6.78-2.24-3.91-.32-6.85-.49-10.62-1.44-5.39-1.36-9.24.34-14.14 1.92-2.22.72-1.53 2.97 1.11 2.51 2.2-.39 6.33-1.83 8.04-.44 1.06.87 2.22 1.93 3.59 2.56 4.89 2.25 8.6 3.24 14.51 2.55 2.9-.34 7.78-3.53 4.29-5.42zM998.18 138.542c-2.91-7.51-21.99-9.28-32.13-10.11-4.26-.35-8.06.13-11.35 2.14-3.48 2.14-8.51 8.67-13.95 8.5-1.87-.06-3.8 1.98-1.36 2.34 7.72 1.17 12.74-3.41 19.3-5.32 2.02-.58 10.84 2.71 13.76 2.92 7.47.54 13.49 3.36 21.15 3.16 2.34-.05 5.2-2 4.58-3.63z"/>
    <path fill="#283B31" d="M970.93 83.012c-6.15.92-12.16 1.72-18.1 3.1-6.68 1.54-10.39 5.86-16.94 7.63-7.05 1.89-13.08 4.48-17.57 8.56-3.51 3.18-9.23 5-12.94 8.33-1.38 1.23.18 2.67 2.35 2.21 2.86-.59 3.65-.88 6.25-1.94 6.12-2.49 2.87-.99 8.09-.53 6.9.6 13.93-1 19.09-4.13 6.39-3.89 7.86-11.54 16.07-13.57 5.93-1.47 11.17-2.66 15.36-5.95 1.47-1.13 2.08-4.27-1.66-3.71zM1020.9 77.472c-6.15 1.6-10.89.32-16.35 3.57-4.57 2.72-9.1 4.6-14.94 6.08-1.98.49-4.3 2.32-6.21 2.6-6.72 1-11.93 5.38-15.09 9.14-1.9 2.28-2.09 5.47-4.18 7.58-3.08 3.08-8.28 5.71-12.66 7.91-1.6.8-2.59 3.37.65 3.08 7.59-.68 11.99-5.1 18.76-7.2 6.91-2.17 11.67-6.62 15.26-10.91 1.54-1.85 2.89-3.93 2.78-6.08-.13-2.09 6.31-2.45 8.9-3.33 3.68-1.24 6-2.51 8.8-4.56 4.06-2.97 10.23-3.64 15.23-5.76 1.56-.69 1.34-2.71-.95-2.12zM1231.54 144.832c-17.88-7.03-35.1-14.79-52.28-22.52-17.01-7.66-37.08-11.65-56.14-16.5-10.83-2.76-18.89-6.47-27.93-11.22-7.68-4.03-12.54-6.65-22.49-7.7-2.92-.32-18.95-.03-19.93-1.83-2.43-4.56-11.13-5.86-14.77-9.9-.69-.78-2.48-.02-2.3.75.98 4.09 4.95 6.38 8.76 9.54 2.14 1.78.79 3.9 1.43 5.85.57 1.76 2.53 2.36 4.62 3.36 6.9 3.28 15.01 4.85 23.31 5.73 12.06 1.28 23.57 2.31 34.86 5.79 19.84 6.13 41.66 9.8 59.9 17.96 19.49 8.73 37.45 17.97 58.74 24.89 3.5 1.14 7.94-2.74 4.22-4.2zM1302.54 189.722c-4.31-1.93-8.63-3.56-13.65-4.57-2.44-.49-16.06-1.46-17.06-2.52-3.53-3.75-9.43-3.83-14.96-4.54-.39-1-1.51-1.74-3.68-1.82-9.34-.33-19.27-3.99-27.12.11-1.11-.24-2.21-.54-3.34-.95-6.78-2.47-9.64-8.04-16.77-10.11-.29-.08-.55-.13-.84-.16-1.8-3.37-3.83-6.71-5.62-9.97-.67-1.23-3.54.04-3.28 1.06.88 3.38 5.48 12.87 1.45 15.72-2.68 1.9-3.96 3.51-4.77 6.03-1.99 6.18 9.43 5.83 13.16 8.63 2.54 1.91 6.3 2.77 9.89 3.3 5.82.88 8.68 3.33 13.38 5.3 9.25 3.9 19.99 7.73 31.17 7.55 3.36-.05 5.52-3.19 2.65-4.54-8.71-4.12-20.4-5.54-28.33-10.37-3.11-1.9-7.74-3.75-11.15-5.88 3.31.35 6.78.24 10.2.22 4.18.77 8.32 1.6 12.65 2.03 2.76 1.27 6.43 1.2 9.72 1.6 2.16.27 4.3.5 6.45.64 1.07.71 2.2 1.35 3.48 1.76 4.1 1.34 11.3.64 16.1 1.32 6.28.9 12.14 1.98 18.59 2.31 1.63.09 3.34-1.39 1.68-2.15z"/>
    <path fill="#fff" d="M1309.4 191.422c-.15 0-.21.17-.03.17.16 0 .2-.17.03-.17z"/>
    <path fill="#283B31" d="M1556.68 394.482c-10.01-.24-20.15-.23-30.21-.11 2.06-1.34 2.49-4.65-1.54-4.1-1.64.22-4.17-.29-6.31-.69-1.24-.44-2.6-.7-3.99-.93 1.65-2.73-1.69-5.54-6.11-5.23-4.72.33-8.24 1.89-11.09 4.36-.23.2-.43.44-.64.68-2.95-.39-5.99-.6-8.99-1.01-11.61-1.61-17.28-5.77-27.08-9.31-6.99-2.52-13.58-2.38-21.32-1.79-9.64.74-19.88.88-29.58 1.18-1.55.04-2.83 2.07-.84 2.14 7.59.25 15.13 2.16 22.65 2.23 5.18.04 10.3-.49 15.49-.37 4.54.1 8.1 1.94 11.68 3.6-.1-.01-.24-.03-.35-.03-7.57-1.46-14.34 7.45-5.37 9.29 3.7.76 7.23 3.22 10.72 4.41 4.86 1.67 10.73 1.72 16.04 1.96 6.7.33 12.04-1.31 18.61.8 2.92.94 5.73.32 8.18-.85.32-.15.64-.35.92-.57 2.64.27 5.32.18 7.71-.33 2.6-.55 5.12-2.15 6.37-3.98.49-.09.97-.18 1.45-.29 10.87.47 21.79 1.5 32.65 1.33 1.75-.02 3.14-2.34.95-2.39z"/>
  </g>
  <defs>
    <linearGradient id="paint0_linear_0_3" x1="786.174" x2="784.68" y1="349.686" y2="77.716" gradientUnits="userSpaceOnUse">
      <stop offset=".022" stop-color="#5F7261"/>
      <stop offset=".472" stop-color="#647266"/>
      <stop offset=".807" stop-color="#91987F"/>
    </linearGradient>
    <linearGradient id="paint1_linear_0_3" x1="786.116" x2="784.622" y1="339.129" y2="67.159" gradientUnits="userSpaceOnUse">
      <stop offset=".03"/>
      <stop offset=".137" stop-color="#181818"/>
      <stop offset=".365" stop-color="#575757"/>
      <stop offset=".691" stop-color="#B9B9B9"/>
      <stop offset=".909" stop-color="#fff"/>
    </linearGradient>
    <linearGradient id="paint2_linear_0_3" x1="786.116" x2="784.622" y1="339.129" y2="67.159" gradientUnits="userSpaceOnUse">
      <stop offset=".03" stop-color="#9F8676"/>
      <stop offset=".909" stop-color="#AB9984"/>
    </linearGradient>
    <linearGradient id="paint3_linear_0_3" x1="791.153" x2="749.993" y1="413.9" y2="-35.688" gradientUnits="userSpaceOnUse">
      <stop offset=".022" stop-color="#5F7261"/>
      <stop offset=".472" stop-color="#647266"/>
      <stop offset=".807" stop-color="#91987F"/>
    </linearGradient>
    <linearGradient id="paint4_linear_0_3" x1="778.911" x2="737.752" y1="280.184" y2="-169.404" gradientUnits="userSpaceOnUse">
      <stop offset=".03"/>
      <stop offset=".137" stop-color="#181818"/>
      <stop offset=".365" stop-color="#575757"/>
      <stop offset=".691" stop-color="#B9B9B9"/>
      <stop offset=".909" stop-color="#fff"/>
    </linearGradient>
    <linearGradient id="paint5_linear_0_3" x1="778.911" x2="737.752" y1="280.184" y2="-169.404" gradientUnits="userSpaceOnUse">
      <stop offset=".03" stop-color="#9F8676"/>
      <stop offset=".909" stop-color="#AB9984"/>
    </linearGradient>
    <linearGradient id="paint6_linear_0_3" x1="-.021" x2="1572" y1="293.55" y2="293.55" gradientUnits="userSpaceOnUse">
      <stop offset=".022" stop-color="#5F7261"/>
      <stop offset=".218" stop-color="#7A846E"/>
      <stop offset=".482" stop-color="#A4A486"/>
      <stop offset=".733" stop-color="#888E78"/>
      <stop offset=".973" stop-color="#6B776B"/>
    </linearGradient>
    <radialGradient id="paint7_radial_0_3" cx="0" cy="0" r="1" gradientTransform="matrix(335.241 0 0 221.15 761.791 161.794)" gradientUnits="userSpaceOnUse">
      <stop stop-color="#8E8780"/>
      <stop offset=".054" stop-color="#857D76"/>
      <stop offset=".416" stop-color="#52433E"/>
      <stop offset=".63" stop-color="#433A35"/>
      <stop offset=".984" stop-color="#302C27"/>
    </radialGradient>
    <radialGradient id="paint8_radial_0_3" cx="0" cy="0" r="1" gradientTransform="matrix(354.204 0 0 233.659 479.546 26.598)" gradientUnits="userSpaceOnUse">
      <stop stop-color="#8E8780"/>
      <stop offset=".054" stop-color="#857D76"/>
      <stop offset=".416" stop-color="#52433E"/>
      <stop offset=".63" stop-color="#433A35"/>
      <stop offset=".984" stop-color="#302C27"/>
    </radialGradient>
  </defs>
</svg>
