<svg xmlns="http://www.w3.org/2000/svg" width="200" height="370" fill="none" viewBox="0 0 77 156">
  <path fill="#927415" d="M44.337 134.579l-1.342 7.716 1.84.072.61-1.114-.077 1.175.532.067.46-.638.189.793 1.785.111s.304-1.037.354-.904c.05.133.128.793.128.793l1.696-.416s.011-5.632-.416-7.306c-.426-1.668-4.296-4.484-5.76-.349z"/>
  <path fill="#B4910E" d="M46.436 137.955c-.028.421-.25.754-.494.748-.244-.011-.426-.354-.393-.781.028-.422.25-.754.493-.743.244.011.421.355.394.776zM46.552 139.862c-.011.194-.133.344-.266.344-.133-.006-.227-.167-.216-.361.01-.194.133-.343.26-.338.139 0 .233.161.222.355z"/>
  <path fill="#6B5314" d="M49.896 134.452c-.405-.732-1.286-1.53-2.256-1.863.182.998 1.036 6.292-.92 10.078l1.613.1s.304-1.037.354-.904c.05.133.128.793.128.793l.848-.211c.427-3.076.333-6.264.233-7.993z"/>
  <path fill="#927415" d="M50.307 136.353c-.056-.582-.122-1.081-.211-1.419-.427-1.674-4.302-4.49-5.765-.355l-.333 1.924c1.06.576 3.326 1.369 6.309-.15z" opacity=".6"/>
  <path fill="#B4910E" d="M46.576 132.439c-.881.061-1.718.649-2.245 2.14l-1.341 7.716 1.84.072.61-1.114-.078 1.175.155.017c1.94-4.058 1.231-8.997 1.06-10.006z" opacity=".5"/>
  <path fill="#B4910E" d="M44.43 137.068s-.605 3.875-1.054 4.85l1.037.211s.687-2.788.016-5.061z" opacity=".5"/>
  <g>
    <path fill="#927415" d="M45.228 128.326l-1.23 7.799 1.513.073.52-1.126-.082 1.187.437.066.389-.649.138.804 1.458.117s.271-1.048.305-.915c.044.133.088.798.088.798l1.403-.421s.105-5.687-.216-7.378c-.322-1.691-3.448-4.535-4.723-.355z"/>
    <path fill="#B4910E" d="M46.898 131.735c-.027.427-.216.765-.42.754-.2-.011-.345-.366-.311-.787.027-.427.216-.759.421-.754.205.011.344.36.31.787zM46.966 133.659c-.017.194-.111.349-.222.343-.105-.005-.183-.166-.172-.36.011-.194.111-.349.216-.344.111.006.189.167.178.361z"/>
    <path fill="#6B5314" d="M49.797 128.193c-.322-.737-1.032-1.547-1.819-1.879.133 1.003.743 6.352-.925 10.183l1.319.105s.272-1.048.305-.915c.044.134.088.799.088.799l.704-.211c.4-3.115.377-6.336.328-8.082z"/>
    <path fill="#927415" d="M50.1 130.117a13.148 13.148 0 00-.144-1.436c-.321-1.691-3.448-4.535-4.723-.355l-.305 1.94c.854.588 2.7 1.381 5.172-.149z" opacity=".6"/>
    <path fill="#B4910E" d="M47.108 126.159c-.72.067-1.419.66-1.88 2.168l-1.23 7.799 1.514.072.52-1.125-.082 1.186.127.023c1.652-4.114 1.159-9.103 1.031-10.123z" opacity=".5"/>
    <path fill="#B4910E" d="M45.267 130.837s-.566 3.919-.954 4.9l.848.217s.616-2.816.106-5.117z" opacity=".5"/>
  </g>
  <g>
    <path fill="#927415" d="M45.68 123.132s-.382 4.74-1.147 6.514l1.414.271.444-.682.05.704.737.034.393-.682.133.942 1.081.089.266-.959.239.848.903-.155s.239-4.075-1.125-6.519c-1.358-2.45-3.248-1.635-3.387-.405z"/>
    <path fill="#B4910E" d="M46.799 126.186c-.017.272-.183.483-.366.477-.183-.011-.316-.238-.294-.51.017-.272.183-.482.366-.477.183.017.31.239.294.51zM47.525 125.288c-.01.194-.133.35-.266.344-.133-.006-.227-.166-.216-.366.011-.199.133-.349.266-.343.133.005.233.171.216.365zM47.658 127.816c-.01.161-.127.288-.266.283-.127-.006-.233-.144-.222-.305.012-.161.128-.288.261-.283.139 0 .238.139.227.305z"/>
    <path fill="#6B5314" d="M49.067 123.531c-.41-.737-.87-1.175-1.308-1.397.177 1.735.493 5.427.305 8.127l.72.055.266-.959.239.848.443-.078c.083-2.117-.321-4.861-.61-6.491-.016-.033-.033-.072-.055-.105z"/>
    <path fill="#B4910E" d="M46.824 121.968a1.34 1.34 0 00-1.136 1.169s-.383 4.74-1.148 6.514l1.414.271.443-.681.05.704.216.011c.627-3.027.416-6.092.161-7.988z" opacity=".5"/>
    <g opacity=".6">
      <path fill="#927415" d="M49.506 124.512a6.826 6.826 0 00-.438-.981c-1.364-2.445-3.249-1.63-3.387-.394 0 0-.045.505-.122 1.242.654.227 1.934.499 3.947.133z" opacity=".6"/>
    </g>
    <path fill="#B4910E" d="M45.82 124.717s-.254 2.866-.764 4.585l.687.066s.72-2.544.078-4.651z" opacity=".5"/>
  </g>
  <g>
    <path fill="#927415" d="M45.647 119.124s.167 2.788-.548 4.468l1.507.194.372-.615.01.648.86.117.1-.316.172.332 1.901.2s-.022-2.877-.876-5.1c.011 0-2.977-1.181-3.498.072z"/>
    <path fill="#B4910E" d="M45.647 119.124s.166 2.788-.549 4.468l1.508.194.372-.615.01.648.24.034c.442-2.29-.045-4.274-.4-5.3-.538 0-1.003.144-1.18.571z" opacity=".5"/>
    <g opacity=".5">
      <path fill="#B4910E" d="M47.17 120.92c-.005.216-.155.394-.332.388-.183 0-.327-.183-.322-.399 0-.216.15-.388.333-.388.177.006.321.183.321.399zM47.227 122.19c-.028.083-.133.138-.227.127-.106-.005-.161-.077-.139-.155.022-.078.128-.139.233-.133.094.011.155.083.133.161zM47.713 120.604c-.027.078-.127.128-.227.122-.1-.011-.166-.077-.139-.15.028-.077.128-.133.228-.121.1.005.16.072.138.149z" opacity=".5"/>
    </g>
    <path fill="#6B5314" d="M49.155 119.052s-.62-.244-1.341-.394c.438 1.292 1.114 3.626.903 5.355l.444.05c.371-1.341.355-3.154.316-4.019-.094-.338-.2-.676-.322-.992z"/>
    <path fill="#927415" d="M49.378 119.701a8.887 8.887 0 00-.222-.649s-2.988-1.175-3.509.072c0 0 .022.288.017.732a9.313 9.313 0 003.714-.155z" opacity=".6"/>
    <path fill="#B4910E" d="M45.837 120.122s.172 2.168-.505 3.298l.937.122s.699-2.151-.432-3.42z" opacity=".5"/>
  </g>
  <g>
    <path fill="#927415" d="M45.46 113.753s.476 3.731-.461 5.615l1.596.006.278-.682.033.665 1.652.272.066-.76.51.832 1.031-.211s-.576-4.523-1.13-5.765c-.544-1.247-3.271-1.458-3.576.028z"/>
    <g opacity=".5">
      <path fill="#B4910E" d="M46.83 115.804c-.023.261-.184.471-.361.46-.178-.005-.305-.227-.283-.488.022-.26.183-.471.366-.465.172.011.294.227.277.493zM46.902 117.09c-.011.133-.094.233-.183.233-.094 0-.155-.111-.144-.244.011-.133.094-.238.183-.233.089 0 .155.111.144.244z" opacity=".5"/>
    </g>
    <path fill="#B4910E" d="M45.46 113.753s.476 3.731-.46 5.615l1.596.006.277-.682.033.665.166.028c.582-2.24-.155-5.117-.626-6.591-.488.139-.881.449-.987.959z" opacity=".5"/>
    <path fill="#927415" d="M49.283 114.457a4.682 4.682 0 00-.244-.732c-.549-1.241-3.276-1.457-3.58.028 0 0 .05.399.088 1.003a6.051 6.051 0 003.736-.299z" opacity=".6"/>
    <path fill="#B4910E" d="M45.78 115.582s.083 2.24-.382 3.603c.504-.016.62-.011.62-.011s.61-2.278-.238-3.592z" opacity=".5"/>
    <path fill="#6B5314" d="M49.04 113.725c-.205-.465-.72-.787-1.297-.931.51 1.225 1.286 3.62.992 6.242l.405.659.51-.105c.155-.637.221-1.364.244-2.04-.222-1.38-.544-3.126-.854-3.825z"/>
  </g>
  <g>
    <path fill="#927415" d="M45.188 107.456l.012 6.829 1.108-.083.25-1.015.077 1.032.327.011.205-.594.194.677 1.07-.045s.072-.925.117-.814c.044.11.16.681.16.681l.97-.493s-.587-4.906-1.02-6.33c-.426-1.436-3.032-3.576-3.47.144z"/>
    <path fill="#B4910E" d="M46.8 110.228c.023.371-.071.676-.215.687-.15.011-.289-.277-.316-.649-.028-.371.072-.676.216-.687.144-.011.288.283.316.649zM47.067 111.879c.011.167-.039.311-.122.316-.078.006-.155-.127-.166-.293-.012-.167.038-.311.122-.316.077-.006.155.122.166.293z"/>
    <path fill="#6B5314" d="M48.493 106.901c-.321-.604-.93-1.23-1.54-1.441.215.848 1.28 5.394.51 8.847l.975-.038s.072-.926.116-.815c.045.111.161.681.161.681l.488-.249c-.078-2.716-.471-5.488-.71-6.985z"/>
    <path fill="#927415" d="M48.937 108.526a12.153 12.153 0 00-.277-1.22c-.427-1.424-3.032-3.569-3.47.15l.006 1.702c.687.421 2.123.926 3.741-.632z" opacity=".6"/>
    <path fill="#B4910E" d="M46.304 105.41c-.521.122-.96.704-1.114 2.046l.01 6.829 1.11-.083.249-1.014.078 1.031.094.005c.72-3.703-.222-7.949-.427-8.814z" opacity=".5"/>
    <path fill="#B4910E" d="M45.51 109.612s.044 3.42-.122 4.313l.637.1s.122-2.484-.515-4.413z" opacity=".5"/>
    <g>
      <path fill="#927415" d="M44.798 100.382s.372 5.422.067 7.517l1.053.15.222-.821.133.799.537-.039.189-.821.222 1.059.787-.022.06-1.12.29.937.626-.277s-.389-4.651-1.697-7.278c-1.32-2.628-2.56-1.497-2.489-.084z"/>
      <path fill="#B4910E" d="M46.014 103.731c.028.31-.066.571-.194.582-.133.011-.26-.233-.282-.544-.022-.31.066-.571.2-.582.132-.011.26.233.276.544zM46.419 102.628c.017.221-.044.41-.144.415-.1.006-.189-.166-.205-.393-.017-.222.05-.41.144-.421.094.005.188.177.205.399zM46.856 105.482c.017.183-.055.344-.15.35-.1.005-.188-.139-.2-.327-.016-.183.056-.339.15-.35.095 0 .19.139.2.327z"/>
      <path fill="#6B5314" d="M47.28 100.46c-.393-.787-.78-1.236-1.13-1.441.366 1.957 1.092 6.109 1.33 9.191l.527-.017.06-1.12.29.937.31-.139c-.233-2.411-.898-5.482-1.325-7.3a.427.427 0 01-.061-.111z"/>
      <path fill="#B4910E" d="M45.453 98.936c-.427.171-.693.781-.654 1.452 0 0 .371 5.421.067 7.517l1.053.149.222-.82.133.798.16-.011c.034-3.509-.537-6.962-.98-9.085z" opacity=".5"/>
      <g opacity=".6">
        <path fill="#927415" d="M47.73 101.53a8.875 8.875 0 00-.448-1.064c-1.314-2.622-2.556-1.491-2.484-.078 0 0 .04.577.083 1.425.5.188 1.458.354 2.85-.283z" opacity=".6"/>
      </g>
      <path fill="#B4910E" d="M45.11 102.162s.215 3.287.077 5.294h.504s.172-2.966-.582-5.294z" opacity=".5"/>
    </g>
    <g>
      <path fill="#927415" d="M43.462 94.08s.998 4.224 1.092 6.901l1.009.039.033-.998.216.981.577.033-.04-.498.217.482 1.253-.022s-.943-4.38-2.19-7.622c0 0-2.25-1.287-2.167.704z"/>
      <path fill="#B4910E" d="M43.463 94.08s.998 4.224 1.092 6.901l1.009.039.033-.998.216.981.155.011a38.235 38.235 0 00-1.956-8.004c-.333.094-.577.388-.549 1.07z" opacity=".5"/>
      <g opacity=".5">
        <path fill="#B4910E" d="M44.991 96.563c.072.327.028.615-.083.643-.116.028-.26-.216-.332-.549-.067-.332-.028-.62.083-.643.122-.028.266.216.332.549zM45.435 98.486c.01.128-.039.233-.105.239-.067.005-.122-.089-.133-.216-.012-.128.033-.228.1-.233.071-.011.132.088.138.21zM45.23 95.986c.005.117-.04.222-.106.228-.067.005-.128-.09-.139-.206-.005-.121.039-.221.105-.221.067-.011.128.077.14.2z" opacity=".5"/>
      </g>
      <path fill="#6B5314" d="M45.63 93.376s-.466-.267-.97-.372c.687 1.89 1.863 5.333 2.29 8.005h.293c-.2-2.112-.793-4.873-1.097-6.176-.161-.498-.333-.992-.516-1.457z"/>
      <path fill="#927415" d="M45.98 94.323c-.112-.321-.228-.643-.35-.953 0 0-2.25-1.286-2.173.704 0 0 .1.438.244 1.12.521.066 1.413.005 2.278-.87z" opacity=".6"/>
      <path fill="#B4910E" d="M43.901 95.57s.81 3.277.749 5.106l.626.022s-.255-3.387-1.375-5.127z" opacity=".5"/>
    </g>
    <g>
      <path fill="#927415" d="M41.422 89.014s1.641 3.675 1.802 5.81l.903-.378-.094-.76.266.671 1.031-.116-.238-.787.593.72.505-.46s-1.99-4.45-2.756-5.582c-.759-1.13-2.378-.698-2.012.882z"/>
      <g opacity=".5">
        <path fill="#B4910E" d="M42.954 90.77c.083.272.066.521-.034.555-.105.038-.255-.156-.338-.433-.083-.271-.066-.521.034-.554.105-.033.255.155.338.432zM43.469 92.056c.044.139.033.26-.017.278-.05.016-.128-.078-.172-.217-.044-.138-.033-.26.017-.282.05-.011.127.088.172.221z" opacity=".5"/>
      </g>
      <path fill="#B4910E" d="M41.424 89.013s1.641 3.675 1.802 5.81l.903-.377-.094-.76.266.67.105-.01c-.493-2.417-1.967-5.156-2.777-6.541-.221.26-.327.665-.205 1.208z" opacity=".5"/>
      <path fill="#927415" d="M43.85 88.82a7.234 7.234 0 00-.41-.688c-.765-1.13-2.384-.698-2.018.882 0 0 .178.393.416.998.565.005 1.375-.195 2.012-1.192z" opacity=".6"/>
      <path fill="#B4910E" d="M42.28 90.793s.871 2.256 1.11 3.752a3.72 3.72 0 01.343-.16s-.488-2.456-1.452-3.593z" opacity=".5"/>
      <path fill="#6B5314" d="M43.44 88.132c-.29-.427-.7-.632-1.076-.638.742 1.125 2.062 3.37 2.86 6.109l.471.576.25-.227c-.145-.682-.377-1.436-.616-2.129-.632-1.358-1.452-3.054-1.89-3.691z"/>
    </g>
    <g>
      <path fill="#927415" d="M39.906 85.948s1.164 2.6 1.58 3.791l.959-.57-.322-.938.46.887.41-.26-.11-.532.282.399.793-.444-3.237-4.895c-.006.006-1.031 1.12-.815 2.562z"/>
      <path fill="#B4910E" d="M39.905 85.948s1.164 2.6 1.58 3.791l.959-.57-.283-.832c-.676-1.07-1.519-2.112-2.278-2.983-.017.195-.011.389.022.594z" opacity=".5"/>
      <path fill="#B4910E" d="M41.85 87.25c.116.26.11.521-.017.582-.122.061-.316-.094-.438-.354-.116-.261-.105-.521.017-.582.127-.061.327.1.438.354zM40.32 86.535s.754 1.713 1.153 2.85l.316-.15s-.693-1.913-1.47-2.7z" opacity=".5"/>
      <path fill="#6B5314" d="M43.956 88.287l-3.237-4.895s-.377.41-.627 1.053a15.356 15.356 0 012.877 4.435l.028-.017-.11-.532.282.4.787-.444z"/>
    </g>
  </g>
  <g>
    <path fill="#71B62C" d="M42.703 79.994l.366-2.223h-.632l.604-.288.676-3.237-.66-.228.915.034s.765-1.98 1.785-3.177l-.46-.377.577.255s1.18-2.034 1.845-2.5l-.343-.582.499.372s.959-2.683 2.112-3.044c0 0-1.697.045-5.034 1.053l.072.455-.304-.172s-2.301 1.364-2.972 2.39c-.205.676-.25 1.025-.25 1.025l-.32-.582s-1.054 1.059-1.68 2.965c.288.588.266.782.266.782l-.51-.488s-1.996 2.844 1.646 11.259c1.513-3.11 1.802-3.692 1.802-3.692z"/>
    <path fill="#305D28" d="M48.88 65.282s-.306.061-.793.283a7.754 7.754 0 00-.86.449c-.316.194-.66.432-1.014.72-.183.145-.355.305-.538.472-.177.171-.36.349-.537.548-.183.189-.35.4-.527.61-.083.105-.166.222-.255.333-.083.11-.172.221-.25.343-.083.117-.16.239-.243.36-.084.123-.156.25-.233.372-.155.25-.294.516-.438.782-.144.26-.266.543-.4.814-.116.278-.238.56-.349.849-.105.288-.221.57-.315.859-.09.294-.194.576-.272.87-.078.294-.16.577-.233.865-.066.288-.133.57-.194.848-.06.283-.105.56-.16.832-.056.271-.095.537-.134.798-.038.26-.077.51-.11.76-.028.243-.056.481-.078.709-.061.454-.083.876-.117 1.247-.016.189-.033.36-.038.521-.006.16-.011.31-.023.444-.027.537-.044.842-.044.842s.006-.305.022-.843c.006-.132.006-.282.011-.443.006-.16.017-.332.028-.526.028-.372.039-.799.094-1.253.023-.228.05-.466.072-.715.028-.25.067-.505.1-.765s.072-.533.122-.804c.05-.272.094-.549.155-.832.061-.282.128-.565.194-.859.072-.283.155-.57.233-.87.078-.294.183-.577.272-.87.044-.15.1-.294.155-.438l.155-.433c.117-.288.244-.565.36-.848.14-.277.261-.554.405-.82.144-.266.283-.532.444-.787.077-.128.155-.25.233-.377.083-.122.166-.239.249-.36.077-.117.166-.233.25-.344.088-.111.171-.228.26-.333.183-.21.35-.427.538-.615.177-.194.371-.372.548-.544.183-.16.366-.327.55-.465.177-.15.36-.272.526-.394.177-.11.343-.227.504-.316.327-.188.621-.332.87-.432.5-.189.804-.244.804-.244z"/>
    <path fill="#8EBF22" d="M40.93 73.436c.027.305-.106.566-.295.588-.188.016-.366-.216-.393-.521-.028-.305.1-.566.288-.582.194-.028.371.21.4.515zM42.713 75.382c-.06.3-.26.515-.449.477-.183-.04-.288-.31-.222-.61.061-.3.261-.51.45-.477.182.039.282.31.221.61z"/>
    <path fill="#509333" d="M42.913 72.477c.172-1.801 1.514-4.118 1.514-4.118-1.081.737-2.561 3.353-2.816 1.94-.061-.338-.04-.76.033-1.203-.116.432-.144.66-.144.66l-.322-.582s-1.053 1.058-1.68 2.965c.289.588.267.782.267.782l-.51-.488s-1.996 2.844 1.646 11.258a403.865 403.865 0 011.802-3.686l.366-2.223h-.632l.604-.288.676-3.237-.66-.228.915.034s.05-.128.139-.338c-.682.177-1.325.066-1.198-1.248z" opacity=".3"/>
    <path fill="#416D2B" d="M42.016 78.004c-1.047-.094-.266-4.013-.266-4.013s-1.014 2.284-1.834 1.751c-.455-.293-.799-1.435-1.015-2.394-.344 1.408-.499 4.556 2.001 10.332 1.508-3.104 1.802-3.686 1.802-3.686l.355-2.15c-.2.105-.521.204-1.043.16z" opacity=".5"/>
    <path fill="#8EBF22" d="M42.921 69.478s2.123-2.566 4.49-3.714l-1.868.41-.333.726-.643-.11c0-.006-3.237 1.746-1.646 2.688z"/>
    <g>
      <path fill="#71B62C" d="M40.647 83.791s-2.046-2.927-3.171-3.431l.233-.41-.604.133s-1.342-1.99-2.229-2.445l.555-.626-.699.338s-.227-.366-.959-.41c.693-.754.637-.982.637-.982l-1.385.788s-1.874-1.514-2.4-1.769c.448-.504.587-.71.587-.71l-1.242.66-2.25-1.053.3-.488-.882.433s-2.068-.688-3.814-.1c.848-1.619 3.342-3.664 7.66-3.531a8.966 8.966 0 00-.155.781l.588-.67s1.275.072 3.193 1.236l-.321.648.554-.21s.57.332 1.103 1.086l-.233.372.943-.167s1.385 1.636 2.289 3.05l-.272.37.422-.044c-.011-.016 1.796 2.872 1.552 7.151z"/>
      <path fill="#509333" d="M39.478 77.394c-.932-.133-3.37-2-4.197-2.716-1.718-1.491-3.231-1.863-3.231-1.863s3.775 2.733 3.087 3.57a2.626 2.626 0 01-1.153.577c.566.094.743.388.743.388l.699-.338-.555.626c.887.455 2.229 2.445 2.229 2.445l.604-.133-.233.41c1.125.504 3.17 3.431 3.17 3.431.178-2.971-.642-5.272-1.163-6.397z" opacity=".3"/>
      <path fill="#8EBF22" d="M34.189 72.6c.116.188.11.404-.006.47-.116.073-.304-.022-.42-.21-.117-.189-.112-.405.005-.477.122-.072.31.022.42.216zM35.039 73.94c.072.117.066.245-.006.294-.072.045-.188-.016-.26-.132-.073-.117-.067-.25.005-.294.072-.04.189.016.26.133zM32.36 74.667c.139.227.133.488-.01.576-.145.084-.372-.033-.517-.26-.138-.233-.132-.493.012-.577.144-.088.371.028.515.261z"/>
      <path fill="#305D28" d="M40.907 83.68s-.133-.332-.405-.892a30.967 30.967 0 00-1.214-2.29 28.005 28.005 0 00-2.04-3.032c-.82-1.059-1.79-2.117-2.899-3.015a12.155 12.155 0 00-1.752-1.209 9.717 9.717 0 00-1.879-.831 8.326 8.326 0 00-1.879-.383 8.828 8.828 0 00-1.718.017c-.532.06-1.015.166-1.43.271-.422.117-.782.239-1.07.35-.144.06-.278.11-.388.155-.111.05-.206.094-.283.127-.155.072-.238.106-.238.106l.232-.111c.078-.039.172-.083.277-.133.111-.05.244-.106.383-.161.294-.122.649-.25 1.07-.377a10.85 10.85 0 011.436-.3 8.925 8.925 0 011.735-.038 8.277 8.277 0 011.907.371c.643.205 1.286.483 1.9.832.616.349 1.215.754 1.77 1.214 1.113.909 2.083 1.979 2.904 3.043a21.9 21.9 0 011.114 1.585c.333.516.638 1.015.904 1.48.532.932.914 1.747 1.175 2.312.255.571.388.91.388.91z"/>
      <g opacity=".3">
        <path fill="#509333" d="M39 79.018c-.92-.76-2.128-2.184-2.128-2.184s1.291 2.262.554 2.639c-.194.1-.46.088-.748.017.255.338.421.593.421.593l.604-.133-.233.41c1.126.504 3.171 3.431 3.171 3.431a13.928 13.928 0 00-.499-4.579c-.31.128-.72.156-1.142-.194z" opacity=".3"/>
      </g>
      <path fill="#8EBF22" d="M24.212 73.131s2.378-.16 2.954.316c.976-.31 1.148-.52 1.148-.52l-.277.748 1.785.87 1.485-.615-.227.936s1.253.893 1.596 1.237c1.863-.616-1.84-5.804-8.464-2.972z"/>
    </g>
    <g>
      <path fill="#71B62C" d="M44.516 83.913s.665-1.508 1.934-2.09l-.2-.903.633.576s1.27-1.214 1.995-1.458l-.25-.787.555.355s1.209-.638 1.94-.82l.1-.815.21.438s2.019-1.231 4.13-.854c0 0-1.452-2.517-6.646-2.6-.654.405-.743.649-.743.649l.089-.239s-3.448.677-3.775 2.145l-.205-.327-1.658 1.37.023.864-.278-.493s-2.134 1.186-1.424 5.039c.632.577 3.57-.05 3.57-.05z"/>
      <path fill="#305D28" d="M40.908 83.68s.094-.266.31-.71c.211-.443.544-1.07 1.02-1.768a12.217 12.217 0 011.89-2.178c.394-.355.832-.693 1.298-.993.116-.072.238-.144.36-.216.122-.066.25-.133.372-.205.127-.06.255-.116.382-.183l.394-.16c.127-.05.255-.111.393-.156.133-.044.266-.094.4-.138.26-.1.537-.166.803-.244.067-.017.133-.039.2-.056l.205-.044c.133-.033.266-.06.399-.089.266-.05.532-.094.793-.133.526-.06 1.036-.1 1.524-.083.122.006.244 0 .36.011.117.011.233.022.35.028.055.005.11.011.166.011.055.006.11.017.166.028l.322.05c.21.033.404.088.593.127.183.061.36.106.52.16.156.067.311.123.444.184.133.066.255.122.366.188.106.067.2.122.277.172.078.05.139.105.194.144l.161.128s-.06-.039-.16-.122c-.056-.039-.111-.089-.2-.139a4.849 4.849 0 00-.283-.166c-.105-.055-.233-.11-.366-.177-.133-.061-.288-.106-.449-.172-.16-.056-.338-.094-.52-.15-.19-.039-.383-.083-.588-.116a6.445 6.445 0 01-.322-.045c-.055-.01-.11-.016-.166-.022-.056-.005-.111-.011-.166-.011a6.761 6.761 0 00-.344-.022c-.117-.006-.239-.006-.355-.006-.482-.01-.987.04-1.508.1-.255.039-.52.083-.787.133l-.393.089-.206.05c-.066.016-.127.039-.2.055-.26.078-.531.144-.792.244-.127.044-.26.094-.393.139-.133.05-.26.105-.388.155l-.388.16c-.128.062-.25.117-.377.178-.122.067-.244.133-.366.194-.122.072-.239.139-.355.21-.466.294-.898.621-1.292.97a12.41 12.41 0 00-1.901 2.146 15.463 15.463 0 00-1.059 1.74c-.238.45-.338.71-.338.71z"/>
      <path fill="#8EBF22" d="M45.947 79.955c-.25.316-.576.472-.737.344-.155-.128-.083-.482.166-.798.25-.316.577-.466.732-.344.16.128.089.488-.16.798z"/>
      <path fill="#509333" d="M48.846 76.646c-2.295.1-3.764 1.685-3.886.948-.006-.444.294-.898.676-1.297-.57.321-1.037.726-1.147 1.225l-.205-.327-1.658 1.369.022.865-.277-.494s-2.134 1.186-1.425 5.04c.632.57 3.57-.05 3.57-.05s.666-1.509 1.935-2.09l-.2-.904.632.576s.072-.066.189-.177a19.578 19.578 0 01-1.175-1.69c-.616-1.043-.433-1.58 2.949-2.994z" opacity=".3"/>
      <path fill="#416D2B" d="M44.926 78.453c-1.258.698-2.222 2.112-2.594 1.225l-.233-.554c-.548.476-1.701 1.857-1.152 4.833.631.571 3.57-.05 3.57-.05s.21-.482.626-1.003c-2.91-.643-1.963-2.156-.217-4.451z" opacity=".4"/>
      <path fill="#509333" d="M51.915 75.343c.188.638-.788.643-2.5 1.247.504-.105 1.973-.477 2.405.405.206.427.211.837.156 1.142.742-.338 2.14-.837 3.586-.577 0 0-.87-1.496-3.647-2.217z" opacity=".3"/>
      <path fill="#8EBF22" d="M46.179 77.128s1.668-.62 2.86-.848c1.192-.227 3.398-.67 2.112-.837-1.286-.166-2.073-.61-2.484-.056-.404.56-.432.333-1.68.566-1.24.233-2.006 1.286-.808 1.175z"/>
    </g>
    <g>
      <path fill="#71B62C" d="M41.113 84.19s-1.275-3.353-7.966-2.849l.061.61-.499-.416s-1.364.205-3.886 1.984l.532.716-.975-.522s-2.312 1.608-3.099 2.218l.227.748-.56-.255s-1.79 1.397-2.622 3.941c.455.727-.083.777-.083.777s-1.724 3.703.943 7.522c.687-2.45 2.067-3.775 2.067-3.775l-.449-.76.51.272 1.242-2.095-.377-.605.549.106 2.267-2.511-.421-1.081.704.681s.526-.637.987-.892l-.05-.532.399.283s1.873-1.674 2.904-2.04l.034-.749.299.344s1.214-.704 2.655-.732l.21-.61.2.41c-.005 0 3.16-.37 4.197-.188z"/>
      <path fill="#305D28" d="M40.946 83.963s-.089-.06-.272-.166a7.702 7.702 0 00-.809-.405c-.355-.16-.798-.332-1.32-.493a11.034 11.034 0 00-1.784-.377 9.895 9.895 0 00-2.157-.039c-.76.072-1.552.238-2.344.51-.788.272-1.57.654-2.306 1.125-.178.122-.36.244-.544.366l-.532.4c-.172.143-.344.282-.515.42l-.5.45a14.529 14.529 0 00-1.773 1.973 15.771 15.771 0 00-1.364 2.178 15.811 15.811 0 00-1.463 4.313 13.73 13.73 0 00-.228 3.22c.023.394.067.7.095.904.039.211.055.322.055.322s-.022-.11-.06-.316c-.029-.205-.084-.51-.106-.904-.056-.781-.05-1.907.188-3.231.233-1.325.671-2.844 1.436-4.346.383-.754.837-1.497 1.364-2.201.526-.71 1.13-1.38 1.785-1.99l.504-.45c.172-.143.35-.287.521-.426.177-.133.355-.266.538-.394.188-.127.371-.249.554-.376.748-.472 1.53-.86 2.328-1.131a10.017 10.017 0 012.373-.5 9.593 9.593 0 012.167.062c1.336.177 2.395.587 3.105.909.354.166.626.316.803.421.172.111.26.172.26.172z"/>
      <path fill="#8EBF22" d="M28.7 86.624c-.117.31-.344.515-.516.454-.172-.06-.216-.365-.105-.676.11-.31.343-.516.515-.454.172.06.222.36.105.676z"/>
      <path fill="#509333" d="M32.43 82.927c-1.952.127-5.372 3.508-6.248 4.628-.737.942-.964.366-2.278-.066a9.121 9.121 0 00-1.585 2.871c.454.726-.084.776-.084.776s-1.723 3.703.943 7.522c.687-2.45 2.068-3.775 2.068-3.775l-.45-.759.51.272 1.242-2.096-.377-.604.55.105 2.189-2.417a15.079 15.079 0 01-.56-.88c-.621-1.038.62-3.748 4.08-5.578z" opacity=".3"/>
      <path fill="#509333" d="M23.721 90.792c-.538.128-.937.15-1.23.128-.04.205-.256.227-.256.227s-1.723 3.703.943 7.522c.687-2.45 2.068-3.775 2.068-3.775l-.45-.759.51.272.732-1.236c-.997-1.237-.848-2.739-2.317-2.379z" opacity=".5"/>
      <path fill="#416D2B" d="M36.66 81.469c.367.127.705.266.96.41 1.097.626-.355.305-1.874.526 3.01.516 2.6 1.48 1.912 1.547-.687.066-1.036-.405-1.036-.405s-.072.527-.837 1.098c.227-.039.471-.067.72-.067l.211-.61.2.41s3.165-.37 4.202-.188c-.006 0-.81-2.1-4.457-2.721z" opacity=".5"/>
      <path fill="#8EBF22" d="M36.234 83.492s0 .576-.726.876c-.721.299-1.497.604-1.497.604l-.81-.554-.077.986-2.489 1.735-.776-.271.133.792-.626.638s-.455-2.656 2.378-4.668c2.167-1.535 4.767-.859 4.49-.138z"/>
    </g>
    <g>
      <path fill="#71B62C" d="M41.357 86.407s1.773 1.104 2.422 1.215l.383-.849.038 1.037.81.67.565-.742-.205.87s2.15 2.035 2.783 3.088c.404-.288.543-.366.543-.366l-.133.527s1.364 1.884 1.513 2.483c.776-.57 1.092-.698 1.092-.698l-.305.853s2.49 1.552 2.972 3.598c0 0 .255-3.792-1.746-7.866l-.466-.072.083-.355s-.848-2.034-2.317-3.32l-.532.094.066-.549s-1.951-1.89-2.411-2.3l-.632.316-.039-.416s-1.918-1.07-5.205.16c-.316.876.72 2.623.72 2.623z"/>
      <path fill="#305D28" d="M40.787 83.78s.31-.011.859.044c.271.028.604.072.975.144.377.067.799.167 1.248.305.449.133.931.316 1.424.527a12.563 12.563 0 012.983 1.835c.482.388.925.831 1.363 1.286l.31.36c.1.122.211.233.306.36.094.128.188.25.282.372l.144.183.128.194a15.235 15.235 0 011.147 1.934c.067.128.139.255.189.383.116.26.233.51.338.76a32.46 32.46 0 01.41 1.08c.039.117.072.233.111.344.072.222.139.438.205.643.061.205.105.405.155.588.05.183.09.354.133.515.04.16.067.31.095.438.11.538.177.843.177.843s-.072-.305-.194-.837c-.033-.133-.06-.283-.105-.438-.045-.161-.094-.333-.144-.516-.05-.183-.106-.377-.167-.582-.066-.2-.138-.416-.216-.637-.033-.111-.072-.222-.11-.338-.04-.117-.09-.228-.134-.35-.094-.233-.188-.482-.294-.726-.11-.244-.227-.493-.343-.748-.117-.255-.255-.505-.394-.77a15.03 15.03 0 00-.948-1.53l-.127-.19-.144-.182c-.095-.122-.189-.244-.283-.372-.089-.121-.2-.238-.3-.354l-.304-.35c-.433-.454-.87-.898-1.347-1.28-.472-.4-.97-.737-1.464-1.048-.25-.15-.493-.3-.748-.427-.244-.138-.493-.25-.737-.36a11.917 11.917 0 00-1.414-.538 12.458 12.458 0 00-2.206-.493c-.543-.078-.86-.072-.86-.072z"/>
      <path fill="#8EBF22" d="M45.835 86.674c.277.26.377.604.222.765-.155.16-.499.077-.776-.189-.272-.26-.371-.61-.222-.765.155-.16.505-.078.776.189zM46.928 87.41c.088.15.077.311-.011.361-.095.056-.233-.022-.316-.172-.089-.144-.078-.305.016-.36.083-.05.228.028.31.172z"/>
      <path fill="#509333" d="M52.095 90.232l-.465-.072.083-.355s-.848-2.034-2.317-3.32l-.532.094.066-.549s-.1-.094-.26-.249c-.095.538-.483.61-2.212-.322 2.528 1.53 3.248 3.46 2.71 4.28-.299.454-.892 1.03-1.363 1.458.138.177.26.343.349.493.405-.288.543-.366.543-.366l-.133.527s1.364 1.885 1.514 2.483c.775-.57 1.091-.698 1.091-.698l-.304.854s2.489 1.552 2.97 3.597c.006.006.261-3.78-1.74-7.855z" opacity=".3"/>
      <path fill="#416D2B" d="M50.654 89.212c.782 1.769.915 2.373.394 3.349-.283.526-.81.942-1.225 1.214.127.232.227.432.26.57.776-.57 1.092-.698 1.092-.698l-.305.854s2.49 1.552 2.972 3.597c0 0 .183-2.694-.96-5.98-.493-.367-1.091-1.276-2.228-2.906z" opacity=".4"/>
      <path fill="#416D2B" d="M45.781 85.06c-.831-.681-.81-1.236-.51-1.651-.798-.233-2.395-.46-4.629.376-.321.87.71 2.617.71 2.617s1.175.732 1.968 1.059a6.35 6.35 0 01.333-1.164c.415-1.07.437-2.051 2.128-1.236z" opacity=".3"/>
      <path fill="#416D2B" d="M42.682 83.974c-.96-.322-.521-.543.144-.726a9.44 9.44 0 00-2.179.543c-.321.87.71 2.617.71 2.617s.554.343 1.153.665c-.327-2.611-.881-2.944.172-3.099z" opacity=".3"/>
    </g>
    <g>
      <path fill="#71B62C" d="M40.363 84.168s-3.542-1.125-5.41 3.054l.42.006-.659.488.172.31s-.92 2.256-1.02 3.63l.621.084-.521.427.283.022s-.843.549-.178 3.12l.333.023-.35.787.383.106s.543 3.198 2.001 5.693c.51-3.532 1.203-4.213 1.203-4.213l-.321-.394.438.1.565-2.456-.394-.15.754-.493.405-1.17-.505-.376.865.2 1.292-3.748-.538-.754.798.493.876-2.156c.006 0 .26-1.768-1.513-2.633z"/>
      <path fill="#305D28" d="M40.364 84.168s-.255.127-.643.432c-.2.15-.422.35-.665.588a8.683 8.683 0 00-.76.86c-.266.326-.515.709-.76 1.124-.06.106-.121.211-.188.316-.055.111-.11.228-.172.338-.06.111-.11.228-.166.344-.055.122-.11.239-.16.36-.095.245-.206.494-.289.749-.044.127-.089.255-.133.388l-.116.394c-.084.266-.139.537-.206.809-.066.271-.11.549-.166.826-.044.277-.083.554-.127.831-.028.277-.061.56-.084.837l-.05.82c-.01.272-.01.538-.016.805 0 .066-.006.127-.006.2.006.06.006.127.006.193 0 .133.006.26.006.388.005.128.005.255.005.377.011.122.017.25.022.366.017.244.028.477.04.71.021.227.043.443.06.654.033.42.089.803.133 1.147.022.172.044.333.061.477.022.144.05.282.067.399.083.488.127.77.127.77s-.055-.277-.144-.765c-.022-.121-.05-.255-.072-.399-.028-.15-.05-.305-.078-.476-.055-.339-.116-.721-.155-1.148-.022-.21-.05-.427-.078-.654-.01-.227-.033-.466-.05-.71-.01-.121-.016-.243-.027-.365a8.38 8.38 0 01-.011-.377c-.006-.128-.006-.26-.011-.388 0-.067-.006-.133-.006-.194 0-.067 0-.133.006-.2 0-.266.005-.532.01-.81.017-.27.029-.548.045-.825l.083-.837c.045-.283.078-.56.128-.837.055-.278.105-.56.172-.832.066-.271.127-.549.21-.815l.117-.399c.05-.133.094-.26.138-.388.083-.26.2-.504.294-.754.222-.482.444-.948.704-1.358.25-.416.516-.798.782-1.125.266-.327.526-.615.781-.854a6.64 6.64 0 01.682-.576c.4-.294.66-.416.66-.416z"/>
      <path fill="#509333" d="M40.385 88.342c-.488-.244-.632-.571-.377.266.255.843-.687 2.483-2.173 1.995-1.486-.493.017-4.096.017-4.096-1.746 2.24-2.223 5.11-2.766 5.45-.3.188-.721.365-1.043.492-.194.372-.399 1.187.034 2.855l.332.022-.349.788.383.105s.543 3.198 2 5.693c.51-3.531 1.204-4.213 1.204-4.213l-.322-.394.438.1.565-2.456-.393-.15.754-.493.404-1.17-.504-.376.865.2 1.291-3.748-.537-.754.798.494.876-2.157s.05-.344-.045-.803c-.11 1.58-1.042 2.56-1.452 2.35z" opacity=".3"/>
      <path fill="#509333" d="M35.223 94.711c-.526.388-.909.51-1.164.543.006.017.006.034.011.056l.333.022-.35.787.383.106s.543 3.198 2.001 5.693c.51-3.532 1.203-4.213 1.203-4.213l-.321-.394.438.1.194-.86c-1.713-.537-1.702-2.594-2.728-1.84z" opacity=".5"/>
      <path fill="#8EBF22" d="M39.478 84.434s-1.569 1.264-3.603 4.911c-.76 1.746-1.187 2.112-1.187 2.112s-.554-1.408.832-3.403l-.427-.25.832-.365-.405-.6c-.006.006 1.824-3.01 3.958-2.405z"/>
      <g>
        <path fill="#8EBF22" d="M37.996 89.478c-.138.35-.404.571-.599.494-.188-.078-.232-.421-.1-.77.14-.35.41-.566.6-.494.199.078.238.427.1.77zM38.53 88.536c.005.056-.067.111-.166.117-.095.01-.172-.028-.183-.084-.006-.055.066-.11.166-.116.1-.011.177.028.183.083zM36.772 94.14c-.05.316-.233.55-.405.521-.166-.027-.266-.31-.216-.626.056-.316.233-.549.405-.521.172.033.266.31.216.626zM35.586 90.182c-.05.106-.139.167-.194.144-.061-.027-.061-.132-.017-.238.05-.105.139-.172.194-.144.061.028.067.133.017.238zM37.448 85.953c-.05.105-.133.166-.194.144-.055-.028-.06-.133-.016-.238.05-.106.138-.167.194-.139.06.017.072.127.016.233z"/>
      </g>
      <g>
        <path fill="#71B62C" d="M38.629 85.67c-.1.083-.155.138-.155.138s.039-.022.155-.138z"/>
        <path fill="#416D2B" d="M40.364 84.168s-1.52-.482-3.093.36l.044.017s1.824-.81 2.356-.056c-.566.688-.876 1.02-1.042 1.187.449-.394 1.751-1.397 2.256-.55.504.849.122 1.359.831 2.074l.167-.405c0 .006.255-1.762-1.52-2.627z" opacity=".3"/>
      </g>
    </g>
  </g>
  <g>
    <path fill="#71B62C" d="M41.957 143.099s-.959-2.899-3.387-2.666c1.78-.854 3.476 1.042 3.842 1.74-.45-1.624-1.602-2.444-1.602-2.444s1.43.11 2.1 1.463c-.027-1.319-2.483-2.949-2.483-2.949s2.023.155 2.65 1.613c0 0-.726-2.478-1.641-2.833 1.336.117 1.796 1.885 1.796 1.885s.1-1.53-.765-2.916c1.375 1.586 1.491 2.8 1.491 2.8s.665-1.724 1.514-2.594c0 0-.92 2.195-.843 3.996.443-1.513 2.001-1.613 2.001-1.613s-.964 1.22-.848 2.927c.577-1.136 1.99-1.22 1.99-1.22s-.91.771-.86 2.334l-4.955.477z"/>
    <path fill="#71B62C" d="M45.784 141.513c-.117-1.707.848-2.926.848-2.926s-1.558.099-2.001 1.613c-.072-1.807.842-3.997.842-3.997-.848.865-1.513 2.594-1.513 2.594s-.117-1.214-1.491-2.799c.865 1.386.765 2.916.765 2.916s-.46-1.769-1.796-1.885c.914.355 1.64 2.832 1.64 2.832-.626-1.457-2.65-1.613-2.65-1.613s2.457 1.63 2.484 2.949c-.665-1.358-2.1-1.463-2.1-1.463s1.152.82 1.601 2.445c-.332-.649-1.823-2.329-3.459-1.885.743.011 1.963.344 3.038 2.112.333.643 1.33.288-.25-1.841-.465-.532.804.322 1.403 1.625.582 1.28.172-1.325-.776-2.495-.011-.016-.028-.033-.039-.05-.975-1.136.981.433 1.43 1.907.45 1.475-.01-2.422-.482-3.936.693.821.798 2.512.798 2.512s.072-1.691.527-2.423c.454-.732-.687 1.53.044 3.52.056-1.142.749-1.79 1.236-2.195-.47.748-.676 1.996-.166 2.982.25-1.003 1.525-1.48 1.525-1.48s-1.004.743-.66 2.134l.338-.033c-.05-1.563.86-2.334.86-2.334s-1.42.078-1.996 1.214z" opacity=".5"/>
    <path fill="#71B62C" d="M45.15 142.434s-.016-.039-.038-.111c-.017-.072-.045-.178-.067-.305a3.908 3.908 0 01-.055-.954c.01-.177.038-.343.072-.504.022-.083.038-.155.066-.227.028-.072.05-.139.072-.194.028-.061.056-.111.083-.161.028-.05.056-.083.072-.117.045-.06.072-.099.072-.099s-.016.044-.044.111c-.011.033-.033.072-.05.122-.016.049-.033.105-.055.166-.017.061-.028.127-.05.199-.017.072-.028.145-.044.228-.017.077-.017.155-.034.238a3.736 3.736 0 00-.022.249c-.005.089-.011.172-.011.25 0 .083-.005.166-.005.244a11.415 11.415 0 00.028.748c.01.072.01.117.01.117zM44.407 138.537s-.006.016-.011.044c-.006.022-.011.067-.023.117a1.33 1.33 0 00-.022.183c0 .072-.016.149-.016.238s-.006.183-.006.283c-.005.099.011.205.011.316.011.11.011.221.028.332.011.111.028.227.044.344.011.116.022.227.056.344l.066.327c.028.105.039.21.061.31.028.094.05.189.078.272.05.166.077.31.105.41.022.1.039.155.039.155l-.061-.15a10.395 10.395 0 01-.155-.399c-.033-.077-.067-.172-.1-.266-.033-.1-.055-.199-.089-.31a14.204 14.204 0 01-.083-.333 2.3 2.3 0 01-.055-.349c-.017-.116-.028-.238-.045-.349-.016-.111-.005-.233-.01-.344 0-.111-.006-.216.005-.321.01-.106.022-.2.033-.283.006-.094.033-.172.044-.239a.676.676 0 01.05-.177c.028-.1.056-.155.056-.155zM46.696 140.942s-.06.084-.127.205a3.854 3.854 0 00-.111.217c-.033.077-.072.166-.1.249a2.65 2.65 0 00-.127.499c-.006.033-.017.067-.017.094-.005.028-.005.056-.011.078-.006.044-.011.066-.011.066l-.017-.066c-.005-.039-.022-.105-.027-.178-.006-.038-.012-.077-.006-.121 0-.045 0-.089.011-.139.006-.044.011-.094.028-.144a.715.715 0 01.044-.144c.033-.095.078-.189.128-.266.05-.078.105-.15.16-.2a.707.707 0 01.183-.15zM43.62 138.648s.021.055.05.155c.032.1.082.238.127.41a12.443 12.443 0 01.31 1.281l.066.349c.023.111.045.227.061.344.028.221.05.426.073.604.022.183.033.327.044.432.011.105.011.166.011.166s-.011-.055-.039-.16c-.022-.1-.06-.25-.094-.427-.033-.178-.078-.377-.122-.599-.017-.111-.044-.222-.072-.338a6.415 6.415 0 01-.072-.349 6.227 6.227 0 00-.072-.344c-.022-.116-.039-.227-.061-.338-.044-.216-.078-.427-.117-.599-.027-.177-.055-.321-.072-.427-.016-.099-.022-.16-.022-.16zM42.744 140.006s.034.033.084.094.121.15.2.266c.077.111.16.244.248.393.09.145.167.311.244.477.04.083.072.167.106.25.028.083.06.172.083.249.05.161.083.316.105.455.011.072.017.133.022.188.006.056.006.105.006.144v.122l-.028-.122c-.005-.039-.016-.088-.028-.138-.016-.056-.033-.111-.05-.178-.021-.061-.044-.133-.066-.205-.028-.072-.05-.144-.078-.227a10.993 10.993 0 00-.199-.482c-.039-.083-.072-.161-.11-.239a6.834 6.834 0 01-.112-.233 8.971 8.971 0 01-.205-.415c-.139-.239-.222-.399-.222-.399zM42.006 140.809s.028.011.078.045c.022.016.055.033.083.061.033.027.066.055.1.088l.11.111c.04.039.072.089.111.139.039.05.078.1.111.155l.1.166c.033.056.06.111.089.172.027.056.05.117.072.172.05.111.083.222.105.31.05.189.072.311.072.311s-.066-.111-.15-.283c-.022-.044-.038-.089-.066-.138-.022-.05-.05-.1-.078-.15l-.083-.161a.93.93 0 00-.089-.161c-.06-.11-.116-.216-.182-.316-.034-.049-.062-.099-.09-.144a4.766 4.766 0 01-.088-.122c-.028-.038-.055-.072-.078-.105-.022-.028-.038-.055-.06-.078a.523.523 0 00-.067-.072z"/>
  </g>
  <g>
    <path fill="#71B62C" d="M50.295 142.6s-.194-2.029-1.253-3.47c1.413.931 1.807 2.367 1.807 2.367s-.222-2.877-.593-3.509c1.147 2.123 1.17 2.827 1.17 2.827s-.389-3.425-.655-4.412c.976 2.245 1.447 4.617 1.447 4.617s-.122-3.398.776-4.395c-.138 2.788.227 4.346.227 4.346s.405-2.789 2.517-3.909c-.57.937-.931 3.138-.931 3.138s.998-1.491 2.916-1.768c-1.43 1.386-1.974 2.96-1.974 2.96s1.159-1.137 2.522-1.048c-1.535 1.247-1.49 1.685-1.49 1.685l-6.486.571z"/>
    <path fill="#71B62C" d="M51.42 140.749a.601.601 0 00.01.066s-.005-.022-.01-.066z"/>
    <path fill="#71B62C" d="M55.749 141.397s.549-1.574 1.973-2.96c-1.918.277-2.915 1.768-2.915 1.768s.36-2.2.93-3.137c-2.117 1.12-2.516 3.908-2.516 3.908s-.366-1.558-.227-4.346c-.898.998-.776 4.396-.776 4.396s-.471-2.373-1.447-4.618c.238.904.588 3.858.643 4.346a.598.598 0 00.011.067s-.005-.022-.01-.067c-.034-.222-.212-1.009-1.16-2.76.372.632.594 3.509.594 3.509s-.372-1.359-1.691-2.29a8.116 8.116 0 011.436 2.583c.277.97.62-.465.244-2.134.643 1.624.82 2.217.82 2.217s.094-1.773-.388-3.431c.842 2.234 1.02 3.476 1.02 3.476s.183-2.777.366-3.853c.122 2.14.477 3.542.477 3.542s.759-3.093 1.995-3.963c-.626 2.555-.493 3.132-.493 3.132s1.003-1.619 2.444-2.079c-1.63 1.674-1.485 2.96-1.485 2.96s.998-.826 1.851-1.009c-.715.521-1.009 1.076-1.13 1.425l.46-.039s-.04-.438 1.49-1.685c-1.358-.094-2.516 1.042-2.516 1.042z" opacity=".5"/>
    <path fill="#71B62C" d="M54.763 138.348s-.106.194-.233.494a4.906 4.906 0 00-.194.521 5.421 5.421 0 00-.172.604c-.028.105-.044.211-.067.316a6.938 6.938 0 00-.055.305c-.017.1-.022.194-.033.288-.011.094-.017.178-.023.261-.005.083-.016.155-.016.221 0 .067 0 .128-.006.172-.005.094-.005.15-.005.15s-.011-.056-.022-.15c-.006-.05-.011-.105-.023-.172-.01-.066-.01-.144-.016-.221a1.423 1.423 0 010-.266c.005-.095 0-.194.01-.3.012-.1.023-.21.045-.316.022-.105.033-.216.067-.321a4.28 4.28 0 01.194-.621c.033-.1.077-.189.116-.272.039-.083.078-.166.122-.238.078-.144.16-.255.21-.333l.1-.122zM56.59 139.041s-.038.034-.11.094c-.067.056-.156.15-.267.255-.055.056-.116.117-.171.178a6.183 6.183 0 00-.183.205c-.067.066-.122.15-.183.227a4.689 4.689 0 00-.178.244c-.05.089-.11.166-.155.261-.044.088-.094.172-.133.26-.033.089-.078.167-.1.25-.027.083-.06.155-.077.232a5.292 5.292 0 01-.05.206c-.011.061-.017.116-.022.16a2.202 2.202 0 01-.023.144s0-.049-.005-.138v-.166c.005-.061.011-.133.022-.211.006-.078.033-.161.05-.249a2.507 2.507 0 01.216-.544c.045-.094.106-.177.155-.271.061-.084.122-.167.189-.25.066-.077.127-.155.2-.227a3.22 3.22 0 01.393-.36c.122-.095.233-.167.31-.217.072-.061.122-.083.122-.083zM56.912 140.92s-.055.061-.144.133l-.15.133c-.055.05-.11.095-.166.15-.027.022-.055.05-.083.072-.022.028-.055.05-.078.072-.044.05-.088.1-.121.144-.017.023-.028.045-.045.061a.541.541 0 00-.028.05c-.016.028-.022.05-.022.05s0-.022-.005-.055c0-.022 0-.039.005-.067a.622.622 0 01.128-.266.804.804 0 01.16-.177 1.33 1.33 0 01.366-.239c.106-.044.183-.061.183-.061zM52.65 138.991s.022.189.044.472c.011.138.028.299.044.476.012.178.034.361.05.549.017.183.04.372.056.543.022.172.044.333.06.477.028.133.045.25.056.333.017.083.022.127.022.127l-.044-.122c-.028-.077-.072-.188-.116-.321-.034-.139-.072-.3-.106-.471a8.306 8.306 0 01-.072-.549c-.01-.189-.033-.377-.033-.555a4.561 4.561 0 01.006-.482c.01-.288.033-.477.033-.477zM51.646 139.801s.017.033.033.094c.017.061.05.144.072.255.034.105.061.227.083.36.028.133.05.278.072.422.023.144.034.288.045.426.005.139.005.267.005.372 0 .055-.01.105-.01.15-.006.044-.012.083-.012.116-.005.066-.01.1-.01.1l-.017-.1a3.575 3.575 0 01-.034-.261c-.016-.11-.033-.232-.05-.365-.022-.133-.038-.272-.06-.416a84.986 84.986 0 00-.05-.421c-.017-.134-.028-.261-.04-.366l-.022-.261c-.005-.066-.005-.105-.005-.105zM49.734 140.205s.089.106.194.283c.055.083.116.194.172.305.06.111.11.238.16.366.056.127.095.26.134.382.022.061.027.128.038.183l.034.161c.01.05.005.1.01.144 0 .044.006.078.006.105v.095l-.027-.089a1.06 1.06 0 01-.034-.1c-.01-.039-.016-.083-.038-.133-.034-.094-.073-.211-.111-.327-.05-.116-.089-.244-.139-.366-.1-.249-.2-.499-.272-.687a5.417 5.417 0 01-.127-.322z"/>
  </g>
  <g>
    <path fill="#927415" d="M48.863 138.021l-1.796 15.305 3.631-.061 1.076-2.25-.023 2.317 1.054.066.831-1.297.455 1.536 3.514.028s.488-2.068.604-1.813c.111.26.333 1.541.333 1.541l3.287-.998s-.587-11.064-1.607-14.313c-1.02-3.226-8.93-8.337-11.359-.061z"/>
    <path fill="#B4910E" d="M53.365 144.43c-.006.831-.405 1.507-.898 1.518-.477.011-.87-.654-.86-1.485.006-.832.405-1.502.893-1.519.488-.006.876.654.865 1.486zM53.797 148.154c-.005.383-.221.693-.476.699-.26 0-.466-.305-.46-.682 0-.382.221-.693.476-.698.255 0 .46.305.46.681z"/>
    <path fill="#6B5314" d="M59.772 137.168c-.876-1.397-2.694-2.866-4.629-3.409.471 1.934 2.716 12.239-.715 19.894l3.176.023s.488-2.068.604-1.813c.111.261.333 1.541.333 1.541l1.646-.504c.494-6.093-.027-12.334-.415-15.732z"/>
    <path fill="#927415" d="M60.789 140.865c-.172-1.136-.36-2.112-.566-2.766-1.02-3.243-8.93-8.354-11.364-.072l-.449 3.814c2.146 1.02 6.68 2.322 12.379-.976z" opacity=".6"/>
    <path fill="#B4910E" d="M53.037 133.576c-1.719.221-3.298 1.463-4.174 4.445l-1.796 15.305 3.63-.06 1.076-2.251-.022 2.317.31.017c3.348-8.188 1.425-17.811.976-19.773z" opacity=".5"/>
    <path fill="#B4910E" d="M49.322 142.899s-.77 7.678-1.552 9.646l2.057.305s1.053-5.555-.505-9.951z" opacity=".5"/>
    <g>
      <path fill="#927415" d="M49.957 125.638l-1.58 15.449 2.977-.022.898-2.268-.039 2.345.865.083.693-1.308.36 1.558 2.883.072s.421-2.084.504-1.824c.094.255.266 1.558.266 1.558l2.7-.976s-.405-11.186-1.22-14.479c-.81-3.287-7.262-8.531-9.307-.188z"/>
      <path fill="#B4910E" d="M53.599 132.156c-.011.843-.344 1.519-.743 1.525-.394.005-.71-.676-.693-1.514.011-.837.344-1.518.743-1.524.393 0 .71.676.693 1.513zM53.932 135.931c-.011.388-.183.693-.4.699-.21 0-.376-.311-.37-.693.005-.388.182-.698.393-.698.21 0 .383.31.377.692z"/>
      <path fill="#6B5314" d="M58.909 124.884c-.71-1.419-2.19-2.922-3.775-3.498.371 1.962 2.145 12.4-.726 20.094l2.6.061s.42-2.084.504-1.823c.094.255.266 1.557.266 1.557l1.353-.487c.454-6.142.066-12.473-.222-15.904z"/>
      <path fill="#927415" d="M59.713 128.631c-.133-1.153-.283-2.134-.444-2.805-.814-3.287-7.261-8.531-9.312-.188l-.394 3.847c1.74 1.058 5.455 2.417 10.15-.854z" opacity=".6"/>
      <path fill="#B4910E" d="M53.41 121.181c-1.407.211-2.716 1.452-3.453 4.457l-1.58 15.449 2.977-.022.898-2.267-.039 2.344.255.023c2.805-8.243 1.297-17.994.943-19.984z" opacity=".5"/>
      <path fill="#B4910E" d="M50.301 130.571s-.687 7.755-1.341 9.734l1.685.327s.898-5.604-.344-10.061z" opacity=".5"/>
    </g>
    <g>
      <path fill="#927415" d="M50.288 115.394s-.238 9.352-1.558 12.91l2.805.377.798-1.386.172 1.381 1.458-.011.698-1.386.36 1.84 2.135.056.416-1.918.56 1.646 1.751-.405s.023-8.032-2.916-12.683c-2.926-4.656-6.546-2.854-6.68-.421z"/>
      <path fill="#B4910E" d="M52.81 121.275c-.01.532-.304.97-.664.97-.36.006-.643-.426-.638-.964.006-.538.305-.976.665-.976.36 0 .643.433.638.97zM54.148 119.429c-.006.383-.228.699-.494.699-.26 0-.471-.305-.466-.693.006-.388.222-.699.488-.699s.471.305.471.693zM54.673 124.374c-.006.321-.222.582-.488.576-.26 0-.477-.249-.466-.571.006-.321.222-.576.488-.582.255 0 .466.255.466.577z"/>
      <path fill="#6B5314" d="M56.979 115.809c-.887-1.402-1.83-2.211-2.722-2.6.538 3.393 1.552 10.61 1.474 15.926l1.43.034.416-1.918.56 1.646.87-.2c-.066-4.168-1.158-9.512-1.895-12.683-.05-.066-.089-.138-.133-.205z"/>
      <path fill="#B4910E" d="M52.394 112.977a2.625 2.625 0 00-2.106 2.417s-.239 9.351-1.558 12.91l2.805.377.798-1.386.172 1.38.427-.005c.909-5.998.166-11.99-.538-15.693z" opacity=".5"/>
      <g opacity=".6">
        <path fill="#927415" d="M57.944 117.683a13.255 13.255 0 00-.965-1.874c-2.938-4.65-6.558-2.849-6.69-.41 0 0-.028.992-.106 2.45 1.303.383 3.853.782 7.76-.166z" opacity=".6"/>
      </g>
      <path fill="#B4910E" d="M50.725 118.487s-.183 5.665-1.014 9.091l1.358.061s1.148-5.083-.344-9.152z" opacity=".5"/>
    </g>
    <g>
      <path fill="#927415" d="M49.785 107.516s.62 5.466-.599 8.836l2.988.217.66-1.248.094 1.27 1.702.138.172-.626.377.638 3.758.188s-.355-5.654-2.267-9.928c0 0-5.998-1.99-6.885.515z"/>
      <path fill="#B4910E" d="M49.786 107.516s.621 5.466-.598 8.836l2.988.217.66-1.248.093 1.27.472.033c.626-4.534-.555-8.387-1.358-10.36-1.054.066-1.952.399-2.257 1.252z" opacity=".5"/>
      <g opacity=".5">
        <path fill="#B4910E" d="M52.978 110.892c.016.427-.26.787-.616.793-.354.016-.66-.322-.676-.743-.016-.421.255-.782.615-.793.35-.016.655.316.677.743zM53.215 113.381c-.044.155-.243.288-.437.277-.2 0-.328-.133-.289-.288.045-.161.239-.288.438-.283.2.006.327.133.288.294zM54.003 110.21c-.039.15-.233.266-.438.266-.2-.011-.332-.133-.288-.282.044-.155.238-.272.438-.266.194 0 .327.127.288.282z" opacity=".5"/>
      </g>
      <path fill="#6B5314" d="M56.668 107.001s-1.242-.416-2.689-.626c1.004 2.488 2.578 7.006 2.35 10.421l.876.044c.588-2.677.355-6.236.194-7.927a19.689 19.689 0 00-.731-1.912z"/>
      <path fill="#927415" d="M57.172 108.248a18.99 18.99 0 00-.504-1.247s-5.998-1.99-6.885.521c0 0 .067.566.117 1.441 1.502.167 4.196.239 7.272-.715z" opacity=".6"/>
      <path fill="#B4910E" d="M50.261 109.462s.571 4.246-.637 6.53l1.857.133s1.142-4.29-1.22-6.663z" opacity=".5"/>
    </g>
    <g>
      <path fill="#927415" d="M48.832 96.995s1.342 7.279-.294 11.081l3.138-.166.477-1.369.144 1.308 3.27.36.056-1.502 1.092 1.575 2-.533s-1.623-8.82-2.843-11.197c-1.214-2.384-6.59-2.511-7.04.443z"/>
      <g opacity=".5">
        <path fill="#B4910E" d="M51.742 100.87c-.016.516-.316.942-.665.948-.349.006-.626-.41-.61-.926.017-.515.316-.942.666-.948.354-.005.626.405.61.926zM52.024 103.392c-.011.261-.155.472-.333.477-.177.006-.321-.199-.31-.465.006-.261.155-.472.333-.477.183 0 .321.205.31.465z" opacity=".5"/>
      </g>
      <path fill="#B4910E" d="M48.833 96.996s1.342 7.278-.294 11.081l3.138-.167.477-1.369.144 1.308.327.039c.903-4.468-.854-10.033-1.946-12.877-.953.316-1.69.97-1.846 1.985z" opacity=".5"/>
      <path fill="#927415" d="M56.42 97.965c-.188-.576-.377-1.07-.554-1.413-1.209-2.384-6.586-2.511-7.035.443 0 0 .144.782.278 1.957 1.712.31 4.379.405 7.311-.987z" opacity=".6"/>
      <path fill="#B4910E" d="M49.663 100.549s.405 4.39-.36 7.123c.981-.083 1.225-.089 1.225-.089s.948-4.54-.865-7.034z" opacity=".5"/>
      <path fill="#6B5314" d="M55.866 96.552c-.454-.898-1.502-1.47-2.65-1.685 1.132 2.356 2.916 6.968 2.623 12.156l.87 1.259.987-.261c.238-1.269.282-2.7.25-4.03-.577-2.705-1.392-6.098-2.08-7.44z"/>
    </g>
    <g>
      <path fill="#927415" d="M47.627 84.65l.754 13.415 2.168-.288.371-2.023.26 2.017.644-.01.343-1.187.455 1.308 2.106-.205s.045-1.83.145-1.613c.1.216.382 1.314.382 1.314l1.851-1.076s-1.68-9.573-2.677-12.328c-1.003-2.75-6.347-6.674-6.802.676z"/>
      <path fill="#B4910E" d="M51.086 89.928c.094.726-.066 1.336-.355 1.38-.288.039-.604-.516-.693-1.236-.094-.72.061-1.336.35-1.38.288-.045.604.51.698 1.236zM51.79 93.137c.038.327-.05.615-.2.638-.156.016-.316-.233-.355-.566-.044-.327.044-.615.2-.632.149-.022.31.233.354.56z"/>
      <path fill="#6B5314" d="M54.05 83.204c-.7-1.153-1.957-2.312-3.182-2.661.515 1.646 3.093 10.454 1.956 17.323l1.907-.183s.045-1.83.144-1.614c.1.217.383 1.314.383 1.314l.926-.543c-.438-5.322-1.503-10.715-2.135-13.636z"/>
      <path fill="#927415" d="M55.1 86.352c-.243-.976-.476-1.818-.67-2.372-1.003-2.755-6.347-6.68-6.802.67l.189 3.343c1.402.754 4.263 1.59 7.284-1.64z" opacity=".6"/>
      <path fill="#B4910E" d="M49.589 80.515c-1.004.305-1.802 1.491-1.968 4.135l.754 13.415 2.167-.288.372-2.023.26 2.017.189-.005c1.03-7.334-1.27-15.577-1.774-17.251z" opacity=".5"/>
      <path fill="#B4910E" d="M48.48 88.858s.46 6.718.233 8.48l1.264.128s-.033-4.889-1.496-8.608z" opacity=".5"/>
      <g>
        <path fill="#927415" d="M46.097 70.803s1.32 10.61.937 14.757l2.079.182.355-1.64.343 1.552 1.048-.144.283-1.63.554 2.05 1.541-.127-.005-2.2.665 1.807 1.197-.615s-1.258-9.097-4.119-14.114c-2.849-5.005-5.171-2.65-4.878.122z"/>
        <path fill="#B4910E" d="M48.847 77.245c.083.61-.06 1.13-.322 1.158-.26.039-.537-.432-.615-1.037-.083-.604.067-1.125.327-1.158.26-.033.538.432.61 1.037zM49.518 75.044c.061.438-.044.81-.238.831-.194.028-.388-.305-.45-.742-.054-.438.05-.815.24-.837.193-.028.393.304.448.748zM50.688 80.593c.05.36-.073.676-.256.704-.194.022-.382-.25-.426-.616-.05-.36.066-.676.255-.698.188-.022.377.25.426.61z"/>
        <path fill="#6B5314" d="M50.985 70.692c-.86-1.502-1.674-2.345-2.378-2.705.926 3.803 2.805 11.88 3.603 17.91l1.037-.088-.006-2.2.665 1.806.593-.305c-.715-4.712-2.35-10.67-3.392-14.202-.039-.066-.083-.138-.122-.216z"/>
        <path fill="#B4910E" d="M47.232 67.882c-.82.382-1.275 1.607-1.136 2.921 0 0 1.32 10.61.937 14.756l2.079.183.354-1.64.344 1.552.31-.045c-.304-6.873-1.796-13.592-2.888-17.727z" opacity=".5"/>
        <g opacity=".6">
          <path fill="#927415" d="M51.978 72.738a19.504 19.504 0 00-.992-2.046c-2.86-5.01-5.183-2.655-4.89.117 0 0 .14 1.125.316 2.782.998.328 2.9.55 5.566-.853z" opacity=".6"/>
        </g>
        <path fill="#B4910E" d="M46.905 74.268s.776 6.43.72 10.382l.987-.05s.017-5.848-1.707-10.332z" opacity=".5"/>
      </g>
      <g>
        <path fill="#927415" d="M42.786 58.558s2.417 8.188 2.893 13.437l1.985-.033-.039-1.968.532 1.907h1.137l-.128-.97.477.92 2.461-.172s-2.323-8.503-5.122-14.74c-.005.006-4.562-2.278-4.196 1.62z"/>
        <path fill="#B4910E" d="M42.785 58.558s2.417 8.188 2.894 13.437l1.984-.033-.038-1.968.532 1.907h.31a74.445 74.445 0 00-4.712-15.505c-.648.227-1.097.837-.97 2.162z" opacity=".5"/>
        <g opacity=".5">
          <path fill="#B4910E" d="M46.069 63.281c.171.643.127 1.209-.095 1.275-.221.061-.537-.405-.704-1.042-.172-.643-.127-1.214.094-1.275.222-.072.538.4.705 1.042zM47.143 67.012c.034.244-.044.454-.177.477-.127.016-.255-.167-.288-.416-.033-.244.044-.455.172-.471.138-.017.266.166.293.41zM46.474 62.117c.028.227-.05.438-.183.455-.127.016-.26-.161-.288-.394-.022-.233.05-.438.183-.45.127-.021.255.156.288.389z" opacity=".5"/>
        </g>
        <path fill="#6B5314" d="M46.975 56.945s-.948-.471-1.94-.62C46.598 59.965 49.27 66.6 50.4 71.8l.57-.039c-.615-4.124-2.084-9.479-2.821-12.018a62.44 62.44 0 00-1.175-2.799z"/>
        <path fill="#927415" d="M47.765 58.774a62.7 62.7 0 00-.782-1.829s-4.562-2.284-4.19 1.613c0 0 .25.848.604 2.173 1.02.067 2.766-.15 4.368-1.957z" opacity=".6"/>
        <path fill="#B4910E" d="M43.813 61.446s1.94 6.347 2.023 9.95l1.23-.022s-.87-6.624-3.253-9.928z" opacity=".5"/>
      </g>
      <g>
        <path fill="#927415" d="M38.248 48.835s3.62 7.04 4.169 11.22l1.74-.837-.271-1.48.598 1.286 2.018-.338-.554-1.52 1.242 1.353.947-.959s-4.39-8.53-6.02-10.67c-1.635-2.146-4.767-1.126-3.869 1.945z"/>
        <g opacity=".5">
          <path fill="#B4910E" d="M41.436 52.117c.194.52.188 1.014-.011 1.092-.2.077-.516-.283-.71-.81-.194-.526-.188-1.014.011-1.097.194-.072.51.288.71.815zM42.583 54.595c.1.266.1.515 0 .554-.1.044-.26-.139-.355-.405-.1-.266-.1-.515 0-.554.1-.044.26.139.355.405z" opacity=".5"/>
        </g>
        <path fill="#B4910E" d="M38.248 48.835s3.62 7.04 4.169 11.22l1.74-.837-.271-1.48.599 1.286.2-.034c-1.226-4.69-4.419-9.916-6.16-12.55-.42.527-.587 1.342-.276 2.395z" opacity=".5"/>
        <path fill="#927415" d="M42.988 48.192a17.788 17.788 0 00-.876-1.314c-1.63-2.14-4.762-1.12-3.864 1.952 0 0 .389.753.926 1.912 1.103-.044 2.672-.527 3.814-2.55z" opacity=".6"/>
        <path fill="#B4910E" d="M40.116 52.233s1.951 4.34 2.583 7.25c.532-.293.666-.348.666-.348s-1.231-4.773-3.249-6.902z" opacity=".5"/>
        <path fill="#6B5314" d="M42.113 46.884c-.61-.804-1.441-1.164-2.184-1.13 1.58 2.133 4.407 6.39 6.27 11.684l.986 1.076.471-.477c-.36-1.325-.898-2.783-1.436-4.113-1.391-2.594-3.187-5.837-4.107-7.04z"/>
      </g>
      <g>
        <path fill="#927415" d="M34.92 42.97s2.567 4.978 3.515 7.279l1.829-1.226-.732-1.801.998 1.69.782-.554-.277-1.025.598.754 1.508-.96-6.896-9.262c-.005-.006-1.901 2.295-1.325 5.105z"/>
        <path fill="#B4910E" d="M34.92 42.97s2.567 4.978 3.515 7.279l1.829-1.226-.649-1.596c-1.446-2.029-3.21-3.986-4.8-5.61-.006.371.028.76.105 1.153z" opacity=".5"/>
        <path fill="#B4910E" d="M38.889 45.332c.26.493.271 1.008.033 1.147-.233.133-.632-.155-.892-.648-.255-.5-.267-1.01-.034-1.148.239-.139.638.155.893.649zM35.8 44.084s1.67 3.282 2.578 5.466l.605-.327s-1.57-3.675-3.182-5.139z" opacity=".5"/>
        <path fill="#6B5314" d="M43.135 47.128l-6.896-9.263s-.698.848-1.114 2.134c1.935 1.857 4.246 4.6 6.125 8.398l.056-.039-.277-1.025.598.754 1.508-.96z"/>
      </g>
    </g>
    <g>
      <path fill="#71B62C" d="M39.79 30.975l.477-4.413-1.241.072 1.158-.626.976-6.43-1.314-.372 1.802-.028s1.291-3.969 3.17-6.43l-.936-.687 1.153.438s2.09-4.13 3.353-5.117l-.743-1.108 1.02.681S50.251 1.578 52.49.752c0 0-3.331.272-9.767 2.611l.188.887-.615-.305s-4.38 2.927-5.582 5.012c-.327 1.347-.382 2.034-.382 2.034l-.699-1.109s-1.957 2.195-2.977 6.004c.627 1.125.61 1.508.61 1.508l-1.053-.91s-3.62 5.799 4.451 21.94c2.617-6.274 3.127-7.45 3.127-7.45z"/>
      <path fill="#305D28" d="M50.336 1.412s-.588.155-1.525.638c-.477.232-1.026.56-1.635.975-.604.41-1.253.92-1.924 1.53-.343.294-.665.638-1.009.981-.327.36-.676.727-.992 1.131-.338.394-.648.826-.97 1.258-.155.222-.305.455-.46.682a8.97 8.97 0 00-.45.704c-.143.239-.293.483-.437.732-.144.25-.277.505-.41.76-.283.504-.521 1.042-.776 1.58-.25.532-.46 1.091-.699 1.64-.194.56-.41 1.125-.598 1.702-.178.576-.377 1.142-.527 1.724-.15.582-.316 1.158-.444 1.735-.127.576-.26 1.147-.365 1.718-.1.571-.2 1.142-.294 1.691-.089.56-.15 1.109-.227 1.646-.084.538-.133 1.07-.178 1.586-.044.51-.1 1.014-.138 1.502-.028.488-.056.953-.078 1.408-.067.904-.067 1.735-.094 2.467-.011.371-.022.715-.022 1.03 0 .317.005.61.01.871.006 1.053.012 1.663.012 1.663s-.022-.604-.05-1.657c-.006-.26-.017-.555-.022-.876-.011-.322 0-.66 0-1.031.01-.737-.011-1.569.05-2.473.016-.454.044-.92.06-1.413.028-.488.078-.992.117-1.508.044-.52.083-1.053.16-1.59.067-.544.134-1.098.217-1.658.094-.56.194-1.125.288-1.702.111-.57.239-1.147.36-1.73.122-.576.294-1.152.438-1.74.073-.294.167-.577.25-.87l.272-.87c.194-.577.415-1.143.615-1.708.238-.554.454-1.12.71-1.652.26-.538.498-1.075.787-1.59.138-.256.271-.51.415-.766l.45-.737c.143-.238.299-.477.46-.704.16-.227.31-.46.47-.682.333-.438.644-.87.993-1.258.327-.405.682-.765 1.02-1.126.349-.338.676-.681 1.03-.975.333-.305.672-.577.999-.832.338-.244.654-.482.959-.676.62-.405 1.18-.72 1.657-.942.931-.45 1.525-.588 1.525-.588z"/>
      <path fill="#8EBF22" d="M35.595 18.286c.088.599-.139 1.13-.51 1.18-.366.056-.743-.382-.832-.975-.089-.593.133-1.125.51-1.18.372-.067.737.376.832.975zM39.309 21.922c-.089.593-.46 1.037-.832.981-.371-.055-.598-.587-.504-1.18.088-.599.454-1.037.831-.982.366.056.593.588.505 1.181z"/>
      <path fill="#509333" d="M39.392 16.185c.144-3.559 2.522-8.254 2.522-8.254-2.046 1.563-4.673 6.868-5.316 4.113-.155-.66-.155-1.486-.061-2.373-.183.865-.216 1.309-.216 1.309l-.699-1.109s-1.956 2.195-2.977 6.003c.627 1.126.61 1.508.61 1.508l-1.053-.909s-3.62 5.798 4.451 21.94c2.633-6.258 3.138-7.439 3.138-7.439l.477-4.412-1.242.072 1.158-.626.976-6.43-1.314-.372 1.802-.028s.083-.255.238-.676c-1.325.427-2.605.283-2.494-2.317z" opacity=".3"/>
      <path fill="#416D2B" d="M38.223 27.139c-2.068-.073-.954-7.85-.954-7.85s-1.74 4.601-3.414 3.636c-.92-.532-1.719-2.732-2.25-4.59-.522 2.806-.489 9.009 5.044 20.084a2208.33 2208.33 0 013.137-7.439l.46-4.263c-.371.233-.998.455-2.023.422z" opacity=".5"/>
      <path fill="#8EBF22" d="M39.076 10.298s3.886-5.266 8.42-7.777l-3.62 1.003-.576 1.458-1.275-.15c-.006 0-6.175 3.786-2.95 5.466z"/>
      <g>
        <path fill="#71B62C" d="M36.149 38.658s-4.335-5.532-6.597-6.408l.41-.82-1.17.332s-2.848-3.759-4.644-4.557l1.02-1.291-1.33.737s-.489-.693-1.935-.704c1.286-1.563 1.142-1.996 1.142-1.996l-2.64 1.691s-3.846-2.772-4.9-3.22c.827-1.043 1.076-1.459 1.076-1.459l-2.372 1.425-4.54-1.83.532-.991-1.685.936s-4.13-1.13-7.506.222c1.485-3.27 6.175-7.55 14.662-7.766-.2 1.175-.222 1.552-.222 1.552l1.087-1.38s2.516 0 6.402 2.084l-.56 1.303 1.07-.466s1.159.588 2.29 2.018l-.422.748 1.835-.432s2.894 3.07 4.823 5.748l-.494.76.82-.128c.006-.016 3.87 5.455 3.848 13.892z"/>
        <path fill="#509333" d="M33.167 26.218c-1.851-.16-6.84-3.564-8.531-4.878-3.531-2.744-6.552-3.315-6.552-3.315s7.71 4.967 6.447 6.68c-.732.676-1.475 1.064-2.201 1.258 1.12.128 1.508.677 1.508.677l1.33-.738-1.02 1.292c1.796.804 4.645 4.557 4.645 4.557l1.17-.333-.41.82c2.261.876 6.596 6.409 6.596 6.409.017-5.843-1.84-10.267-2.982-12.429z" opacity=".3"/>
        <path fill="#8EBF22" d="M22.262 17.366c.25.36.261.781.034.931-.227.155-.604-.011-.848-.377-.244-.36-.26-.776-.034-.931.222-.155.605.017.848.377zM24.075 19.916c.15.221.155.476.022.576-.139.089-.377-.01-.527-.233-.15-.221-.16-.482-.016-.57.127-.095.366.005.52.227zM18.887 21.629c.3.438.321.948.039 1.13-.272.183-.732-.022-1.037-.454-.294-.444-.316-.953-.039-1.136.272-.189.737.016 1.037.46z"/>
        <path fill="#305D28" d="M36.647 38.414s-.299-.638-.892-1.719a59.35 59.35 0 00-2.633-4.368 54.98 54.98 0 00-4.335-5.743c-1.724-1.99-3.747-3.969-6.02-5.615a23.806 23.806 0 00-3.564-2.184 19.25 19.25 0 00-3.781-1.425 16.858 16.858 0 00-7.118-.333 20.193 20.193 0 00-2.782.694c-.81.277-1.508.554-2.068.803-.277.133-.527.25-.743.35-.216.11-.393.205-.538.277l-.449.238.444-.238c.144-.083.327-.183.532-.294.216-.11.466-.227.737-.36.56-.272 1.253-.56 2.057-.854.815-.272 1.746-.554 2.788-.743a17.489 17.489 0 013.41-.26c1.213.027 2.5.194 3.78.532 1.286.332 2.577.804 3.825 1.43a24.764 24.764 0 013.603 2.184c2.284 1.669 4.307 3.664 6.031 5.67a45.252 45.252 0 012.367 2.989 55.171 55.171 0 014.485 7.229c.576 1.091.864 1.74.864 1.74z"/>
        <g opacity=".3">
          <path fill="#509333" d="M32.402 29.462c-1.885-1.397-4.413-4.058-4.413-4.058s2.783 4.301 1.38 5.116c-.37.222-.892.228-1.474.117.538.643.898 1.12.898 1.12l1.17-.333-.41.82c2.261.876 6.596 6.408 6.596 6.408a27.356 27.356 0 00-1.475-8.936c-.604.294-1.396.389-2.272-.255z" opacity=".3"/>
        </g>
        <path fill="#8EBF22" d="M2.716 19.489s4.651-.571 5.843.305c1.89-.72 2.2-1.142 2.2-1.142l-.46 1.502 3.598 1.519 2.85-1.37-.344 1.858s2.55 1.613 3.27 2.25c3.581-1.408-4.251-11.203-16.957-4.922z"/>
      </g>
      <g>
        <path fill="#71B62C" d="M43.778 38.48s1.142-3.026 3.575-4.307l-.493-1.752 1.303 1.06s2.361-2.529 3.758-3.077l-.565-1.514 1.12.632s2.306-1.374 3.719-1.818l.105-1.613.46.843s3.83-2.634 8.022-2.123c0 0-3.121-4.784-13.338-4.385-1.241.87-1.397 1.352-1.397 1.352l.156-.482s-6.708 1.696-7.184 4.623l-.438-.615-3.105 2.866.139 1.69-.599-.942s-4.063 2.556-2.25 10.045c1.302 1.064 7.012-.483 7.012-.483z"/>
        <path fill="#305D28" d="M36.648 38.414s.161-.532.533-1.425c.371-.892.948-2.156 1.812-3.575.865-1.42 2.001-3.016 3.476-4.485a19.507 19.507 0 012.445-2.084c.221-.16.454-.305.681-.46.239-.144.472-.288.71-.438.244-.128.488-.266.737-.4l.743-.354c.255-.116.499-.244.754-.355.26-.105.515-.21.77-.316.51-.227 1.037-.388 1.553-.565.127-.05.255-.094.388-.133l.393-.117c.26-.077.516-.15.776-.221a43.436 43.436 0 011.547-.344c1.025-.172 2.029-.305 2.988-.322.238-.005.47-.022.704-.016.238.005.465.01.687.017.11.005.222.005.333.01.11.006.221.023.332.028.216.017.427.04.632.061.416.05.81.133 1.18.189.367.094.716.172 1.043.266.316.116.626.2.892.31.272.122.522.216.738.327.21.111.404.216.565.31.16.09.288.195.4.267l.326.227-.332-.222c-.111-.066-.233-.166-.405-.255-.16-.088-.355-.188-.57-.299-.217-.1-.466-.194-.738-.305-.272-.1-.577-.177-.898-.283-.322-.083-.677-.155-1.042-.238-.372-.05-.76-.122-1.17-.166l-.632-.05a6.005 6.005 0 00-.327-.022c-.105 0-.216-.006-.332-.006-.222-.005-.45-.005-.677-.01-.227 0-.46.021-.698.027-.948.033-1.935.177-2.955.355a33.57 33.57 0 00-1.535.349c-.255.072-.516.15-.77.222l-.389.11c-.127.04-.255.09-.382.128-.51.183-1.031.35-1.536.57-.25.106-.504.212-.76.317-.254.11-.498.233-.748.349l-.748.355c-.244.127-.482.26-.726.388-.233.144-.466.283-.699.421-.227.155-.454.305-.676.455a19.496 19.496 0 00-2.433 2.05c-1.47 1.453-2.628 3.016-3.504 4.419a29.37 29.37 0 00-1.89 3.53c-.394.882-.566 1.409-.566 1.409z"/>
        <path fill="#8EBF22" d="M46.15 30.553c-.454.649-1.086.987-1.407.76-.327-.228-.217-.937.238-1.586.454-.643 1.087-.975 1.408-.754.327.228.216.937-.238 1.58z"/>
        <path fill="#509333" d="M51.49 23.73c-4.496.448-7.207 3.713-7.54 2.278-.05-.87.483-1.79 1.192-2.617-1.08.693-1.956 1.541-2.117 2.528l-.438-.615-3.104 2.866.138 1.69-.598-.942s-4.064 2.556-2.25 10.044c1.302 1.065 7.006-.482 7.006-.482s1.142-3.026 3.575-4.307l-.493-1.752 1.303 1.06s.127-.145.354-.367c-.798-.942-1.796-2.167-2.489-3.198-1.324-1.963-1.03-3.038 5.46-6.186z" opacity=".3"/>
        <path fill="#416D2B" d="M43.984 27.715c-2.4 1.502-4.135 4.39-4.961 2.689-.178-.35-.344-.715-.516-1.06-1.03.993-3.137 3.831-1.735 9.618 1.303 1.065 7.007-.482 7.007-.482s.366-.97 1.12-2.04c-5.788-.959-4.091-4.03-.915-8.725z" opacity=".4"/>
        <path fill="#509333" d="M57.376 20.847c.438 1.23-1.47 1.347-4.773 2.722.987-.26 3.825-1.147 4.767.538a3.65 3.65 0 01.433 2.228c1.419-.743 4.118-1.868 6.984-1.519 0-.005-1.868-2.85-7.411-3.969z" opacity=".3"/>
        <path fill="#8EBF22" d="M46.306 24.971s3.215-1.402 5.526-1.973c2.312-.577 6.602-1.68 4.063-1.868-2.544-.189-4.146-.976-4.889.16-.737 1.137-.809.699-3.231 1.287-2.423.593-3.809 2.743-1.47 2.394z"/>
      </g>
      <g>
        <path fill="#71B62C" d="M37.12 39.395s-2.872-6.447-15.96-4.74l.183 1.192-1.03-.76s-2.662.555-7.418 4.32l1.12 1.352-1.968-.92s-4.363 3.398-5.843 4.684l.527 1.446-1.125-.438s-3.37 2.944-4.734 8.022C1.842 54.927.8 55.088.8 55.088s-2.988 7.45 2.666 14.673c1.092-4.883 3.653-7.644 3.653-7.644l-.959-1.441 1.026.477 2.217-4.247-.81-1.142 1.082.15 4.19-5.183-.948-2.079 1.458 1.259s.97-1.309 1.84-1.863l-.155-1.037.815.51s3.498-3.486 5.488-4.312l-.01-1.48.625.643s2.312-1.514 5.14-1.724l.343-1.22.438.782c-.017 0 6.164-1.07 8.22-.815z"/>
        <path fill="#305D28" d="M36.77 38.963s-.188-.111-.56-.294a17.99 17.99 0 00-1.635-.71c-.72-.271-1.607-.57-2.65-.82a22.076 22.076 0 00-3.542-.543 19.067 19.067 0 00-4.235.155 20.392 20.392 0 00-4.55 1.253 21.318 21.318 0 00-4.413 2.46c-.344.261-.682.522-1.031.782-.338.283-.665.566-1.004.843-.321.3-.643.593-.964.881l-.931.932a29.735 29.735 0 00-3.277 4.069 30.048 30.048 0 00-2.439 4.434 30.991 30.991 0 00-2.41 8.631c-.333 2.61-.278 4.823-.1 6.347.082.77.204 1.364.282 1.763.1.399.144.615.144.615l-.155-.615c-.083-.4-.216-.992-.305-1.757-.194-1.525-.305-3.742.017-6.37.316-2.622 1.014-5.665 2.356-8.691a30.461 30.461 0 012.444-4.474 30.498 30.498 0 013.287-4.108l.937-.93c.327-.3.654-.6.976-.893.338-.277.676-.56 1.014-.837.35-.272.699-.532 1.048-.793a21.4 21.4 0 014.457-2.472 19.049 19.049 0 014.6-1.231 19.54 19.54 0 014.264-.116c2.65.205 4.767.892 6.197 1.452a17.46 17.46 0 011.624.743c.366.177.554.294.554.294z"/>
        <path fill="#8EBF22" d="M12.995 45.51c-.194.626-.62 1.047-.964.942-.344-.106-.466-.693-.272-1.32.183-.626.621-1.053.965-.942.338.1.46.693.271 1.32z"/>
        <path fill="#509333" d="M19.93 37.848c-3.813.466-10.177 7.473-11.773 9.768-1.342 1.934-1.852.826-4.485.122-.992 1.369-2.14 3.331-2.805 5.809.97 1.375-.072 1.536-.072 1.536s-2.988 7.45 2.667 14.673c1.092-4.884 3.653-7.645 3.653-7.645l-.96-1.44 1.026.476L9.4 56.9l-.81-1.142 1.081.15 4.041-4.995c-.266-.338-.648-.86-1.197-1.674-1.33-1.968.82-7.428 7.417-11.392z" opacity=".3"/>
        <path fill="#509333" d="M3.666 54.229c-1.037.31-1.818.399-2.4.382-.05.405-.477.472-.477.472s-2.988 7.45 2.666 14.673c1.092-4.884 3.653-7.645 3.653-7.645l-.959-1.44 1.026.476 1.308-2.5c-2.107-2.306-1.962-5.272-4.817-4.418z" opacity=".5"/>
        <path fill="#416D2B" d="M28.075 34.523c.732.205 1.408.448 1.934.709 2.218 1.114-.67.632-3.625 1.236 5.97.693 5.266 2.633 3.93 2.833-1.341.205-2.084-.677-2.084-.677s-.089 1.048-1.53 2.245c.449-.1.92-.177 1.408-.21l.344-1.22.438.782s6.18-1.07 8.237-.82c-.006-.006-1.813-4.047-9.052-4.879z" opacity=".5"/>
        <path fill="#8EBF22" d="M27.452 38.541s.061 1.131-1.325 1.802c-1.386.665-2.877 1.347-2.877 1.347l-1.64-1.01-.045 1.947-4.7 3.68-1.553-.454.35 1.546-1.17 1.32s-1.175-5.172 4.174-9.418c4.074-3.243 9.257-2.196 8.786-.76z"/>
      </g>
      <g>
        <path fill="#71B62C" d="M37.831 43.719s3.603 1.968 4.89 2.117l.654-1.701.194 2.028 1.668 1.231 1.031-1.519-.305 1.735s4.446 3.764 5.799 5.76c.76-.605 1.03-.776 1.03-.776l-.204 1.053s2.882 3.553 3.248 4.723c1.458-1.209 2.062-1.491 2.062-1.491l-.504 1.712s5.06 2.778 6.23 6.747c0 0 .095-7.473-4.28-15.261l-.925-.094.122-.704s-1.885-3.903-4.9-6.27l-1.037.233.067-1.075s-4.041-3.504-4.984-4.269l-1.208.688-.122-.81s-3.886-1.901-10.205.882c-.538 1.74 1.68 5.06 1.68 5.06z"/>
        <path fill="#305D28" d="M36.434 38.613s.615-.05 1.69-.005c.538.027 1.192.077 1.935.177a22.9 22.9 0 012.483.46c.904.21 1.857.516 2.86.876.993.371 2.018.82 3.038 1.37 1.015.56 2.046 1.174 3.021 1.906.993.704 1.913 1.53 2.816 2.378l.643.67c.211.228.438.433.632.677.194.233.4.471.593.699l.294.349.277.366a31.15 31.15 0 012.462 3.675c.144.244.294.488.41.732.255.499.504.98.748 1.452.227.482.427.953.632 1.408.1.227.205.45.294.67.083.223.172.444.255.66.166.433.321.843.471 1.242.133.4.25.782.371 1.136.111.355.217.693.322 1.004.094.31.166.599.233.853.271 1.043.432 1.636.432 1.636l-.476-1.624c-.078-.26-.15-.55-.255-.854-.106-.305-.217-.638-.339-.992-.122-.355-.244-.732-.393-1.131-.155-.388-.316-.798-.488-1.225l-.26-.654c-.09-.228-.2-.444-.3-.671-.21-.45-.421-.92-.648-1.391-.244-.466-.5-.943-.76-1.436-.26-.488-.565-.965-.854-1.464a30.886 30.886 0 00-2.023-2.91l-.271-.355-.3-.343c-.194-.233-.393-.46-.593-.699-.188-.233-.416-.443-.626-.67l-.638-.66c-.892-.843-1.807-1.663-2.783-2.367-.964-.732-1.984-1.342-2.987-1.901-.51-.266-1.004-.533-1.52-.754-.493-.244-.997-.433-1.49-.638-.987-.371-1.935-.687-2.833-.903a24.91 24.91 0 00-4.385-.727c-1.075-.06-1.69-.022-1.69-.022z"/>
        <path fill="#8EBF22" d="M46.666 43.758c.572.482.804 1.147.516 1.48-.283.332-.976.205-1.541-.283-.57-.488-.798-1.153-.51-1.48.272-.333.965-.205 1.535.283zM48.884 45.094c.183.277.183.598.011.704-.177.116-.46-.017-.643-.3-.183-.277-.183-.593-.011-.71.177-.11.465.023.643.306z"/>
        <path fill="#509333" d="M59.34 50.071l-.925-.094.122-.704s-1.885-3.902-4.9-6.27l-1.031.239.066-1.075-.543-.472c-.128 1.07-.882 1.253-4.385-.388 5.133 2.728 6.757 6.442 5.793 8.11-.538.926-1.641 2.123-2.517 3.01.294.333.549.654.743.937.76-.604 1.031-.776 1.031-.776l-.205 1.053s2.883 3.553 3.248 4.723c1.458-1.208 2.062-1.491 2.062-1.491l-.504 1.713s5.061 2.777 6.23 6.746c-.005 0 .09-7.472-4.284-15.26z" opacity=".3"/>
        <path fill="#416D2B" d="M56.397 48.225c1.73 3.393 2.056 4.563 1.136 6.53-.499 1.07-1.486 1.946-2.273 2.517.277.438.488.826.571 1.092 1.458-1.208 2.062-1.491 2.062-1.491l-.504 1.713s5.06 2.777 6.23 6.746c0 0 .067-5.31-2.533-11.641-1.003-.665-2.284-2.384-4.69-5.466z" opacity=".4"/>
        <path fill="#416D2B" d="M46.385 40.599c-1.701-1.253-1.724-2.35-1.175-3.188-1.59-.366-4.761-.643-9.058 1.248-.543 1.74 1.675 5.06 1.675 5.06s2.394 1.309 3.974 1.874c.078-.61.227-1.402.527-2.322.704-2.162.643-4.091 4.057-2.672z" opacity=".3"/>
        <path fill="#416D2B" d="M40.171 38.796c-1.918-.526-1.086-1.014.2-1.435-1.242.216-2.655.615-4.219 1.302-.543 1.74 1.675 5.061 1.675 5.061s1.125.616 2.339 1.181c-.926-5.094-2.046-5.693.005-6.109z" opacity=".3"/>
      </g>
      <g>
        <path fill="#71B62C" d="M35.638 39.422s-7.085-1.823-10.289 6.586l.832-.033-1.248 1.03.372.594s-1.558 4.529-1.613 7.24l1.225.094-.981.892.56.011s-1.597 1.175-.006 6.153h.654l-.599 1.58.765.16s1.408 6.22 4.546 10.971c.62-6.99 1.907-8.398 1.907-8.398l-.677-.737.87.15.843-4.884-.781-.255 1.424-1.053.677-2.34-1.037-.681 1.724.293 2.129-7.5-1.142-1.419 1.624.876 1.491-4.324c.006.006.316-3.492-3.27-5.005z"/>
        <path fill="#305D28" d="M35.638 39.422s-.483.283-1.214.92c-.372.316-.788.732-1.242 1.231-.46.493-.931 1.098-1.403 1.774a18.604 18.604 0 00-1.374 2.295c-.111.216-.222.427-.327.643-.1.222-.2.455-.3.676-.105.227-.194.46-.288.699l-.283.72c-.16.494-.349.987-.482 1.503-.072.255-.144.51-.222.776-.06.26-.127.526-.188.787-.133.532-.216 1.07-.322 1.613-.105.543-.16 1.092-.243 1.635-.056.554-.1 1.103-.161 1.652-.022.549-.05 1.103-.078 1.646-.011.544-.011 1.087-.011 1.62.006.537.033 1.063.05 1.584.005.134.011.256.011.389l.033.382c.017.255.034.51.061.76.017.249.039.493.05.737l.083.715c.056.477.106.937.155 1.386.061.443.133.87.194 1.28.117.826.267 1.569.389 2.24.066.332.116.643.177.93.06.284.122.55.172.782.216.954.332 1.492.332 1.492s-.138-.538-.366-1.486c-.06-.233-.121-.499-.194-.782-.072-.282-.127-.593-.2-.925-.138-.66-.304-1.408-.426-2.234-.072-.41-.144-.837-.216-1.28-.055-.45-.116-.91-.177-1.387-.028-.238-.061-.476-.09-.72l-.066-.738-.066-.759c-.011-.127-.022-.26-.034-.382l-.016-.388c-.022-.527-.05-1.054-.061-1.586v-1.635c.028-.543.05-1.098.077-1.652.05-.554.095-1.109.156-1.663.083-.549.144-1.103.25-1.652.105-.543.193-1.092.332-1.624.06-.266.127-.527.188-.793.078-.266.155-.526.228-.781.138-.522.332-1.015.493-1.514.377-.97.77-1.907 1.236-2.744.45-.842.926-1.618 1.42-2.289a16.13 16.13 0 012.72-2.96c.755-.621 1.243-.893 1.243-.893z"/>
        <path fill="#509333" d="M36.137 47.627c-.981-.422-1.303-1.06-.715.565.587 1.624-1.081 4.956-4.058 4.152-2.977-.81-.416-8.043-.416-8.043-3.187 4.59-3.814 10.277-4.85 11.009-.571.399-1.375.798-1.99 1.075-.344.748-.66 2.373.377 5.61h.654l-.599 1.58.765.16s1.408 6.22 4.546 10.97c.62-6.99 1.907-8.397 1.907-8.397l-.677-.738.87.15.843-4.884-.781-.255 1.424-1.053.676-2.34-1.036-.68 1.724.293 2.128-7.5-1.142-1.42 1.625.877 1.49-4.324s.062-.682-.177-1.569c-.027 3.099-1.751 5.122-2.588 4.762z" opacity=".3"/>
        <path fill="#509333" d="M26.686 60.698c-.987.815-1.724 1.108-2.223 1.192l.027.105h.655l-.6 1.58.766.16s1.408 6.22 4.545 10.97c.621-6.99 1.907-8.397 1.907-8.397l-.676-.738.87.15.294-1.713c-3.431-.865-3.63-4.906-5.565-3.31z" opacity=".5"/>
        <path fill="#8EBF22" d="M33.924 40.043s-2.949 2.65-6.552 10.045c-1.303 3.509-2.1 4.28-2.1 4.28s-1.248-2.706 1.263-6.78l-.865-.438 1.591-.81-.859-1.13c0-.006 3.27-6.126 7.522-5.167z"/>
        <g>
          <path fill="#8EBF22" d="M31.568 50.121c-.233.704-.737 1.159-1.125 1.037-.382-.128-.504-.804-.272-1.502.239-.704.738-1.165 1.126-1.032.388.128.51.799.271 1.497zM32.515 48.209c.011.105-.122.221-.31.244-.189.033-.35-.034-.366-.145-.017-.105.122-.221.305-.249.188-.028.35.039.371.15zM29.662 59.4c-.067.627-.4 1.104-.737 1.065-.333-.039-.555-.577-.488-1.203.066-.62.399-1.098.737-1.059.338.039.554.571.488 1.197zM26.9 51.762c-.082.21-.243.343-.36.3-.116-.05-.138-.261-.055-.472.089-.216.255-.35.366-.305.116.05.138.26.05.477zM30.11 43.247c-.083.211-.244.344-.36.3-.117-.045-.14-.255-.056-.466.094-.21.25-.344.366-.3.116.04.144.25.05.466z"/>
        </g>
        <g>
          <path fill="#71B62C" d="M32.402 42.571c-.183.177-.293.294-.293.294s.072-.056.293-.294z"/>
          <path fill="#416D2B" d="M35.639 39.422s-3.038-.776-6.031 1.037l.088.028s3.504-1.785 4.629-.355c-1.042 1.413-1.613 2.1-1.918 2.44.843-.821 3.287-2.933 4.374-1.32 1.086 1.618.393 2.66 1.857 3.99l.282-.808c-.005 0 .305-3.498-3.281-5.011z" opacity=".3"/>
        </g>
      </g>
    </g>
    <g>
      <path fill="#71B62C" d="M45.122 155.017s-2.2-5.587-6.946-4.872c3.404-1.874 6.946 1.674 7.733 3.01-1.053-3.143-3.414-4.629-3.414-4.629s2.821.061 4.28 2.65c-.195-2.589-5.2-5.527-5.2-5.527s3.996.078 5.382 2.877c0 0-1.69-4.789-3.531-5.388 2.639.089 3.736 3.514 3.736 3.514s.028-3.015-1.824-5.643c2.877 2.966 3.238 5.333 3.238 5.333s1.125-3.465 2.7-5.261c0 0-1.57 4.413-1.231 7.949.71-3.015 3.764-3.381 3.764-3.381s-1.763 2.5-1.353 5.837c1.014-2.289 3.78-2.611 3.78-2.611s-1.701 1.608-1.43 4.679l-9.684 1.463z"/>
      <path fill="#71B62C" d="M52.456 151.486c-.41-3.337 1.352-5.837 1.352-5.837s-3.054.366-3.763 3.381c-.339-3.536 1.23-7.949 1.23-7.949-1.574 1.796-2.7 5.261-2.7 5.261s-.36-2.373-3.237-5.333c1.852 2.633 1.824 5.643 1.824 5.643s-1.097-3.425-3.736-3.514c1.84.599 3.531 5.388 3.531 5.388-1.391-2.799-5.383-2.877-5.383-2.877s5.006 2.932 5.2 5.527c-1.458-2.595-4.28-2.65-4.28-2.65s2.356 1.486 3.415 4.629c-.726-1.242-3.83-4.38-6.995-3.332 1.463-.066 3.891.455 6.197 3.819.72 1.22 2.644.427-.676-3.58-.976-1.004 1.618.548 2.921 3.032 1.286 2.45.189-2.622-1.79-4.812-.034-.033-.067-.061-.095-.094-2.04-2.123 1.974.737 3.01 3.592 1.037 2.855-.288-4.756-1.369-7.672 1.447 1.535 1.84 4.845 1.84 4.845s-.038-3.326.777-4.806c.815-1.486-1.181 3.076.47 6.912-.016-2.25 1.281-3.597 2.196-4.445-.848 1.518-1.12 3.996-.011 5.875.382-1.99 2.833-3.076 2.833-3.076s-1.896 1.569-1.065 4.263l.654-.1c-.271-3.065 1.43-4.679 1.43-4.679s-2.771.3-3.78 2.589z" opacity=".5"/>
      <path fill="#71B62C" d="M51.32 153.36s-.033-.078-.083-.222c-.039-.144-.11-.344-.166-.593a7.451 7.451 0 01-.155-.865 8.343 8.343 0 01-.061-1.003c.01-.344.033-.688.094-1.004.028-.16.055-.31.1-.46.044-.138.083-.277.127-.393.05-.122.1-.227.144-.322.044-.1.1-.172.128-.233.077-.127.127-.199.127-.199s-.022.083-.072.227c-.022.072-.055.15-.083.25-.022.094-.05.205-.083.327-.028.127-.045.255-.078.399-.033.138-.039.288-.06.443-.023.15-.017.311-.04.477-.01.161-.01.333-.016.493.005.172 0 .333.01.499.006.167.006.327.017.483.017.315.045.604.067.853.028.25.044.46.067.61.005.15.016.233.016.233zM49.44 145.793l-.017.089c-.01.05-.01.133-.027.232a2.21 2.21 0 00-.023.361c0 .138-.016.294-.01.465.005.172.01.355.022.549-.006.2.044.405.06.616.034.21.04.432.084.654.038.221.088.443.127.67.039.228.072.444.139.666.06.21.116.432.166.637.061.205.1.41.155.599.067.183.122.366.178.526.116.322.188.605.25.799.055.194.088.304.088.304s-.056-.099-.139-.282c-.083-.183-.216-.444-.349-.765-.072-.155-.144-.333-.222-.516-.072-.183-.133-.382-.2-.593-.06-.211-.127-.427-.193-.643a5.53 5.53 0 01-.15-.682c-.044-.227-.083-.46-.122-.682-.044-.221-.039-.454-.055-.67-.011-.216-.04-.433-.023-.627.011-.205.023-.393.034-.56 0-.182.044-.338.066-.482.022-.138.045-.26.078-.36.033-.2.083-.305.083-.305zM54.19 150.267s-.104.16-.232.415c-.06.122-.127.272-.194.433-.06.16-.128.332-.172.504-.11.355-.172.715-.2.992-.01.072-.022.133-.022.189a3.083 3.083 0 01-.016.15.975.975 0 01-.017.133l-.044-.128c-.017-.078-.056-.205-.072-.344-.011-.077-.028-.155-.022-.238 0-.083-.006-.177.01-.266.012-.094.012-.188.034-.283.022-.094.033-.188.066-.288.062-.188.134-.377.228-.538.088-.16.194-.305.288-.415.194-.217.366-.316.366-.316zM47.899 146.093s.044.11.116.299c.078.194.189.465.294.798.11.333.25.721.377 1.142.127.421.25.876.371 1.33.061.228.117.455.172.677.056.221.117.443.156.659.083.433.15.843.21 1.181.061.355.094.643.128.848.027.2.038.316.038.316s-.038-.111-.094-.305c-.055-.199-.144-.476-.233-.82-.088-.338-.2-.732-.299-1.159-.044-.216-.116-.432-.177-.654-.061-.222-.117-.449-.183-.671-.061-.227-.111-.454-.172-.67-.061-.233-.1-.449-.16-.66-.112-.421-.206-.826-.295-1.17-.077-.343-.144-.626-.188-.831l-.061-.31zM46.331 148.859s.061.061.166.177c.1.116.25.288.416.499.161.211.344.46.527.743.188.277.355.593.527.909.083.161.155.321.232.482.072.166.139.322.194.482.117.311.2.616.255.876.028.139.045.255.061.366.022.105.017.2.028.283a3.8 3.8 0 01.011.244s-.028-.089-.066-.233c-.023-.078-.04-.172-.073-.272a4.006 4.006 0 01-.11-.338c-.05-.122-.1-.255-.156-.393-.06-.145-.116-.283-.183-.438-.138-.294-.282-.616-.443-.921-.083-.155-.16-.31-.244-.465-.083-.15-.166-.305-.244-.444a78.52 78.52 0 01-.449-.787l-.449-.77zM44.974 150.516s.06.022.155.083c.044.028.105.067.166.111.066.05.139.094.205.161.072.066.15.133.227.211.084.077.15.166.228.255.077.094.166.188.233.288.066.105.144.21.21.316.067.105.139.21.189.321.06.111.105.222.16.327.111.211.189.416.244.605.117.365.172.609.172.609s-.144-.21-.321-.537l-.145-.272a6.344 6.344 0 01-.166-.283c-.06-.105-.122-.205-.183-.31-.05-.106-.127-.211-.194-.311a8.306 8.306 0 00-.388-.604c-.072-.089-.122-.188-.188-.271a3.605 3.605 0 01-.183-.233c-.056-.078-.111-.139-.161-.2s-.089-.105-.128-.149a2.345 2.345 0 00-.133-.117z"/>
    </g>
    <g>
      <path fill="#71B62C" d="M61.444 153.143s-.605-3.963-2.833-6.679c2.877 1.674 3.803 4.451 3.803 4.451s-.749-5.632-1.541-6.829c2.477 4.041 2.6 5.432 2.6 5.432s-1.137-6.691-1.758-8.592c2.151 4.302 3.337 8.908 3.337 8.908s-.604-6.652 1.048-8.714c.022 5.488.915 8.509.915 8.509s.487-5.527 4.528-7.949c-1.025 1.901-1.49 6.269-1.49 6.269s1.8-3.037 5.543-3.78c-2.656 2.871-3.565 6.031-3.565 6.031s2.157-2.361 4.845-2.328c-2.877 2.622-2.75 3.47-2.75 3.47l-12.682 1.801z"/>
      <path fill="#71B62C" d="M63.452 149.38c.017.083.022.133.022.133s-.005-.045-.022-.133z"/>
      <path fill="#71B62C" d="M72.027 150.183s.904-3.154 3.565-6.031c-3.742.743-5.544 3.781-5.544 3.781s.471-4.368 1.492-6.27c-4.042 2.428-4.53 7.949-4.53 7.949s-.886-3.021-.914-8.509c-1.652 2.057-1.048 8.715-1.048 8.715s-1.18-4.607-3.337-8.909c.571 1.747 1.569 7.517 1.735 8.46.017.088.022.133.022.133s-.01-.05-.022-.133c-.088-.427-.526-1.963-2.577-5.3.792 1.197 1.54 6.829 1.54 6.829s-.88-2.627-3.57-4.318c.744.798 2.168 2.534 3.105 4.923.643 1.873 1.175-.981.25-4.219 1.435 3.121 1.85 4.263 1.85 4.263s-.005-3.492-1.13-6.702c1.89 4.296 2.384 6.719 2.384 6.719s.055-5.477.3-7.606c.465 4.191 1.318 6.913 1.318 6.913s1.159-6.164 3.498-7.999c-.964 5.089-.632 6.203-.632 6.203s1.796-3.287 4.574-4.346c-3.022 3.464-2.606 5.975-2.606 5.975s1.868-1.729 3.531-2.178c-1.347 1.097-1.862 2.217-2.056 2.921l.903-.133s-.127-.848 2.75-3.47c-2.694-.017-4.85 2.339-4.85 2.339z" opacity=".5"/>
      <path fill="#71B62C" d="M69.753 144.302s-.188.388-.399.992c-.105.299-.222.654-.327 1.037-.105.388-.205.798-.277 1.208-.045.211-.067.421-.1.626-.033.206-.044.411-.072.61-.022.2-.022.388-.039.571-.017.183-.017.355-.017.516.006.155-.01.305-.005.432 0 .133.011.25.011.338.006.189.006.3.006.3s-.028-.106-.061-.289c-.017-.094-.04-.205-.061-.338-.028-.127-.034-.277-.056-.438a3.91 3.91 0 01-.027-.526c-.006-.183-.017-.383-.006-.582.017-.2.017-.416.05-.627.028-.216.05-.427.094-.637.078-.427.189-.848.316-1.236.061-.194.139-.372.2-.549.072-.167.138-.333.216-.477.138-.294.288-.521.382-.682.106-.161.172-.249.172-.249zM73.423 145.466s-.072.066-.2.194c-.127.122-.294.31-.499.532-.094.116-.21.238-.316.371-.11.133-.216.272-.332.422-.122.144-.222.31-.338.471-.106.161-.211.327-.316.499-.095.177-.205.343-.283.526-.078.183-.172.35-.233.521-.06.178-.133.339-.172.505-.038.161-.105.316-.122.466-.027.144-.055.282-.077.404-.011.128-.022.233-.028.316l-.028.283-.027-.277c-.006-.089-.011-.2-.023-.327.006-.128.011-.266.028-.422 0-.155.044-.316.072-.493a4.31 4.31 0 01.144-.538c.056-.183.133-.371.222-.56.078-.188.189-.36.283-.548.105-.172.222-.344.338-.516.122-.161.238-.321.366-.466.244-.299.51-.548.737-.753.227-.206.438-.355.588-.455.127-.105.216-.155.216-.155zM74.265 149.125s-.1.121-.266.282c-.078.083-.172.172-.272.272-.1.1-.21.199-.31.31-.056.05-.106.1-.155.155-.045.056-.1.1-.145.156-.088.099-.16.199-.227.288-.033.044-.05.094-.078.133a.61.61 0 00-.05.105c-.027.061-.038.1-.038.1l-.017-.111a.536.536 0 010-.133c.006-.05.011-.105.034-.166.033-.122.094-.244.177-.372.072-.133.183-.249.294-.365a2.92 2.92 0 01.693-.505c.205-.111.36-.149.36-.149zM65.684 145.793s.06.366.138.915c.034.271.084.587.128.931.044.344.105.704.155 1.07.055.36.117.726.172 1.064.066.333.122.649.172.926.066.26.11.488.15.643.038.155.05.255.05.255s-.04-.083-.106-.233c-.061-.15-.155-.366-.26-.626a19.153 19.153 0 01-.261-.915 18.338 18.338 0 01-.205-1.07c-.044-.371-.1-.737-.122-1.086a12.156 12.156 0 01-.044-.948c.005-.56.033-.926.033-.926zM63.795 147.495s.033.066.077.183c.04.122.111.277.172.488.072.205.144.443.205.698a12.62 12.62 0 01.31 1.652c.023.272.04.521.05.732.006.105-.005.205-.01.293-.006.089-.011.167-.011.228-.006.127-.017.194-.017.194s-.017-.072-.039-.194l-.094-.505c-.045-.21-.089-.454-.133-.715-.056-.255-.106-.537-.161-.809-.05-.283-.1-.56-.15-.82-.044-.261-.083-.51-.116-.716-.028-.216-.056-.388-.072-.51-.006-.127-.011-.199-.011-.199zM60.086 148.492s.183.2.404.533c.117.16.244.365.372.582.127.216.243.465.36.704.116.244.21.493.3.737.044.116.071.244.099.355.033.111.055.21.078.316.027.099.022.194.033.277.005.088.017.155.017.216.005.116.01.183.01.183s-.022-.061-.06-.177c-.023-.056-.045-.122-.072-.194-.028-.078-.045-.167-.09-.255-.077-.183-.16-.4-.26-.627-.11-.227-.205-.466-.321-.709-.222-.483-.444-.965-.61-1.32-.16-.366-.26-.621-.26-.621z"/>
    </g>
  </g>
</svg>
